<svg id="svg" version="1.1" width="400" height="400" viewBox="0 0 400 400" xmlns="http://www.w3.org/2000/svg" xmlns:xlink="http://www.w3.org/1999/xlink" ><g id="svgg"><path id="path0" d="M178.516 99.623 C 159.371 101.968,149.490 111.193,150.091 126.162 C 150.552 137.646,156.454 144.666,170.137 150.004 C 186.942 156.560,190.628 159.244,190.624 164.926 C 190.617 173.723,174.643 175.667,155.371 169.216 L 153.125 168.464 153.125 175.610 L 153.125 182.756 155.371 183.605 C 165.819 187.553,181.111 188.333,192.365 185.492 C 205.791 182.104,212.982 173.627,213.571 160.494 C 214.125 148.155,206.695 140.116,189.449 134.397 C 175.389 129.734,170.425 124.777,173.486 118.454 C 176.758 111.696,189.492 110.829,203.565 116.407 C 205.732 117.266,207.574 117.969,207.659 117.969 C 207.743 117.969,207.813 114.809,207.813 110.948 L 207.813 103.926 206.738 103.375 C 200.907 100.381,187.205 98.559,178.516 99.623 M226.048 101.036 C 225.901 101.182,225.781 116.309,225.781 134.652 C 225.781 171.277,225.782 171.258,223.413 176.485 C 220.597 182.694,216.017 187.307,207.991 192.017 C 205.362 193.560,209.792 194.372,218.923 194.022 C 234.338 193.432,242.751 187.922,246.479 175.977 C 247.767 171.851,248.082 161.902,247.959 129.297 L 247.852 100.977 237.083 100.873 C 231.160 100.816,226.194 100.889,226.048 101.036 M48.193 195.885 C 47.121 198.678,59.325 213.424,65.052 216.256 L 68.121 217.773 95.682 218.004 C 124.513 218.244,125.994 218.328,133.067 220.122 C 147.918 223.890,160.840 234.663,164.452 246.289 C 167.183 255.076,173.478 257.537,175.615 250.654 C 176.472 247.894,176.811 236.979,176.203 231.745 C 173.893 211.877,159.644 198.914,136.796 195.896 C 130.243 195.030,48.525 195.020,48.193 195.885 M262.446 195.907 C 242.923 198.571,228.994 209.272,224.651 224.945 C 221.960 234.656,222.651 251.017,225.866 253.723 C 229.136 256.473,232.348 253.730,235.510 245.487 C 240.876 231.496,254.839 221.598,273.269 218.718 C 275.396 218.386,285.011 218.162,303.928 218.004 L 331.488 217.773 334.557 216.256 C 340.285 213.424,352.488 198.678,351.416 195.885 C 351.107 195.081,268.349 195.101,262.446 195.907 M77.096 231.050 C 76.113 233.613,87.315 248.156,93.305 252.092 C 97.601 254.915,98.456 255.078,109.001 255.078 C 124.591 255.078,124.864 255.229,132.090 267.823 C 147.037 293.871,169.411 306.725,199.805 306.725 C 230.300 306.725,252.651 293.834,267.627 267.610 C 274.572 255.448,274.744 255.351,289.844 255.056 C 302.161 254.816,302.152 254.818,306.305 252.091 C 312.292 248.160,323.497 233.613,322.513 231.050 C 322.094 229.959,281.385 230.427,275.084 231.595 C 259.601 234.465,252.708 239.818,244.332 255.478 C 239.500 264.512,236.484 268.099,230.268 272.209 C 211.394 284.687,188.216 284.687,169.342 272.209 C 163.121 268.096,160.106 264.508,155.275 255.469 C 146.982 239.949,139.900 234.440,124.602 231.608 C 118.227 230.428,77.519 229.949,77.096 231.050 " stroke="none" fill="#fafbfb" fill-rule="evenodd"></path><path id="path1" d="M186.426 112.780 C 187.017 112.869,187.983 112.869,188.574 112.780 C 189.165 112.690,188.682 112.617,187.500 112.617 C 186.318 112.617,185.835 112.690,186.426 112.780 M149.721 125.195 C 149.724 126.270,149.800 126.663,149.890 126.069 C 149.979 125.475,149.977 124.596,149.884 124.116 C 149.792 123.635,149.718 124.121,149.721 125.195 M213.763 158.594 C 213.763 159.346,213.843 159.653,213.941 159.277 C 214.039 158.901,214.039 158.286,213.941 157.910 C 213.843 157.534,213.763 157.842,213.763 158.594 M247.788 164.844 C 247.788 166.455,247.857 167.114,247.941 166.309 C 248.025 165.503,248.025 164.185,247.941 163.379 C 247.857 162.573,247.788 163.232,247.788 164.844 M175.098 187.396 C 176.118 187.477,177.788 187.477,178.809 187.396 C 179.829 187.316,178.994 187.250,176.953 187.250 C 174.912 187.250,174.077 187.316,175.098 187.396 M82.129 218.262 C 88.735 218.322,99.546 218.322,106.152 218.262 C 112.759 218.201,107.354 218.152,94.141 218.152 C 80.928 218.152,75.522 218.201,82.129 218.262 M293.457 218.262 C 300.063 218.322,310.874 218.322,317.480 218.262 C 324.087 218.201,318.682 218.152,305.469 218.152 C 292.256 218.152,286.851 218.201,293.457 218.262 M115.332 230.738 C 115.708 230.836,116.323 230.836,116.699 230.738 C 117.075 230.640,116.768 230.559,116.016 230.559 C 115.264 230.559,114.956 230.640,115.332 230.738 M282.910 230.738 C 283.286 230.836,283.901 230.836,284.277 230.738 C 284.653 230.640,284.346 230.559,283.594 230.559 C 282.842 230.559,282.534 230.640,282.910 230.738 M155.469 232.617 C 156.198 233.369,156.882 233.984,156.989 233.984 C 157.097 233.984,156.588 233.369,155.859 232.617 C 155.131 231.865,154.446 231.250,154.339 231.250 C 154.232 231.250,154.740 231.865,155.469 232.617 M243.729 232.715 L 242.383 234.180 243.848 232.834 C 244.653 232.093,245.313 231.434,245.313 231.369 C 245.313 231.070,244.982 231.351,243.729 232.715 M87.109 246.997 C 87.109 247.064,87.681 247.636,88.379 248.267 L 89.648 249.414 88.501 248.145 C 87.432 246.961,87.109 246.695,87.109 246.997 M311.108 248.145 L 309.961 249.414 311.230 248.267 C 311.929 247.636,312.500 247.064,312.500 246.997 C 312.500 246.695,312.178 246.961,311.108 248.145 M105.393 255.370 C 108.038 255.438,112.256 255.438,114.768 255.370 C 117.281 255.302,115.117 255.246,109.961 255.247 C 104.805 255.247,102.749 255.302,105.393 255.370 M285.081 255.370 C 287.725 255.438,291.944 255.438,294.456 255.370 C 296.968 255.302,294.805 255.246,289.648 255.247 C 284.492 255.247,282.437 255.302,285.081 255.370 M195.605 306.916 C 196.089 307.009,196.880 307.009,197.363 306.916 C 197.847 306.823,197.451 306.747,196.484 306.747 C 195.518 306.747,195.122 306.823,195.605 306.916 M202.246 306.916 C 202.729 307.009,203.521 307.009,204.004 306.916 C 204.487 306.823,204.092 306.747,203.125 306.747 C 202.158 306.747,201.763 306.823,202.246 306.916 " stroke="none" fill="#84d4a4" fill-rule="evenodd"></path><path id="path2" d="M156.030 108.691 L 154.883 109.961 156.152 108.814 C 156.851 108.183,157.422 107.611,157.422 107.544 C 157.422 107.242,157.100 107.508,156.030 108.691 M207.422 144.336 C 208.151 145.088,208.835 145.703,208.942 145.703 C 209.050 145.703,208.541 145.088,207.813 144.336 C 207.084 143.584,206.399 142.969,206.292 142.969 C 206.185 142.969,206.693 143.584,207.422 144.336 M152.897 175.391 C 152.897 179.365,152.955 180.991,153.025 179.004 C 153.096 177.017,153.096 173.765,153.025 171.777 C 152.955 169.790,152.897 171.416,152.897 175.391 M214.563 194.428 C 215.590 194.509,217.172 194.508,218.078 194.426 C 218.985 194.344,218.145 194.278,216.211 194.279 C 214.277 194.280,213.536 194.347,214.563 194.428 M69.268 195.215 C 80.618 195.272,99.075 195.272,110.284 195.215 C 121.493 195.157,112.207 195.110,89.648 195.110 C 67.090 195.110,57.919 195.157,69.268 195.215 M289.581 195.215 C 300.930 195.272,319.387 195.272,330.596 195.215 C 341.805 195.157,332.520 195.110,309.961 195.110 C 287.402 195.110,278.231 195.157,289.581 195.215 M144.922 285.742 C 146.089 286.924,147.132 287.891,147.239 287.891 C 147.346 287.891,146.479 286.924,145.313 285.742 C 144.146 284.561,143.103 283.594,142.995 283.594 C 142.888 283.594,143.755 284.561,144.922 285.742 M254.284 285.840 L 252.148 288.086 254.395 285.951 C 256.481 283.967,256.820 283.594,256.530 283.594 C 256.469 283.594,255.458 284.604,254.284 285.840 " stroke="none" fill="#4fc77d" fill-rule="evenodd"></path><path id="path3" d="M0.000 200.000 L 0.000 400.000 200.000 400.000 L 400.000 400.000 400.000 200.000 L 400.000 0.000 200.000 0.000 L 0.000 0.000 0.000 200.000 M198.047 100.333 C 201.367 101.120,204.715 102.202,206.738 103.142 L 207.813 103.641 207.813 111.042 C 207.813 116.813,207.705 118.397,207.324 118.235 C 189.142 110.500,175.476 111.292,173.072 120.218 C 171.616 125.625,176.541 129.780,189.648 134.205 C 206.930 140.040,214.806 148.735,213.901 160.981 C 212.942 173.946,205.614 182.396,192.429 185.740 C 180.531 188.757,163.333 187.621,153.809 183.187 L 152.734 182.687 152.734 175.523 C 152.734 167.552,152.578 167.920,155.517 168.970 C 170.800 174.427,186.874 173.907,189.801 167.862 C 192.803 161.659,188.462 157.491,172.461 151.213 C 155.812 144.680,149.787 137.757,149.818 125.195 C 149.854 111.132,158.602 102.627,175.977 99.763 C 180.743 98.978,193.744 99.314,198.047 100.333 M247.959 136.621 L 247.841 172.461 246.748 175.968 C 242.619 189.215,231.377 195.364,213.149 194.347 C 207.726 194.045,207.422 193.960,207.422 192.740 C 207.422 192.041,207.830 191.607,209.082 190.976 C 215.831 187.574,222.026 180.549,224.202 173.828 C 225.605 169.496,225.768 165.224,225.774 132.520 L 225.781 100.781 236.929 100.781 L 248.078 100.781 247.959 136.621 M139.653 196.007 C 166.365 201.113,178.267 217.060,176.509 245.390 C 175.702 258.414,168.912 258.501,163.895 245.553 C 158.848 232.527,146.424 223.111,129.470 219.463 C 125.769 218.666,124.240 218.616,97.070 218.388 C 65.471 218.123,67.551 218.303,63.098 215.454 C 57.098 211.616,47.131 198.262,48.196 195.487 C 48.613 194.400,133.780 194.884,139.653 196.007 M351.482 196.104 C 351.836 199.136,341.877 212.022,336.543 215.434 C 332.053 218.306,334.160 218.123,302.539 218.388 C 275.370 218.616,273.840 218.666,270.139 219.463 C 253.185 223.111,240.762 232.527,235.715 245.553 C 231.810 255.631,226.606 258.130,223.936 251.211 C 222.799 248.267,222.951 229.926,224.147 225.586 C 228.898 208.345,244.298 197.115,265.625 195.339 C 267.666 195.169,287.793 195.049,310.352 195.073 L 351.367 195.117 351.482 196.104 M121.967 231.049 C 138.681 233.240,146.570 238.874,155.070 254.688 C 160.211 264.252,163.209 267.867,169.427 272.001 C 188.163 284.457,211.426 284.470,230.130 272.036 C 236.371 267.887,239.424 264.243,244.336 255.078 C 253.032 238.854,260.788 233.259,277.643 231.049 C 284.166 230.194,322.575 230.194,322.903 231.049 C 323.779 233.331,312.832 247.772,307.156 251.822 C 302.516 255.134,302.092 255.221,289.453 255.456 L 278.320 255.664 276.199 256.836 C 273.724 258.203,271.943 260.446,268.567 266.445 C 263.637 275.205,260.780 279.276,255.982 284.376 C 227.489 314.665,172.121 314.665,143.627 284.376 C 138.670 279.107,136.776 276.376,130.124 264.900 C 126.964 259.450,125.967 258.255,123.381 256.823 L 121.289 255.664 110.156 255.456 C 97.517 255.221,97.093 255.134,92.453 251.822 C 86.777 247.772,75.830 233.331,76.706 231.049 C 77.034 230.194,115.443 230.194,121.967 231.049 " stroke="none" fill="#04ac4c" fill-rule="evenodd"></path><path id="path4" d="M165.625 208.789 C 166.354 209.541,167.038 210.156,167.145 210.156 C 167.253 210.156,166.744 209.541,166.016 208.789 C 165.287 208.037,164.603 207.422,164.495 207.422 C 164.388 207.422,164.896 208.037,165.625 208.789 M233.573 208.887 L 232.227 210.352 233.691 209.005 C 235.055 207.752,235.336 207.422,235.038 207.422 C 234.972 207.422,234.313 208.081,233.573 208.887 M58.203 211.523 C 58.932 212.275,59.616 212.891,59.724 212.891 C 59.831 212.891,59.323 212.275,58.594 211.523 C 57.865 210.771,57.181 210.156,57.073 210.156 C 56.966 210.156,57.474 210.771,58.203 211.523 M340.995 211.621 L 339.648 213.086 341.113 211.740 C 342.477 210.487,342.758 210.156,342.459 210.156 C 342.394 210.156,341.735 210.815,340.995 211.621 " stroke="none" fill="#2dbc68" fill-rule="evenodd"></path></g></svg>