<svg id="svg" version="1.1" width="400" height="400" viewBox="0 0 400 400" xmlns="http://www.w3.org/2000/svg" xmlns:xlink="http://www.w3.org/1999/xlink" ><g id="svgg"><path id="path0" d="M172.000 3.568 C 169.428 3.839,169.840 3.206,164.692 14.800 C 164.350 15.570,163.538 17.370,162.888 18.800 C 162.238 20.230,161.312 22.300,160.830 23.400 C 160.348 24.500,159.617 26.120,159.205 27.000 C 156.653 32.453,155.200 35.637,155.200 35.779 C 155.200 35.868,154.594 37.260,153.852 38.871 C 152.266 42.319,150.579 46.039,149.712 48.000 C 149.372 48.770,148.773 50.120,148.381 51.000 C 147.988 51.880,147.106 53.860,146.420 55.400 C 145.735 56.940,144.983 58.539,144.750 58.953 C 144.518 59.367,144.092 60.357,143.805 61.153 C 143.518 61.949,142.526 64.220,141.601 66.200 C 138.600 72.624,137.707 74.566,136.817 76.600 C 135.702 79.150,135.148 80.388,133.688 83.600 C 133.038 85.030,132.099 87.100,131.602 88.200 C 131.104 89.300,130.121 91.460,129.417 93.000 C 128.714 94.540,127.702 96.787,127.169 97.993 C 125.176 102.504,124.619 103.380,123.600 103.611 C 122.763 103.800,122.714 103.881,123.300 104.106 C 123.961 104.360,123.957 104.461,123.230 105.887 C 122.807 106.719,121.264 110.100,119.803 113.400 C 118.342 116.700,116.815 120.120,116.410 121.000 C 116.005 121.880,114.735 124.670,113.588 127.200 C 112.442 129.730,111.096 132.700,110.597 133.800 C 110.098 134.900,109.130 137.007,108.445 138.483 C 107.760 139.959,107.200 141.266,107.200 141.387 C 107.200 141.509,106.480 143.066,105.600 144.848 C 104.720 146.630,104.000 148.241,104.000 148.428 C 104.000 148.614,103.128 150.619,102.063 152.883 C 100.997 155.148,99.531 158.350,98.804 160.000 C 98.078 161.650,96.991 164.080,96.389 165.400 C 95.787 166.720,94.893 168.700,94.403 169.800 C 93.913 170.900,92.649 173.690,91.595 176.000 C 89.106 181.453,87.662 184.682,86.001 188.504 C 85.259 190.211,84.318 191.966,83.910 192.404 C 83.503 192.842,83.356 193.200,83.584 193.200 C 84.377 193.200,84.364 193.234,80.548 201.529 C 79.806 203.140,79.200 204.518,79.200 204.590 C 79.200 204.662,78.505 206.224,77.656 208.061 C 76.807 209.897,75.702 212.300,75.202 213.400 C 74.701 214.500,73.776 216.509,73.146 217.865 C 72.516 219.220,72.000 220.426,72.000 220.544 C 72.000 220.661,71.390 222.072,70.644 223.679 C 69.898 225.285,68.974 227.320,68.592 228.200 C 68.210 229.080,67.312 231.060,66.597 232.600 C 65.882 234.140,64.712 236.660,63.996 238.200 C 56.359 254.647,55.651 267.021,61.180 287.400 C 61.519 288.650,62.138 290.360,62.808 291.900 C 63.024 292.395,63.358 293.205,63.551 293.700 C 64.158 295.256,68.492 303.790,68.781 304.000 C 68.933 304.110,69.891 305.460,70.909 307.000 C 74.418 312.307,75.534 313.743,78.463 316.718 C 81.368 319.670,88.280 325.267,90.600 326.548 C 91.260 326.912,92.070 327.367,92.400 327.559 C 92.730 327.750,93.540 328.130,94.200 328.402 C 94.860 328.675,95.861 329.135,96.423 329.426 C 96.986 329.717,98.786 330.364,100.423 330.864 L 103.400 331.773 137.519 331.904 C 166.895 332.016,171.669 332.114,171.861 332.615 C 171.984 332.934,172.234 333.102,172.419 332.989 C 173.108 332.562,271.396 332.797,271.540 333.225 C 271.622 333.468,271.873 333.394,272.140 333.050 C 272.745 332.271,271.603 332.305,295.313 332.356 C 318.849 332.406,317.244 332.122,315.295 335.898 C 314.641 337.164,312.076 342.160,309.594 347.000 C 307.113 351.840,303.909 358.050,302.476 360.800 C 297.426 370.484,296.915 371.600,297.530 371.600 C 298.001 371.600,307.773 365.520,307.933 365.127 C 308.007 364.947,308.218 364.800,308.403 364.800 C 308.690 364.800,312.229 362.620,318.794 358.400 C 320.745 357.146,336.959 346.835,345.200 341.608 C 348.610 339.445,351.617 337.479,351.883 337.238 C 352.149 336.997,352.477 336.800,352.613 336.800 C 352.749 336.800,354.151 335.945,355.730 334.900 C 357.308 333.856,358.780 332.930,359.000 332.843 C 359.220 332.757,359.936 332.307,360.592 331.843 C 361.247 331.379,362.088 330.820,362.461 330.600 C 364.094 329.635,374.153 323.201,377.800 320.788 C 383.650 316.917,397.357 308.297,398.768 307.600 L 399.983 307.000 399.991 285.100 C 399.996 273.055,399.855 263.200,399.677 263.200 C 399.499 263.200,398.571 261.715,397.614 259.900 C 396.658 258.085,395.385 255.700,394.787 254.600 C 394.189 253.500,392.581 250.440,391.213 247.800 C 389.845 245.160,388.585 242.820,388.412 242.600 C 388.239 242.380,386.882 239.860,385.396 237.000 C 383.909 234.140,382.561 231.620,382.399 231.400 C 382.238 231.180,380.661 228.192,378.894 224.761 C 374.718 216.647,373.825 215.153,373.451 215.652 C 373.177 216.019,372.043 218.749,371.563 220.200 C 371.271 221.080,370.915 221.980,370.772 222.200 C 370.628 222.420,370.186 223.680,369.789 225.000 C 369.393 226.320,368.942 227.580,368.787 227.800 C 368.633 228.020,368.107 229.370,367.620 230.800 C 367.132 232.230,365.924 235.560,364.935 238.200 C 363.946 240.840,362.679 244.260,362.118 245.800 C 361.558 247.340,360.818 248.825,360.473 249.100 C 359.770 249.662,310.000 249.859,310.000 249.300 C 310.000 249.135,287.950 249.048,261.000 249.106 C 221.695 249.191,211.998 249.112,211.988 248.706 C 211.981 248.417,211.801 248.500,211.568 248.900 C 211.086 249.727,188.571 249.959,184.167 249.183 C 179.696 248.394,177.439 247.906,176.820 247.594 C 176.479 247.422,175.344 246.858,174.297 246.340 C 167.535 243.000,167.152 231.604,173.366 218.600 C 174.621 215.974,176.000 212.761,176.000 212.464 C 176.000 212.291,176.450 211.217,177.000 210.077 C 177.550 208.937,178.000 207.744,178.000 207.426 C 178.000 207.107,178.163 206.746,178.363 206.623 C 178.563 206.500,179.298 205.004,179.998 203.299 C 180.698 201.595,181.884 198.888,182.635 197.285 C 183.386 195.681,184.000 194.198,184.000 193.988 C 184.000 193.778,184.360 193.382,184.800 193.107 C 185.240 192.832,185.600 192.404,185.600 192.155 C 185.600 191.616,186.611 189.258,189.213 183.727 C 190.267 181.486,191.362 178.966,191.647 178.127 C 191.932 177.287,192.398 176.316,192.683 175.969 C 192.967 175.621,193.200 175.220,193.200 175.076 C 193.200 174.826,194.990 170.908,197.805 165.000 C 198.539 163.460,200.431 159.410,202.010 156.000 C 203.589 152.590,205.853 147.772,207.041 145.294 C 208.228 142.816,209.200 140.693,209.200 140.575 C 209.200 140.458,210.979 136.726,213.154 132.281 C 215.328 127.836,218.010 122.310,219.113 120.000 C 226.685 104.144,226.762 104.000,227.698 103.988 C 228.503 103.977,228.525 103.932,227.900 103.568 C 227.002 103.045,227.018 102.435,227.980 100.538 C 229.064 98.398,240.580 74.818,242.210 71.400 C 242.944 69.860,244.524 66.530,245.721 64.000 C 246.917 61.470,250.547 54.000,253.786 47.400 C 257.025 40.800,260.273 34.140,261.005 32.600 C 261.737 31.060,263.495 27.370,264.913 24.400 C 266.331 21.430,267.891 18.100,268.381 17.000 C 269.737 13.952,271.979 9.215,273.045 7.146 C 273.570 6.126,274.000 4.911,274.000 4.446 L 274.000 3.600 224.633 3.600 C 197.481 3.600,175.026 3.540,174.733 3.468 C 174.440 3.395,173.210 3.440,172.000 3.568 " stroke="none" fill="#d9251d" fill-rule="evenodd"></path><path id="path1" d="M335.637 0.351 C 335.327 0.557,333.437 0.847,331.437 0.995 C 329.437 1.144,327.170 1.420,326.400 1.609 C 318.232 3.611,317.530 3.856,311.400 6.844 C 308.150 8.429,307.483 8.824,304.291 11.054 C 301.286 13.153,296.026 18.059,292.958 21.622 C 291.440 23.387,288.584 28.134,286.835 31.800 C 285.891 33.780,284.972 35.689,284.792 36.043 C 282.168 41.199,280.932 56.481,282.546 63.800 C 283.673 68.908,284.241 70.655,286.159 74.911 C 286.731 76.182,287.200 77.316,287.200 77.430 C 287.200 77.545,287.830 78.623,288.600 79.827 C 289.370 81.031,290.000 82.121,290.000 82.250 C 290.000 82.379,290.585 83.230,291.300 84.141 C 292.015 85.052,292.870 86.152,293.200 86.586 C 293.825 87.407,299.971 93.501,300.880 94.200 C 301.166 94.420,302.300 95.331,303.400 96.226 C 314.000 104.841,333.272 109.273,347.400 106.345 C 351.066 105.585,354.183 104.706,355.896 103.949 C 356.828 103.537,357.699 103.200,357.831 103.200 C 357.963 103.200,359.237 102.660,360.663 102.000 C 362.089 101.340,363.338 100.800,363.438 100.800 C 363.818 100.800,369.077 97.380,370.788 96.021 C 374.194 93.315,374.569 92.989,377.016 90.600 C 379.160 88.507,384.000 82.428,384.000 81.829 C 384.000 81.712,384.630 80.631,385.400 79.427 C 386.170 78.223,386.800 77.152,386.800 77.047 C 386.800 76.942,387.318 75.718,387.951 74.328 C 390.984 67.664,392.003 62.480,391.986 53.800 C 391.967 44.260,390.624 38.773,386.112 29.800 C 383.700 25.004,374.845 14.000,373.397 14.000 C 373.203 14.000,372.584 13.574,372.022 13.052 C 365.624 7.118,354.688 2.611,342.800 1.007 C 340.490 0.696,338.060 0.336,337.400 0.209 C 336.740 0.081,335.947 0.145,335.637 0.351 M93.686 72.013 C 92.743 72.666,91.798 73.200,91.586 73.200 C 91.374 73.200,91.200 73.380,91.200 73.600 C 91.200 73.820,90.943 74.000,90.629 74.000 C 90.314 74.000,89.819 74.238,89.529 74.528 C 89.238 74.819,84.590 77.825,79.200 81.209 C 73.810 84.592,69.310 87.469,69.200 87.600 C 69.038 87.794,51.130 99.151,48.200 100.918 C 47.760 101.183,47.310 101.490,47.200 101.600 C 47.090 101.710,46.640 102.018,46.200 102.284 C 44.680 103.205,34.584 109.595,30.072 112.492 C 22.882 117.110,8.060 126.560,7.296 127.013 C 6.913 127.241,5.308 128.276,3.730 129.313 C 2.151 130.351,0.666 131.200,0.430 131.200 C 0.127 131.200,0.000 140.762,0.000 163.600 C 0.000 181.420,0.152 196.000,0.338 196.000 C 0.717 196.000,15.200 224.767,15.200 225.519 C 15.200 227.568,17.628 223.935,22.361 214.800 C 22.532 214.470,23.174 213.300,23.787 212.200 C 24.400 211.100,25.626 208.850,26.511 207.200 C 27.397 205.550,28.254 204.020,28.416 203.800 C 28.579 203.580,29.565 201.780,30.609 199.800 C 31.652 197.820,32.949 195.435,33.491 194.500 L 34.476 192.800 59.219 192.800 L 83.962 192.800 85.581 189.392 C 86.471 187.518,87.200 185.911,87.200 185.820 C 87.200 185.658,87.848 184.210,91.595 176.000 C 92.649 173.690,93.913 170.900,94.403 169.800 C 94.893 168.700,95.787 166.720,96.389 165.400 C 96.991 164.080,98.078 161.650,98.804 160.000 C 99.531 158.350,100.997 155.148,102.063 152.883 C 103.128 150.619,104.000 148.614,104.000 148.428 C 104.000 148.241,104.720 146.630,105.600 144.848 C 106.480 143.066,107.200 141.509,107.200 141.387 C 107.200 141.266,107.760 139.959,108.445 138.483 C 109.130 137.007,110.098 134.900,110.597 133.800 C 111.096 132.700,112.442 129.730,113.588 127.200 C 114.735 124.670,116.005 121.880,116.410 121.000 C 116.815 120.120,118.342 116.700,119.803 113.400 C 121.264 110.100,122.802 106.729,123.219 105.908 C 124.412 103.564,124.739 103.600,102.050 103.600 C 80.713 103.600,80.696 103.599,81.509 101.862 C 83.823 96.922,85.790 92.833,89.524 85.200 C 97.081 69.754,97.118 69.635,93.686 72.013 M227.683 103.884 C 226.751 104.063,226.482 104.569,219.113 120.000 C 218.010 122.310,215.328 127.836,213.154 132.281 C 210.979 136.726,209.200 140.458,209.200 140.575 C 209.200 140.693,208.228 142.816,207.041 145.294 C 205.853 147.772,203.589 152.590,202.010 156.000 C 200.431 159.410,198.539 163.460,197.805 165.000 C 194.990 170.908,193.200 174.826,193.200 175.076 C 193.200 175.220,192.967 175.621,192.683 175.969 C 192.398 176.316,191.932 177.287,191.647 178.127 C 191.362 178.966,190.267 181.486,189.213 183.727 C 186.508 189.478,185.600 191.619,185.600 192.251 C 185.600 192.703,187.514 192.800,196.421 192.800 C 209.838 192.800,215.807 193.883,219.564 197.000 C 227.015 203.181,227.731 211.367,221.954 224.303 C 220.186 228.262,220.000 228.736,220.000 229.280 C 220.000 229.588,219.848 230.011,219.662 230.220 C 219.477 230.429,218.823 231.860,218.209 233.400 C 217.595 234.940,216.779 236.920,216.396 237.800 C 216.012 238.680,215.118 240.840,214.408 242.600 C 213.698 244.360,212.866 246.367,212.559 247.060 C 212.251 247.754,212.000 248.519,212.000 248.760 C 212.000 249.077,225.489 249.200,260.371 249.200 C 311.299 249.200,310.000 249.242,310.000 247.611 C 310.000 247.428,310.698 245.776,311.552 243.939 C 314.849 236.843,315.550 235.294,316.598 232.789 C 317.194 231.365,318.089 229.300,318.587 228.200 C 320.365 224.277,321.156 222.505,324.395 215.200 C 327.987 207.097,328.675 205.565,330.590 201.400 C 332.320 197.640,333.445 194.093,334.460 189.200 C 335.194 185.665,335.190 170.847,334.455 166.800 C 333.781 163.091,332.855 158.927,332.410 157.600 C 332.225 157.050,331.582 154.980,330.979 153.000 C 330.377 151.020,329.460 148.511,328.942 147.425 C 328.424 146.339,328.000 145.287,328.000 145.088 C 328.000 144.663,325.282 139.226,324.057 137.200 C 323.591 136.430,323.046 135.440,322.846 135.000 C 322.502 134.246,320.351 130.980,316.917 126.000 C 315.421 123.830,306.532 114.631,304.200 112.838 C 294.688 105.528,290.426 104.405,270.600 103.988 C 253.974 103.639,229.277 103.579,227.683 103.884 M173.198 332.800 C 172.168 333.044,172.081 333.193,167.762 342.200 C 165.863 346.160,162.279 353.540,159.799 358.600 C 153.805 370.824,146.892 385.215,144.426 390.600 C 143.721 392.140,142.527 394.643,141.772 396.163 C 141.017 397.683,140.400 399.168,140.400 399.463 C 140.400 400.396,240.904 400.246,241.995 399.311 C 242.438 398.932,242.800 398.495,242.800 398.340 C 242.800 398.185,243.407 396.740,244.149 395.129 C 244.891 393.518,245.904 391.300,246.402 390.200 C 246.899 389.100,247.796 387.120,248.394 385.800 C 248.992 384.480,250.158 381.870,250.984 380.000 C 251.810 378.130,253.007 375.475,253.643 374.099 C 254.279 372.723,254.800 371.521,254.800 371.428 C 254.800 371.335,255.447 369.850,256.237 368.129 C 257.027 366.408,257.910 364.460,258.197 363.800 C 258.485 363.140,259.638 360.588,260.760 358.129 C 261.882 355.670,262.800 353.568,262.800 353.458 C 262.800 353.348,263.406 351.940,264.148 350.329 C 266.967 344.202,267.702 342.552,268.305 341.000 C 268.647 340.120,269.062 339.220,269.227 339.000 C 269.749 338.303,271.707 333.173,271.521 332.988 C 271.272 332.739,174.240 332.554,173.198 332.800 " stroke="none" fill="#1d1b14" fill-rule="evenodd"></path><path id="path2" d="M-0.000 65.386 L -0.000 130.771 2.620 129.086 C 4.061 128.158,5.550 127.220,5.928 127.000 C 6.307 126.780,7.181 126.195,7.870 125.700 C 8.559 125.205,9.321 124.800,9.562 124.800 C 9.803 124.800,10.000 124.641,10.000 124.447 C 10.000 124.252,10.315 123.988,10.700 123.858 C 11.413 123.619,12.838 122.777,13.200 122.381 C 13.376 122.189,25.702 114.337,27.800 113.081 C 28.240 112.818,29.173 112.197,29.873 111.701 C 30.574 111.205,31.339 110.800,31.573 110.800 C 31.808 110.800,32.000 110.661,32.000 110.491 C 32.000 110.321,32.675 109.828,33.500 109.395 C 34.325 108.962,35.090 108.508,35.200 108.386 C 35.376 108.191,41.751 104.072,43.535 103.001 C 43.901 102.782,44.773 102.197,45.473 101.701 C 46.174 101.205,46.877 100.800,47.036 100.800 C 47.194 100.800,47.914 100.350,48.636 99.800 C 49.357 99.250,50.139 98.800,50.373 98.800 C 50.608 98.800,50.800 98.640,50.800 98.443 C 50.800 98.247,51.250 97.974,51.800 97.836 C 52.350 97.698,52.800 97.408,52.800 97.192 C 52.800 96.977,53.070 96.800,53.400 96.800 C 53.730 96.800,54.000 96.661,54.000 96.491 C 54.000 96.321,54.675 95.828,55.500 95.395 C 56.325 94.962,57.090 94.507,57.200 94.385 C 57.392 94.171,67.298 87.823,68.724 87.000 C 69.105 86.780,69.981 86.195,70.670 85.700 C 71.359 85.205,72.059 84.800,72.224 84.800 C 72.389 84.800,73.114 84.350,73.836 83.800 C 74.557 83.250,75.324 82.800,75.540 82.800 C 75.756 82.800,75.993 82.659,76.067 82.486 C 76.172 82.238,86.880 75.308,90.600 73.081 C 91.040 72.818,91.973 72.197,92.673 71.701 C 93.374 71.205,94.056 70.800,94.190 70.800 C 94.324 70.800,94.820 70.440,95.292 70.000 C 97.328 68.103,97.916 69.653,96.355 72.800 C 95.222 75.084,91.500 82.790,86.213 93.800 C 84.522 97.320,82.883 100.678,82.569 101.262 C 82.256 101.846,82.000 102.431,82.000 102.562 C 82.000 102.693,91.429 102.800,102.954 102.800 L 123.909 102.800 124.609 101.300 C 125.626 99.119,127.779 94.422,128.504 92.800 C 128.848 92.030,129.662 90.230,130.312 88.800 C 130.962 87.370,131.895 85.300,132.384 84.200 C 132.874 83.100,133.689 81.300,134.195 80.200 C 136.639 74.895,140.800 65.592,140.800 65.434 C 140.800 65.237,142.382 61.761,145.053 56.089 C 146.014 54.048,146.800 52.306,146.800 52.218 C 146.800 52.130,147.407 50.740,148.149 49.129 C 148.891 47.518,149.903 45.300,150.398 44.200 C 150.893 43.100,151.878 40.940,152.588 39.400 C 153.297 37.860,154.199 35.880,154.592 35.000 C 154.984 34.120,155.642 32.691,156.053 31.825 C 156.464 30.959,156.800 30.117,156.800 29.955 C 156.800 29.793,157.880 27.412,159.200 24.665 C 160.520 21.917,161.600 19.547,161.600 19.396 C 161.600 19.246,162.203 17.835,162.940 16.262 C 163.677 14.688,165.150 11.420,166.213 9.000 C 167.276 6.580,168.403 4.195,168.719 3.700 L 169.292 2.800 222.246 2.800 L 275.200 2.800 275.200 3.725 C 275.200 4.234,274.822 5.449,274.359 6.425 C 273.896 7.401,272.977 9.370,272.315 10.800 C 267.080 22.115,259.801 37.320,250.197 57.000 C 247.406 62.720,244.531 68.660,243.809 70.200 C 243.086 71.740,240.562 76.960,238.200 81.800 C 235.838 86.640,232.830 92.850,231.515 95.600 C 230.199 98.350,228.877 101.067,228.576 101.637 L 228.029 102.674 255.666 102.960 C 281.851 103.231,285.588 103.397,289.400 104.454 C 293.228 105.516,301.566 109.509,301.933 110.456 C 302.007 110.645,302.307 110.800,302.600 110.800 C 302.893 110.800,303.193 110.936,303.267 111.103 C 303.340 111.270,304.209 112.035,305.198 112.803 C 309.757 116.345,321.200 129.395,321.200 131.052 C 321.200 131.163,321.632 131.826,322.160 132.527 C 323.442 134.226,327.330 141.474,328.530 144.400 C 328.846 145.170,329.576 146.840,330.152 148.111 C 330.728 149.382,331.200 150.608,331.200 150.836 C 331.200 151.305,332.301 154.987,332.803 156.200 C 332.986 156.640,333.432 158.260,333.796 159.800 C 334.160 161.340,334.617 163.230,334.812 164.000 C 336.127 169.194,336.136 188.450,334.825 191.800 C 334.653 192.240,334.193 193.680,333.804 195.000 C 333.415 196.320,332.669 198.350,332.148 199.511 C 331.627 200.672,331.200 201.694,331.200 201.782 C 331.200 201.870,330.553 203.350,329.763 205.071 C 328.973 206.792,328.055 208.830,327.723 209.600 C 327.392 210.370,326.669 211.990,326.117 213.200 C 325.566 214.410,324.969 215.760,324.790 216.200 C 324.612 216.640,324.015 217.990,323.463 219.200 C 322.556 221.190,321.456 223.654,319.712 227.600 C 318.855 229.542,317.107 233.469,314.995 238.200 C 312.664 243.423,311.746 245.535,310.865 247.700 L 310.417 248.800 334.960 248.800 C 357.071 248.800,359.555 248.736,360.039 248.154 C 360.563 247.522,361.001 246.453,362.233 242.800 C 362.567 241.810,362.992 240.640,363.177 240.200 C 363.362 239.760,364.270 237.330,365.194 234.800 C 366.118 232.270,367.487 228.571,368.237 226.580 C 368.987 224.589,369.601 222.789,369.602 222.580 C 369.604 222.371,369.834 221.750,370.114 221.200 C 370.395 220.650,370.965 219.182,371.382 217.937 C 372.915 213.363,373.754 213.111,375.600 216.671 C 376.150 217.732,376.690 218.690,376.800 218.800 C 376.910 218.910,377.693 220.350,378.539 222.000 C 380.562 225.944,383.814 232.096,385.200 234.600 C 385.808 235.700,387.206 238.310,388.305 240.400 C 389.404 242.490,390.926 245.370,391.688 246.800 C 395.229 253.449,398.606 259.882,398.984 260.697 C 399.213 261.190,399.535 261.595,399.700 261.597 C 399.865 261.599,400.000 202.740,400.000 130.800 L 400.000 0.000 372.100 0.028 C 356.160 0.044,344.543 0.204,345.000 0.400 C 345.440 0.589,346.353 0.756,347.029 0.772 C 347.705 0.787,349.055 1.049,350.029 1.353 C 351.003 1.657,352.610 2.128,353.600 2.399 C 354.590 2.670,355.760 3.046,356.200 3.235 C 356.640 3.423,357.989 3.958,359.197 4.422 C 363.113 5.925,372.400 11.588,372.400 12.472 C 372.400 12.653,372.639 12.800,372.930 12.800 C 373.606 12.800,381.200 20.358,381.200 21.030 C 381.200 21.307,381.336 21.593,381.503 21.667 C 383.060 22.352,390.400 35.469,390.400 37.566 C 390.400 37.811,390.564 38.323,390.766 38.705 C 393.782 44.437,393.518 61.683,390.277 70.625 C 388.175 76.425,383.974 84.165,381.823 86.200 C 381.590 86.420,380.862 87.320,380.204 88.200 C 376.919 92.594,368.421 99.281,362.800 101.894 C 358.792 103.758,357.215 104.400,356.646 104.400 C 356.316 104.400,355.949 104.559,355.830 104.752 C 355.710 104.946,355.204 105.198,354.706 105.313 C 354.208 105.428,352.540 105.881,351.000 106.319 C 342.654 108.696,326.399 108.346,320.200 105.656 C 319.760 105.465,318.410 104.981,317.200 104.580 C 315.333 103.961,311.830 102.269,306.642 99.478 C 298.492 95.093,288.338 83.006,284.400 73.000 C 283.410 70.485,282.800 68.469,282.800 67.710 C 282.800 67.236,282.650 66.755,282.467 66.642 C 281.788 66.222,281.000 59.218,281.000 53.600 C 281.000 46.452,281.927 41.323,284.218 35.800 C 284.491 35.140,285.049 33.746,285.458 32.701 C 285.866 31.657,286.335 30.802,286.500 30.801 C 286.665 30.801,286.800 30.560,286.800 30.266 C 286.800 29.758,290.603 23.220,291.143 22.800 C 291.284 22.690,292.052 21.787,292.850 20.794 C 296.158 16.672,302.858 10.743,307.163 8.126 C 308.919 7.059,313.539 4.800,313.966 4.800 C 314.276 4.800,316.379 3.883,317.695 3.174 C 318.077 2.968,318.664 2.800,319.000 2.800 C 319.336 2.800,319.923 2.640,320.305 2.443 C 321.573 1.793,325.450 0.800,326.835 0.772 C 327.586 0.756,328.560 0.589,329.000 0.400 C 329.448 0.208,257.235 0.044,164.900 0.028 L 0.000 0.000 -0.000 65.386 M34.960 193.906 C 34.718 194.068,33.923 195.280,33.194 196.600 C 32.466 197.920,31.513 199.630,31.078 200.400 C 30.643 201.170,29.622 203.060,28.809 204.600 C 26.406 209.153,24.188 213.264,22.982 215.400 C 20.418 219.945,18.714 223.118,17.773 225.100 C 16.196 228.423,15.879 228.149,11.753 219.896 C 2.674 201.732,0.364 197.200,0.188 197.200 C 0.085 197.200,0.000 242.830,0.000 298.600 L 0.000 400.000 69.800 400.000 C 133.438 400.000,139.600 399.944,139.600 399.362 C 139.600 399.011,139.867 398.246,140.194 397.662 C 141.133 395.984,144.000 389.592,144.000 389.176 C 144.000 388.969,144.180 388.800,144.400 388.800 C 144.620 388.800,144.800 388.593,144.800 388.340 C 144.800 388.087,145.717 385.972,146.839 383.640 C 147.960 381.308,149.608 377.870,150.501 376.000 C 151.393 374.130,154.052 368.640,156.408 363.800 C 158.764 358.960,161.962 352.390,163.514 349.200 C 165.066 346.010,167.340 341.353,168.568 338.850 C 169.796 336.348,170.800 334.053,170.800 333.750 C 170.800 333.288,165.780 333.200,139.407 333.200 C 107.713 333.200,105.061 333.099,100.000 331.693 C 96.137 330.620,89.965 327.514,86.739 325.020 C 86.156 324.569,85.087 323.750,84.364 323.200 C 80.878 320.549,80.116 319.812,74.439 313.600 C 70.482 309.271,64.046 298.026,61.388 290.800 C 61.024 289.810,60.583 288.640,60.409 288.200 C 56.702 278.840,55.552 257.205,58.388 250.200 C 58.566 249.760,58.929 248.590,59.194 247.600 C 59.694 245.731,59.843 245.365,62.116 240.400 C 62.872 238.750,63.612 237.009,63.762 236.531 C 63.912 236.053,64.657 234.383,65.417 232.820 C 66.178 231.257,66.800 229.907,66.800 229.819 C 66.800 229.731,67.407 228.340,68.149 226.729 C 69.616 223.543,70.763 221.014,72.291 217.600 C 72.833 216.390,73.692 214.500,74.200 213.400 C 76.110 209.263,77.531 206.108,78.794 203.200 C 79.510 201.550,80.708 198.884,81.456 197.274 C 82.204 195.665,82.712 194.180,82.584 193.974 C 82.310 193.530,35.624 193.463,34.960 193.906 M185.123 194.500 C 184.339 195.741,182.611 199.396,181.672 201.801 C 181.242 202.902,180.329 204.959,179.645 206.372 C 178.960 207.785,178.400 209.079,178.400 209.247 C 178.400 209.415,177.709 211.048,176.865 212.876 C 176.020 214.704,175.003 217.061,174.605 218.113 C 174.207 219.165,173.728 220.121,173.541 220.237 C 173.353 220.352,173.200 220.851,173.200 221.344 C 173.200 221.837,173.057 222.411,172.882 222.620 C 172.707 222.829,172.236 224.080,171.835 225.400 C 171.434 226.720,170.960 228.250,170.783 228.800 C 169.655 232.298,169.622 238.430,170.718 240.907 C 173.401 246.973,178.486 248.405,198.264 248.667 L 210.729 248.832 212.132 245.915 C 212.904 244.310,213.660 242.501,213.812 241.895 C 213.964 241.288,214.249 240.694,214.444 240.573 C 214.640 240.452,214.800 240.093,214.800 239.774 C 214.800 239.456,215.250 238.263,215.800 237.123 C 216.350 235.983,216.800 234.893,216.800 234.700 C 216.800 234.508,217.268 233.327,217.839 232.075 C 219.404 228.650,220.227 226.667,221.691 222.800 C 224.260 216.012,224.475 215.104,224.681 210.127 C 225.012 202.172,221.589 197.447,213.823 195.136 C 207.605 193.286,186.190 192.811,185.123 194.500 M397.400 309.296 C 396.300 310.004,395.310 310.690,395.200 310.821 C 395.090 310.951,394.730 311.185,394.400 311.340 C 394.070 311.494,392.496 312.471,390.902 313.510 C 386.941 316.094,378.210 321.640,376.723 322.518 C 376.055 322.913,375.245 323.498,374.925 323.818 C 374.605 324.138,374.148 324.400,373.909 324.400 C 373.671 324.400,372.919 324.818,372.238 325.329 C 371.557 325.840,368.480 327.853,365.400 329.801 C 362.320 331.749,358.810 333.980,357.600 334.759 C 354.248 336.917,354.198 336.948,352.752 337.756 C 352.009 338.172,351.310 338.622,351.200 338.756 C 351.090 338.890,350.699 339.180,350.332 339.400 C 349.965 339.620,347.019 341.510,343.786 343.600 C 340.553 345.690,337.164 347.833,336.254 348.363 C 335.344 348.892,333.896 349.792,333.034 350.363 C 332.173 350.933,328.875 353.050,325.705 355.066 C 322.535 357.082,318.019 359.974,315.670 361.494 C 313.322 363.013,310.830 364.603,310.132 365.028 C 309.435 365.453,306.093 367.555,302.706 369.700 C 294.655 374.798,294.174 374.729,297.253 368.919 C 298.163 367.204,300.793 362.110,303.098 357.600 C 305.404 353.090,308.832 346.430,310.716 342.800 C 312.600 339.170,314.391 335.707,314.697 335.105 C 315.677 333.177,315.930 333.200,293.758 333.200 L 272.763 333.200 271.242 336.500 C 270.405 338.315,269.128 341.150,268.405 342.800 C 267.682 344.450,266.683 346.700,266.185 347.800 C 265.687 348.900,265.007 350.430,264.675 351.200 C 264.118 352.488,263.502 353.856,260.707 360.000 C 259.713 362.187,258.264 365.471,257.619 367.000 C 256.756 369.047,255.959 370.846,254.607 373.800 C 253.802 375.560,252.901 377.540,252.606 378.200 C 252.311 378.860,251.604 380.423,251.035 381.674 C 250.466 382.925,250.000 384.051,250.000 384.175 C 250.000 384.300,249.100 386.291,248.000 388.600 C 246.900 390.909,246.000 392.888,246.000 392.998 C 246.000 393.107,245.370 394.561,244.600 396.228 C 243.830 397.895,243.200 399.425,243.200 399.629 C 243.200 399.856,273.718 400.000,321.600 400.000 L 400.000 400.000 400.000 354.000 C 400.000 328.700,399.865 308.002,399.700 308.005 C 399.535 308.007,398.500 308.588,397.400 309.296 " stroke="none" fill="#fbfbfb" fill-rule="evenodd"></path><path id="path3" d="M330.600 0.400 C 330.464 0.620,329.582 0.800,328.640 0.800 C 326.283 0.800,319.735 2.526,315.800 4.185 C 315.140 4.464,313.790 5.029,312.800 5.441 C 311.240 6.091,310.016 6.742,306.862 8.600 C 303.007 10.871,296.305 16.824,292.654 21.220 C 290.245 24.120,286.956 29.648,285.407 33.400 C 285.043 34.280,284.592 35.360,284.404 35.800 C 284.072 36.578,283.349 38.745,282.470 41.600 C 280.985 46.426,280.700 55.950,281.825 63.200 C 284.952 83.353,303.356 101.996,324.600 106.531 C 333.743 108.483,347.153 108.053,353.000 105.619 C 353.440 105.436,355.728 104.542,358.085 103.631 C 369.922 99.059,379.062 91.287,385.641 80.200 C 395.567 63.472,394.922 40.491,384.100 25.337 C 383.605 24.644,383.200 23.879,383.200 23.638 C 383.200 23.397,383.044 23.200,382.853 23.200 C 382.662 23.200,382.048 22.508,381.488 21.662 C 377.734 15.988,365.781 6.965,358.600 4.383 C 358.160 4.225,357.080 3.815,356.200 3.472 C 352.739 2.124,347.240 0.800,345.098 0.800 C 344.300 0.800,343.536 0.620,343.400 0.400 C 343.264 0.180,341.948 0.003,340.476 0.006 C 336.798 0.015,338.001 0.643,342.354 0.987 C 344.249 1.137,346.430 1.415,347.200 1.606 C 352.679 2.961,354.115 3.367,356.600 4.262 C 362.092 6.240,368.799 10.064,372.022 13.052 C 372.584 13.574,373.203 14.000,373.397 14.000 C 374.845 14.000,383.700 25.004,386.112 29.800 C 389.000 35.542,389.391 36.630,391.226 44.000 C 393.308 52.363,391.864 65.731,387.951 74.328 C 387.318 75.718,386.800 76.942,386.800 77.047 C 386.800 77.152,386.170 78.223,385.400 79.427 C 384.630 80.631,384.000 81.712,384.000 81.829 C 384.000 82.428,379.160 88.507,377.016 90.600 C 374.569 92.989,374.194 93.315,370.788 96.021 C 369.077 97.380,363.818 100.800,363.438 100.800 C 363.338 100.800,362.089 101.340,360.663 102.000 C 359.237 102.660,357.963 103.200,357.831 103.200 C 357.699 103.200,356.828 103.537,355.896 103.949 C 341.172 110.454,316.428 106.814,303.400 96.226 C 302.300 95.331,301.166 94.420,300.880 94.200 C 299.971 93.501,293.825 87.407,293.200 86.586 C 292.870 86.152,292.015 85.052,291.300 84.141 C 290.585 83.230,290.000 82.379,290.000 82.250 C 290.000 82.121,289.370 81.031,288.600 79.827 C 287.830 78.623,287.200 77.545,287.200 77.430 C 287.200 77.316,286.731 76.182,286.159 74.911 C 284.241 70.655,283.673 68.908,282.546 63.800 C 280.932 56.481,282.168 41.199,284.792 36.043 C 284.972 35.689,285.891 33.780,286.835 31.800 C 288.584 28.134,291.440 23.387,292.958 21.622 C 296.026 18.059,301.286 13.153,304.291 11.054 C 307.483 8.824,308.150 8.429,311.400 6.844 C 317.530 3.856,318.232 3.611,326.400 1.609 C 327.170 1.420,329.437 1.144,331.437 0.995 C 335.943 0.660,337.305 0.015,333.524 0.006 C 332.052 0.003,330.736 0.180,330.600 0.400 M169.549 3.900 C 169.069 4.512,169.077 4.540,169.610 4.126 C 169.946 3.865,171.116 3.582,172.210 3.498 L 174.200 3.344 172.149 3.272 C 170.611 3.218,169.961 3.375,169.549 3.900 M224.300 3.500 L 274.000 3.603 274.000 4.425 C 274.000 4.877,274.180 5.136,274.400 5.000 C 274.620 4.864,274.800 4.403,274.800 3.976 C 274.800 3.211,274.059 3.201,224.700 3.298 L 174.600 3.397 224.300 3.500 M270.871 11.559 C 270.392 12.411,270.002 13.264,270.005 13.454 C 270.007 13.645,270.462 13.009,271.014 12.043 C 271.567 11.076,271.957 10.223,271.881 10.147 C 271.804 10.071,271.350 10.706,270.871 11.559 M94.665 70.654 C 93.611 71.419,92.228 72.350,91.591 72.722 C 90.205 73.534,76.559 82.178,72.600 84.752 C 71.060 85.754,69.494 86.759,69.121 86.987 C 68.747 87.214,66.407 88.710,63.921 90.310 C 61.434 91.911,59.040 93.441,58.600 93.709 C 58.160 93.978,57.227 94.603,56.527 95.099 C 55.826 95.595,55.123 96.000,54.964 96.000 C 54.806 96.000,54.086 96.450,53.364 97.000 C 52.643 97.550,51.930 98.000,51.780 98.000 C 51.630 98.000,50.673 98.585,49.654 99.300 C 48.634 100.015,47.440 100.815,47.000 101.079 C 46.560 101.342,43.500 103.285,40.200 105.397 C 36.900 107.508,33.840 109.453,33.400 109.718 C 32.960 109.983,31.790 110.740,30.800 111.400 C 29.810 112.060,28.640 112.815,28.200 113.079 C 27.043 113.771,12.358 123.131,9.673 124.887 C 8.423 125.704,7.182 126.486,6.917 126.623 C 5.312 127.453,-0.058 131.200,0.358 131.200 C 0.634 131.200,2.151 130.351,3.730 129.313 C 5.308 128.276,6.913 127.241,7.296 127.013 C 8.060 126.560,22.882 117.110,30.072 112.492 C 34.584 109.595,44.680 103.205,46.200 102.284 C 46.640 102.018,47.090 101.710,47.200 101.600 C 47.310 101.490,47.760 101.183,48.200 100.918 C 51.130 99.151,69.038 87.794,69.200 87.600 C 69.310 87.469,73.810 84.592,79.200 81.209 C 84.590 77.825,89.238 74.819,89.529 74.528 C 89.819 74.238,90.314 74.000,90.629 74.000 C 90.943 74.000,91.200 73.820,91.200 73.600 C 91.200 73.380,91.371 73.200,91.580 73.200 C 91.789 73.200,92.789 72.640,93.803 71.956 C 96.995 69.802,96.908 70.075,89.714 84.800 C 85.818 92.776,83.785 97.004,81.509 101.862 C 80.691 103.608,80.641 103.604,103.124 103.507 L 124.600 103.414 103.333 103.207 C 91.636 103.093,81.978 102.910,81.870 102.800 C 81.681 102.607,82.534 100.794,91.276 82.800 C 93.467 78.290,95.696 73.697,96.230 72.594 C 97.879 69.185,97.440 68.641,94.665 70.654 M227.461 103.300 C 227.564 103.465,233.712 103.612,241.124 103.626 C 271.745 103.686,286.231 104.203,289.763 105.365 C 294.932 107.064,300.309 109.847,304.200 112.838 C 306.532 114.631,315.421 123.830,316.917 126.000 C 320.351 130.980,322.502 134.246,322.846 135.000 C 323.046 135.440,323.591 136.430,324.057 137.200 C 325.282 139.226,328.000 144.663,328.000 145.088 C 328.000 145.287,328.424 146.339,328.942 147.425 C 329.460 148.511,330.377 151.020,330.979 153.000 C 331.582 154.980,332.225 157.050,332.410 157.600 C 332.855 158.927,333.781 163.091,334.455 166.800 C 335.190 170.847,335.194 185.665,334.460 189.200 C 333.445 194.093,332.320 197.640,330.590 201.400 C 328.670 205.575,327.983 207.106,324.395 215.200 C 322.591 219.270,320.708 223.500,320.211 224.600 C 319.714 225.700,318.941 227.410,318.495 228.400 C 318.048 229.390,317.195 231.365,316.599 232.789 C 315.548 235.300,314.932 236.661,311.799 243.400 C 309.948 247.383,309.595 248.545,310.026 249.241 C 310.278 249.650,310.353 249.587,310.320 248.995 C 310.295 248.558,311.041 246.490,311.977 244.400 C 312.914 242.310,314.038 239.790,314.475 238.800 C 314.912 237.810,315.683 236.100,316.187 235.000 C 316.691 233.900,317.378 232.370,317.714 231.600 C 318.051 230.830,318.973 228.792,319.763 227.071 C 320.553 225.350,321.200 223.856,321.200 223.752 C 321.200 223.648,321.830 222.217,322.600 220.573 C 323.370 218.928,324.000 217.493,324.000 217.383 C 324.000 217.274,324.694 215.703,325.543 213.892 C 326.391 212.081,327.365 209.970,327.706 209.200 C 328.047 208.430,328.973 206.392,329.763 204.671 C 330.553 202.950,331.200 201.454,331.200 201.346 C 331.200 201.238,331.623 200.217,332.140 199.075 C 332.658 197.934,333.300 196.190,333.568 195.200 C 333.835 194.210,334.217 192.860,334.415 192.200 C 336.997 183.617,336.120 166.674,332.551 156.200 C 332.251 155.320,331.745 153.610,331.425 152.400 C 328.158 140.027,315.562 121.313,304.600 112.543 C 302.048 110.501,295.901 106.800,295.062 106.800 C 294.786 106.800,294.389 106.645,294.180 106.456 C 293.971 106.267,292.810 105.794,291.600 105.405 C 290.390 105.017,288.950 104.513,288.400 104.286 C 286.857 103.649,227.078 102.682,227.461 103.300 M33.491 194.500 C 32.949 195.435,31.652 197.820,30.609 199.800 C 29.565 201.780,28.579 203.580,28.416 203.800 C 28.254 204.020,27.397 205.550,26.511 207.200 C 25.626 208.850,24.400 211.100,23.787 212.200 C 23.174 213.300,22.532 214.470,22.361 214.800 C 17.628 223.935,15.200 227.568,15.200 225.519 C 15.200 224.767,0.717 196.000,0.338 196.000 C -0.126 196.000,-0.200 195.813,1.774 199.600 C 2.750 201.470,6.214 208.354,9.474 214.898 C 16.223 228.447,16.032 228.249,18.169 223.900 C 18.953 222.305,20.156 220.010,20.843 218.800 C 22.593 215.717,23.947 213.230,28.787 204.200 C 29.612 202.660,30.644 200.770,31.079 200.000 C 31.513 199.230,32.466 197.520,33.194 196.200 C 33.923 194.880,34.718 193.668,34.960 193.506 C 36.047 192.780,83.138 193.162,83.568 193.900 C 83.930 194.521,83.977 194.526,83.988 193.943 C 84.008 192.827,83.404 192.800,58.605 192.800 L 34.476 192.800 33.491 194.500 M184.368 193.500 C 183.918 194.096,183.922 194.125,184.399 193.700 C 185.092 193.082,205.051 192.986,207.694 193.589 C 208.632 193.802,210.717 194.267,212.326 194.621 C 225.938 197.618,228.585 208.199,220.348 226.678 C 219.937 227.601,219.600 228.451,219.600 228.568 C 219.600 228.685,219.060 229.959,218.400 231.400 C 217.740 232.841,217.200 234.123,217.200 234.250 C 217.200 234.376,216.930 235.091,216.600 235.840 C 216.270 236.588,215.721 237.875,215.381 238.700 C 215.040 239.525,214.590 240.513,214.381 240.895 C 214.171 241.277,214.000 241.767,214.000 241.984 C 214.000 242.400,212.308 246.302,211.391 248.000 L 210.851 249.000 198.126 249.211 L 185.400 249.423 198.323 249.411 L 211.245 249.400 212.187 247.600 C 212.705 246.610,213.707 244.360,214.413 242.600 C 215.120 240.840,216.012 238.680,216.396 237.800 C 216.779 236.920,217.595 234.940,218.209 233.400 C 218.823 231.860,219.477 230.429,219.662 230.220 C 219.848 230.011,220.000 229.588,220.000 229.280 C 220.000 228.736,220.186 228.262,221.954 224.303 C 226.884 213.263,226.973 204.323,222.200 199.492 C 218.518 195.765,216.840 194.924,210.121 193.437 C 205.662 192.450,185.124 192.501,184.368 193.500 M181.515 199.410 C 181.392 199.845,181.169 200.560,181.020 201.000 C 180.871 201.440,181.042 201.294,181.400 200.676 C 181.758 200.058,181.981 199.342,181.895 199.086 C 181.810 198.830,181.639 198.976,181.515 199.410 M372.849 215.852 C 372.586 216.430,372.474 217.007,372.601 217.134 C 372.728 217.261,372.936 216.968,373.063 216.483 C 373.292 215.603,374.000 215.239,374.000 216.000 C 374.000 216.220,374.182 216.400,374.403 216.400 C 374.643 216.400,374.603 216.074,374.307 215.600 C 373.652 214.551,373.424 214.590,372.849 215.852 M59.449 248.615 C 59.312 248.973,59.215 249.566,59.234 249.933 C 59.253 250.300,59.427 250.069,59.621 249.420 C 59.998 248.158,59.865 247.533,59.449 248.615 M322.929 249.500 C 329.710 249.561,340.690 249.561,347.329 249.500 C 353.968 249.438,348.420 249.388,335.000 249.388 C 321.580 249.388,316.148 249.438,322.929 249.500 M57.348 264.800 C 57.348 267.110,57.414 268.055,57.495 266.900 C 57.576 265.745,57.576 263.855,57.495 262.700 C 57.414 261.545,57.348 262.490,57.348 264.800 M57.709 270.800 C 57.709 271.790,57.787 272.195,57.882 271.700 C 57.978 271.205,57.978 270.395,57.882 269.900 C 57.787 269.405,57.709 269.810,57.709 270.800 M59.256 281.200 C 59.256 281.530,59.411 282.160,59.600 282.600 C 59.817 283.104,59.944 283.178,59.944 282.800 C 59.944 282.470,59.789 281.840,59.600 281.400 C 59.383 280.896,59.256 280.822,59.256 281.200 M69.787 305.975 C 70.121 306.621,70.576 307.261,70.798 307.399 C 71.020 307.536,70.823 307.007,70.361 306.224 C 69.348 304.507,68.935 304.328,69.787 305.975 M378.821 320.030 C 376.226 321.734,375.845 322.300,378.296 320.810 C 379.449 320.110,380.495 319.371,380.620 319.168 C 380.934 318.660,380.839 318.706,378.821 320.030 M96.009 329.411 C 96.551 330.064,99.152 330.982,99.493 330.640 C 99.625 330.508,99.471 330.400,99.151 330.400 C 98.831 330.400,97.891 330.054,97.062 329.631 C 96.125 329.154,95.727 329.071,96.009 329.411 M157.900 332.300 C 166.020 332.365,171.600 332.562,171.600 332.783 C 171.600 332.988,170.992 334.381,170.248 335.878 C 169.505 337.375,167.503 341.480,165.800 345.000 C 164.096 348.520,160.770 355.360,158.408 360.200 C 151.658 374.032,145.383 387.076,142.916 392.400 C 142.152 394.050,141.093 396.334,140.563 397.475 C 139.480 399.810,139.437 400.000,140.000 400.000 C 140.220 400.000,140.400 399.758,140.400 399.463 C 140.400 399.168,141.017 397.683,141.772 396.163 C 142.527 394.643,143.721 392.140,144.426 390.600 C 146.895 385.209,153.811 370.812,159.799 358.600 C 164.162 349.702,169.944 337.777,171.386 334.703 C 172.705 331.892,173.209 331.989,157.913 332.095 L 144.200 332.189 157.900 332.300 M298.100 332.697 C 299.585 332.774,302.015 332.774,303.500 332.697 C 304.985 332.620,303.770 332.557,300.800 332.557 C 297.830 332.557,296.615 332.620,298.100 332.697 M309.500 332.682 C 309.995 332.778,310.805 332.778,311.300 332.682 C 311.795 332.587,311.390 332.509,310.400 332.509 C 309.410 332.509,309.005 332.587,309.500 332.682 M270.297 336.705 C 269.502 338.407,268.505 340.610,268.082 341.600 C 267.250 343.546,266.258 345.748,264.149 350.329 C 263.407 351.940,262.800 353.348,262.800 353.458 C 262.800 353.568,261.882 355.670,260.760 358.129 C 259.638 360.588,258.485 363.140,258.197 363.800 C 257.910 364.460,257.027 366.408,256.237 368.129 C 255.447 369.850,254.800 371.335,254.800 371.428 C 254.800 371.521,254.279 372.723,253.643 374.099 C 253.007 375.475,251.810 378.130,250.984 380.000 C 250.158 381.870,248.992 384.480,248.394 385.800 C 247.796 387.120,246.898 389.100,246.400 390.200 C 245.902 391.300,244.958 393.370,244.302 394.800 C 243.647 396.230,242.955 397.805,242.765 398.300 C 242.575 398.795,242.235 399.200,242.010 399.200 C 241.784 399.200,241.600 399.380,241.600 399.600 C 241.600 400.638,242.724 399.821,243.389 398.300 C 244.107 396.659,245.606 393.361,248.038 388.072 C 248.677 386.682,249.200 385.472,249.200 385.383 C 249.200 385.235,249.688 384.136,252.209 378.600 C 252.710 377.500,253.393 375.970,253.726 375.200 C 254.444 373.539,255.992 370.113,257.852 366.071 C 258.594 364.460,259.200 363.056,259.200 362.952 C 259.200 362.848,259.830 361.417,260.600 359.773 C 261.370 358.128,262.000 356.709,262.000 356.619 C 262.000 356.529,262.522 355.318,263.161 353.928 C 266.033 347.675,270.000 338.794,270.000 338.617 C 270.000 338.510,270.474 337.421,271.053 336.197 C 271.632 334.974,272.025 333.891,271.924 333.791 C 271.824 333.691,271.092 335.002,270.297 336.705 M297.095 370.509 C 295.766 373.002,296.118 373.564,298.000 371.950 C 298.928 371.154,299.085 370.903,298.466 371.207 C 297.195 371.830,297.019 371.510,297.800 370.000 C 298.162 369.299,298.398 368.665,298.324 368.591 C 298.250 368.517,297.697 369.380,297.095 370.509 " stroke="none" fill="#979594" fill-rule="evenodd"></path><path id="path4" d="M329.000 0.400 C 328.286 0.707,328.315 0.747,329.276 0.772 C 329.868 0.787,330.464 0.620,330.600 0.400 C 330.895 -0.078,330.111 -0.078,329.000 0.400 M343.400 0.400 C 343.536 0.620,344.132 0.787,344.724 0.772 C 345.685 0.747,345.714 0.707,345.000 0.400 C 343.889 -0.078,343.105 -0.078,343.400 0.400 M324.200 1.200 C 323.696 1.417,323.622 1.544,324.000 1.544 C 324.330 1.544,324.960 1.389,325.400 1.200 C 325.904 0.983,325.978 0.856,325.600 0.856 C 325.270 0.856,324.640 1.011,324.200 1.200 M168.719 3.700 C 168.403 4.195,167.276 6.580,166.213 9.000 C 165.150 11.420,163.677 14.688,162.940 16.262 C 162.203 17.835,161.600 19.246,161.600 19.396 C 161.600 19.547,160.520 21.917,159.200 24.665 C 157.880 27.412,156.800 29.793,156.800 29.955 C 156.800 30.117,156.464 30.959,156.053 31.825 C 155.642 32.691,154.984 34.120,154.592 35.000 C 154.199 35.880,153.297 37.860,152.588 39.400 C 151.878 40.940,150.893 43.100,150.398 44.200 C 149.903 45.300,148.891 47.518,148.149 49.129 C 147.407 50.740,146.800 52.130,146.800 52.218 C 146.800 52.306,146.014 54.048,145.053 56.089 C 142.382 61.761,140.800 65.237,140.800 65.434 C 140.800 65.592,136.639 74.895,134.195 80.200 C 133.689 81.300,132.874 83.100,132.384 84.200 C 131.895 85.300,130.962 87.370,130.312 88.800 C 129.662 90.230,128.848 92.030,128.504 92.800 C 127.780 94.420,125.627 99.117,124.610 101.296 L 123.912 102.793 103.056 102.900 L 82.200 103.007 103.513 103.104 C 123.505 103.194,124.839 103.157,125.055 102.500 C 125.354 101.593,126.169 99.718,127.881 96.000 C 128.640 94.350,129.676 92.100,130.183 91.000 C 130.689 89.900,131.378 88.370,131.714 87.600 C 132.051 86.830,132.973 84.792,133.763 83.071 C 134.553 81.350,135.200 79.870,135.200 79.782 C 135.200 79.548,137.068 75.432,138.641 72.200 C 139.390 70.660,140.003 69.261,140.002 69.092 C 140.001 68.923,140.720 67.283,141.600 65.447 C 142.480 63.612,143.200 62.003,143.200 61.872 C 143.200 61.741,144.115 59.691,145.233 57.317 C 146.350 54.942,147.451 52.550,147.679 52.000 C 147.906 51.450,148.253 50.730,148.449 50.400 C 148.645 50.070,148.913 49.530,149.045 49.200 C 149.176 48.870,149.715 47.650,150.242 46.489 C 150.769 45.328,151.200 44.313,151.200 44.234 C 151.200 44.155,152.100 42.177,153.200 39.839 C 154.300 37.501,155.200 35.510,155.200 35.415 C 155.200 35.320,155.856 33.838,156.658 32.121 C 157.459 30.405,158.429 28.280,158.813 27.400 C 159.197 26.520,160.071 24.585,160.755 23.099 C 161.440 21.613,162.000 20.319,162.000 20.222 C 162.000 20.126,162.699 18.551,163.554 16.723 C 164.409 14.895,165.534 12.419,166.054 11.219 C 166.574 10.020,167.630 7.770,168.400 6.219 L 169.800 3.400 222.300 3.299 C 280.107 3.187,275.803 3.001,274.078 5.538 C 273.681 6.122,273.020 7.410,272.608 8.400 C 271.866 10.183,270.087 13.973,264.723 25.200 C 263.199 28.390,261.531 31.900,261.017 33.000 C 260.149 34.857,257.685 39.925,247.892 60.000 C 245.799 64.290,243.056 69.960,241.797 72.600 C 239.692 77.015,235.454 85.735,229.560 97.783 C 227.850 101.277,227.352 102.649,227.710 102.876 C 227.979 103.048,233.060 103.191,239.000 103.194 C 244.940 103.198,257.450 103.270,266.800 103.355 C 283.159 103.504,283.318 103.498,271.000 103.210 C 263.960 103.045,251.395 102.885,243.077 102.855 L 227.955 102.800 228.539 101.700 C 228.860 101.095,230.199 98.350,231.515 95.600 C 232.830 92.850,235.838 86.640,238.200 81.800 C 240.562 76.960,243.086 71.740,243.809 70.200 C 244.531 68.660,247.406 62.720,250.197 57.000 C 256.135 44.833,258.610 39.719,262.009 32.600 C 268.215 19.603,269.517 16.848,272.315 10.800 C 272.977 9.370,273.896 7.401,274.359 6.425 C 274.822 5.449,275.200 4.234,275.200 3.725 L 275.200 2.800 222.246 2.800 L 169.292 2.800 168.719 3.700 M384.000 25.200 C 384.470 25.860,384.944 26.400,385.054 26.400 C 385.164 26.400,384.870 25.860,384.400 25.200 C 383.930 24.540,383.456 24.000,383.346 24.000 C 383.236 24.000,383.530 24.540,384.000 25.200 M281.293 47.200 C 281.293 47.970,281.375 48.285,281.476 47.900 C 281.576 47.515,281.576 46.885,281.476 46.500 C 281.375 46.115,281.293 46.430,281.293 47.200 M392.600 54.000 C 392.600 56.844,392.722 58.862,392.872 58.485 C 393.021 58.108,393.144 56.090,393.144 54.000 C 393.144 51.910,393.021 49.892,392.872 49.515 C 392.722 49.138,392.600 51.156,392.600 54.000 M280.909 50.800 C 280.909 51.790,280.987 52.195,281.082 51.700 C 281.178 51.205,281.178 50.395,281.082 49.900 C 280.987 49.405,280.909 49.810,280.909 50.800 M280.901 57.000 C 280.905 57.880,280.987 58.193,281.083 57.695 C 281.179 57.198,281.175 56.478,281.075 56.095 C 280.975 55.713,280.896 56.120,280.901 57.000 M290.754 84.736 C 291.199 85.360,291.879 86.125,292.265 86.436 C 292.652 86.746,292.360 86.235,291.617 85.300 C 290.091 83.380,289.525 83.010,290.754 84.736 M328.500 107.476 C 328.885 107.576,329.515 107.576,329.900 107.476 C 330.285 107.375,329.970 107.293,329.200 107.293 C 328.430 107.293,328.115 107.375,328.500 107.476 M331.700 107.876 C 332.085 107.976,332.715 107.976,333.100 107.876 C 333.485 107.775,333.170 107.693,332.400 107.693 C 331.630 107.693,331.315 107.775,331.700 107.876 M341.100 107.882 C 341.595 107.978,342.405 107.978,342.900 107.882 C 343.395 107.787,342.990 107.709,342.000 107.709 C 341.010 107.709,340.605 107.787,341.100 107.882 M314.000 121.725 C 314.000 121.794,314.585 122.379,315.300 123.025 L 316.600 124.200 315.425 122.900 C 314.330 121.688,314.000 121.416,314.000 121.725 M334.644 164.600 C 334.973 166.071,335.202 166.390,335.194 165.367 C 335.191 164.945,335.005 164.330,334.782 164.000 C 334.485 163.562,334.448 163.724,334.644 164.600 M335.488 170.800 C 335.611 172.010,335.777 173.075,335.856 173.167 C 336.153 173.511,335.930 170.167,335.604 169.400 C 335.392 168.902,335.349 169.431,335.488 170.800 M335.693 184.800 C 335.693 185.570,335.775 185.885,335.876 185.500 C 335.976 185.115,335.976 184.485,335.876 184.100 C 335.775 183.715,335.693 184.030,335.693 184.800 M334.752 190.713 C 334.621 191.507,334.679 191.881,334.901 191.659 C 335.103 191.457,335.201 190.867,335.119 190.346 C 334.993 189.545,334.937 189.602,334.752 190.713 M34.938 193.506 C 34.684 193.668,45.200 193.751,58.309 193.691 C 71.665 193.629,82.296 193.736,82.493 193.933 C 82.696 194.136,82.262 195.540,81.471 197.243 C 80.715 198.869,79.510 201.550,78.794 203.200 C 77.531 206.108,76.110 209.263,74.200 213.400 C 73.692 214.500,72.833 216.390,72.291 217.600 C 70.763 221.014,69.616 223.543,68.149 226.729 C 67.407 228.340,66.800 229.731,66.800 229.819 C 66.800 229.907,66.178 231.257,65.417 232.820 C 64.657 234.383,63.912 236.053,63.762 236.531 C 63.612 237.009,62.872 238.750,62.116 240.400 C 59.843 245.365,59.694 245.731,59.194 247.600 C 58.929 248.590,58.566 249.760,58.388 250.200 C 55.552 257.205,56.702 278.840,60.409 288.200 C 60.583 288.640,61.024 289.810,61.388 290.800 C 64.046 298.026,70.482 309.271,74.439 313.600 C 80.116 319.812,80.878 320.549,84.364 323.200 C 85.087 323.750,86.156 324.569,86.739 325.020 C 89.965 327.514,96.137 330.620,100.000 331.693 C 105.061 333.099,107.713 333.200,139.407 333.200 C 169.028 333.200,170.802 333.240,170.827 333.900 C 170.849 334.456,170.944 334.414,171.290 333.696 C 171.917 332.396,174.268 332.508,137.000 332.073 C 100.405 331.646,99.070 331.567,96.400 329.644 C 95.850 329.248,94.680 328.679,93.800 328.379 C 92.920 328.080,91.930 327.645,91.600 327.413 C 91.270 327.181,90.370 326.646,89.600 326.224 C 88.830 325.802,87.930 325.168,87.600 324.815 C 87.270 324.461,86.035 323.474,84.856 322.620 C 80.899 319.755,73.200 311.700,73.200 310.427 C 73.200 310.192,73.050 310.000,72.866 310.000 C 72.683 310.000,71.846 308.965,71.007 307.700 C 70.168 306.435,69.148 304.912,68.740 304.316 C 68.333 303.720,68.000 303.126,68.000 302.997 C 68.000 302.868,67.370 301.777,66.600 300.573 C 65.830 299.369,65.200 298.191,65.200 297.954 C 65.200 297.717,64.952 297.046,64.649 296.462 C 64.346 295.878,63.915 294.950,63.692 294.400 C 63.469 293.850,62.817 292.263,62.243 290.874 C 61.669 289.484,61.200 287.945,61.200 287.454 C 61.200 286.962,61.029 286.389,60.821 286.180 C 58.367 283.721,56.642 265.856,58.003 257.000 C 59.248 248.896,59.800 246.929,62.381 241.400 C 63.638 238.707,65.195 235.223,65.689 234.000 C 65.911 233.450,66.253 232.730,66.449 232.400 C 66.645 232.070,66.913 231.530,67.045 231.200 C 67.436 230.223,68.249 228.379,69.600 225.400 C 70.298 223.860,71.138 221.970,71.465 221.200 C 72.602 218.523,73.297 216.993,73.917 215.800 C 74.697 214.300,74.998 213.662,75.521 212.400 C 76.494 210.052,80.065 202.041,82.369 197.040 C 83.068 195.523,83.547 194.038,83.432 193.740 C 83.204 193.144,35.866 192.916,34.938 193.506 M184.574 193.642 C 183.787 194.916,182.009 198.661,182.005 199.055 C 182.002 199.305,181.213 201.195,180.250 203.255 C 179.288 205.315,177.651 209.025,176.613 211.499 C 175.575 213.974,174.562 216.100,174.363 216.223 C 174.163 216.346,174.000 216.851,174.000 217.344 C 174.000 217.837,173.844 218.411,173.654 218.620 C 172.330 220.074,168.800 232.691,168.800 235.970 C 168.800 240.344,171.510 244.966,174.897 246.371 C 176.054 246.850,177.360 247.405,177.800 247.603 C 180.372 248.759,182.408 248.924,196.230 249.095 L 210.659 249.274 211.362 248.202 C 211.748 247.613,211.990 247.056,211.899 246.966 C 211.809 246.875,211.490 247.258,211.191 247.816 L 210.648 248.832 198.224 248.667 C 178.490 248.405,173.399 246.969,170.718 240.907 C 169.622 238.430,169.655 232.298,170.783 228.800 C 170.960 228.250,171.434 226.720,171.835 225.400 C 172.236 224.080,172.707 222.829,172.882 222.620 C 173.057 222.411,173.200 221.837,173.200 221.344 C 173.200 220.851,173.353 220.352,173.541 220.237 C 173.728 220.121,174.207 219.165,174.605 218.113 C 175.003 217.061,176.020 214.704,176.865 212.876 C 177.709 211.048,178.400 209.413,178.400 209.242 C 178.400 209.072,179.002 207.687,179.737 206.166 C 180.473 204.645,181.407 202.520,181.813 201.444 C 182.219 200.368,183.203 198.208,184.000 196.644 L 185.449 193.800 196.225 193.590 L 207.000 193.380 195.924 193.290 C 188.172 193.227,184.765 193.333,184.574 193.642 M224.934 209.200 C 224.934 210.850,225.005 211.525,225.091 210.700 C 225.178 209.875,225.178 208.525,225.091 207.700 C 225.005 206.875,224.934 207.550,224.934 209.200 M372.722 214.900 C 372.409 215.395,371.831 216.700,371.439 217.800 C 371.046 218.900,370.472 220.367,370.162 221.060 C 369.853 221.754,369.600 222.465,369.600 222.641 C 369.600 222.816,368.987 224.589,368.237 226.580 C 367.487 228.571,366.118 232.270,365.194 234.800 C 364.270 237.330,363.362 239.760,363.177 240.200 C 362.992 240.640,362.567 241.810,362.233 242.800 C 361.001 246.453,360.563 247.522,360.039 248.154 C 359.123 249.257,310.195 249.131,310.786 248.026 C 311.014 247.601,311.194 247.106,311.186 246.926 C 311.178 246.747,310.927 247.041,310.629 247.580 C 310.331 248.119,310.159 248.749,310.248 248.980 C 310.383 249.333,328.178 249.412,360.273 249.203 C 360.533 249.201,360.860 248.795,360.998 248.300 C 361.137 247.805,361.397 247.040,361.577 246.600 C 361.884 245.851,362.911 243.209,363.601 241.400 C 363.768 240.960,364.390 239.250,364.983 237.600 C 366.061 234.599,367.004 232.104,367.628 230.600 C 367.810 230.160,368.495 228.270,369.149 226.400 C 370.241 223.277,371.022 221.074,372.658 216.500 C 373.599 213.868,373.142 213.306,378.596 223.800 C 379.967 226.440,381.488 229.304,381.974 230.164 C 382.461 231.025,384.039 233.995,385.481 236.764 C 386.923 239.534,388.241 241.980,388.411 242.200 C 388.580 242.420,389.890 244.850,391.322 247.600 C 392.753 250.350,394.750 254.130,395.760 256.000 C 396.770 257.870,398.002 260.251,398.498 261.292 C 398.994 262.332,399.535 263.187,399.700 263.192 C 400.097 263.203,400.088 261.705,399.691 261.533 C 399.520 261.460,398.683 260.050,397.829 258.400 C 396.976 256.750,395.694 254.320,394.981 253.000 C 393.596 250.437,391.526 246.531,388.303 240.400 C 387.205 238.310,385.808 235.700,385.200 234.600 C 383.814 232.096,380.562 225.944,378.539 222.000 C 377.693 220.350,376.865 218.940,376.700 218.867 C 376.535 218.793,376.397 218.523,376.392 218.267 C 376.381 217.596,374.066 214.000,373.645 214.000 C 373.451 214.000,373.036 214.405,372.722 214.900 M223.265 218.217 C 223.009 218.778,222.807 219.454,222.816 219.719 C 222.824 219.983,223.097 219.588,223.422 218.839 C 224.105 217.265,223.961 216.690,223.265 218.217 M393.000 311.394 C 389.480 313.685,386.023 315.855,385.318 316.216 C 384.614 316.578,383.826 317.127,383.569 317.437 C 383.312 317.747,382.854 318.000,382.551 318.000 C 382.248 318.000,382.000 318.137,382.000 318.305 C 382.000 318.473,381.646 318.788,381.214 319.005 C 380.114 319.558,360.244 332.066,360.000 332.360 C 359.890 332.492,359.440 332.816,359.000 333.081 C 358.560 333.346,356.220 334.835,353.800 336.391 C 351.380 337.948,349.040 339.441,348.600 339.709 C 348.160 339.978,347.227 340.603,346.527 341.099 C 345.826 341.595,345.141 342.000,345.005 342.000 C 344.868 342.000,343.391 342.900,341.723 344.000 C 340.054 345.100,338.603 346.000,338.498 346.000 C 338.393 346.000,337.473 346.599,336.454 347.331 C 334.806 348.515,325.084 354.743,323.214 355.815 C 322.436 356.260,319.986 357.861,317.400 359.614 C 316.520 360.210,315.170 361.045,314.400 361.468 C 313.630 361.892,311.380 363.284,309.400 364.561 C 307.420 365.839,304.758 367.541,303.485 368.342 C 302.212 369.144,300.104 370.559,298.801 371.487 C 295.858 373.584,295.603 373.241,297.505 369.743 C 298.327 368.230,299.540 365.914,300.200 364.596 C 300.860 363.278,301.502 362.110,301.627 362.000 C 301.752 361.890,303.210 359.100,304.868 355.800 C 306.526 352.500,309.558 346.560,311.606 342.600 C 313.654 338.640,315.589 334.894,315.906 334.275 C 316.767 332.598,317.508 332.658,294.905 332.569 C 273.715 332.486,271.990 332.586,272.012 333.890 C 272.024 334.564,272.045 334.564,272.432 333.900 C 272.912 333.076,314.498 332.788,315.003 333.605 C 315.141 333.828,315.003 334.503,314.697 335.105 C 314.391 335.707,312.600 339.170,310.716 342.800 C 308.832 346.430,305.404 353.090,303.098 357.600 C 300.793 362.110,298.163 367.204,297.253 368.919 C 294.174 374.729,294.655 374.798,302.706 369.700 C 306.093 367.555,309.435 365.453,310.132 365.028 C 310.830 364.603,313.322 363.013,315.670 361.494 C 318.019 359.974,322.535 357.082,325.705 355.066 C 328.875 353.050,332.173 350.933,333.034 350.363 C 333.896 349.792,335.344 348.892,336.254 348.363 C 337.164 347.833,340.553 345.690,343.786 343.600 C 347.019 341.510,349.965 339.620,350.332 339.400 C 350.699 339.180,351.090 338.890,351.200 338.756 C 351.310 338.622,352.009 338.172,352.752 337.756 C 354.198 336.948,354.248 336.917,357.600 334.759 C 358.810 333.980,362.320 331.749,365.400 329.801 C 368.480 327.853,371.557 325.840,372.238 325.329 C 372.919 324.818,373.671 324.400,373.909 324.400 C 374.148 324.400,374.605 324.138,374.925 323.818 C 375.245 323.498,376.055 322.913,376.723 322.518 C 378.307 321.583,387.193 315.932,390.902 313.501 C 392.496 312.456,394.115 311.490,394.500 311.354 C 394.885 311.218,395.203 310.993,395.206 310.853 C 395.209 310.714,396.287 309.970,397.600 309.200 C 399.735 307.948,400.553 307.174,399.700 307.214 C 399.535 307.222,396.520 309.102,393.000 311.394 " stroke="none" fill="#e49b95" fill-rule="evenodd"></path></g></svg>