<svg id="svg" version="1.1" width="400" height="400" viewBox="0 0 400 400" xmlns="http://www.w3.org/2000/svg" xmlns:xlink="http://www.w3.org/1999/xlink" ><g id="svgg"><path id="path0" d="M186.800 0.373 C 186.470 0.601,185.480 0.793,184.600 0.800 C 175.331 0.868,163.042 11.783,159.606 23.000 C 159.134 24.540,158.580 26.213,158.374 26.719 C 157.423 29.055,157.934 37.842,159.257 41.912 C 167.518 67.324,200.757 72.123,215.271 50.000 C 227.756 30.971,216.547 4.778,194.200 0.764 C 190.574 0.112,187.418 -0.054,186.800 0.373 M180.800 72.816 C 179.810 72.986,178.339 73.300,177.530 73.513 C 175.891 73.947,169.223 77.431,168.600 78.180 C 168.380 78.444,167.480 79.187,166.600 79.831 C 164.894 81.080,149.399 96.677,112.591 134.199 C 105.085 141.849,104.055 143.582,103.198 150.000 C 102.289 156.810,101.927 159.822,101.395 165.000 C 100.790 170.887,99.851 178.950,99.182 184.000 C 98.963 185.650,98.523 189.520,98.203 192.600 C 97.287 201.419,96.857 205.186,96.421 208.200 C 95.002 218.010,96.922 223.107,103.600 227.258 C 106.153 228.845,115.600 229.085,115.600 227.563 C 115.600 227.393,115.915 227.150,116.300 227.023 C 120.735 225.561,123.547 219.244,124.768 208.000 C 125.234 203.710,125.786 198.940,125.994 197.400 C 126.202 195.860,126.466 193.340,126.580 191.800 C 126.917 187.284,128.133 175.771,128.820 170.600 C 129.054 168.840,129.405 165.600,129.600 163.400 C 129.795 161.200,129.965 159.362,129.978 159.315 C 130.063 158.989,150.242 139.200,150.489 139.200 C 151.104 139.200,150.593 144.546,148.039 164.800 C 147.582 168.430,147.017 173.110,146.784 175.200 C 146.551 177.290,145.912 182.510,145.364 186.800 C 144.388 194.438,144.027 197.531,143.219 205.200 C 142.999 207.290,142.445 211.790,141.988 215.200 C 141.130 221.607,140.651 225.606,140.001 231.800 C 139.641 235.238,138.374 245.443,137.569 251.400 C 137.361 252.940,137.021 255.910,136.813 258.000 C 136.436 261.781,135.101 272.860,134.378 278.200 C 134.170 279.740,133.736 283.430,133.414 286.400 C 132.497 294.855,132.346 295.679,131.340 297.692 C 130.820 298.733,130.056 300.443,129.642 301.492 C 129.228 302.541,128.239 304.735,127.444 306.366 C 126.650 307.997,126.000 309.477,126.000 309.653 C 126.000 309.830,125.290 311.428,124.421 313.205 C 123.553 314.982,122.726 316.804,122.583 317.254 C 122.440 317.705,121.555 319.722,120.617 321.737 C 117.734 327.926,115.200 333.559,115.200 333.777 C 115.200 333.891,114.507 335.473,113.660 337.292 C 112.009 340.838,110.900 343.272,109.557 346.300 C 109.094 347.345,108.085 349.550,107.316 351.200 C 106.546 352.850,105.578 355.055,105.164 356.099 C 104.751 357.144,103.871 359.071,103.209 360.381 C 102.548 361.692,101.552 363.973,100.996 365.450 C 100.439 366.928,99.824 368.331,99.628 368.568 C 99.083 369.228,98.111 373.492,97.839 376.409 C 96.174 394.309,113.345 405.406,129.656 396.971 C 133.053 395.214,140.400 384.789,140.400 381.725 C 140.400 381.613,141.132 379.964,142.027 378.061 C 142.922 376.157,143.808 374.240,143.995 373.800 C 144.182 373.360,144.828 371.920,145.429 370.600 C 147.507 366.041,153.309 352.990,154.676 349.800 C 155.430 348.040,156.506 345.610,157.068 344.400 C 157.629 343.190,158.360 341.570,158.692 340.800 C 159.025 340.030,159.815 338.317,160.449 336.993 C 161.082 335.670,161.600 334.450,161.600 334.282 C 161.600 334.115,162.500 332.098,163.600 329.800 C 164.700 327.502,165.600 325.544,165.600 325.448 C 165.600 325.352,166.410 323.540,167.400 321.422 C 168.390 319.303,169.200 317.478,169.200 317.366 C 169.200 317.254,169.853 315.776,170.651 314.082 C 171.449 312.387,172.775 309.200,173.598 307.000 C 174.421 304.800,175.389 302.302,175.748 301.449 C 176.350 300.022,178.076 287.674,178.803 279.600 C 180.079 265.436,180.796 260.400,181.536 260.400 C 181.703 260.400,182.785 263.685,183.941 267.700 C 185.097 271.715,186.657 276.980,187.408 279.400 C 188.159 281.820,188.942 284.520,189.147 285.400 C 189.353 286.280,190.174 289.160,190.973 291.800 C 191.771 294.440,192.621 297.320,192.861 298.200 C 193.101 299.080,193.794 301.420,194.400 303.400 C 195.006 305.380,195.696 307.720,195.932 308.600 C 197.018 312.645,197.736 315.125,198.248 316.600 C 198.553 317.480,199.336 320.180,199.988 322.600 C 200.639 325.020,201.887 329.430,202.760 332.400 C 203.633 335.370,204.993 340.050,205.783 342.800 C 206.573 345.550,207.751 349.510,208.401 351.600 C 209.051 353.690,209.838 356.390,210.151 357.600 C 210.463 358.810,211.290 361.690,211.989 364.000 C 212.688 366.310,213.587 369.370,213.987 370.800 C 219.894 391.918,221.577 394.624,231.400 398.805 C 245.200 404.678,263.256 389.168,259.440 374.720 C 258.596 371.525,256.134 363.085,254.796 358.800 C 254.143 356.710,253.336 353.920,253.002 352.600 C 252.668 351.280,251.968 348.850,251.445 347.200 C 250.922 345.550,250.182 343.030,249.801 341.600 C 249.419 340.170,248.408 336.729,247.553 333.954 C 246.699 331.179,246.000 328.671,246.000 328.381 C 246.000 328.091,245.657 326.851,245.239 325.627 C 244.390 323.145,242.987 318.541,242.427 316.400 C 242.226 315.630,241.508 313.200,240.832 311.000 C 240.156 308.800,239.250 305.637,238.819 303.971 C 238.387 302.305,237.828 300.415,237.575 299.771 C 237.323 299.127,236.425 296.170,235.579 293.200 C 232.223 281.420,231.125 277.646,229.992 274.000 C 229.343 271.910,228.551 269.210,228.234 268.000 C 227.697 265.954,226.842 263.033,223.319 251.200 C 222.565 248.670,221.522 245.070,220.999 243.200 C 220.477 241.330,219.330 237.370,218.451 234.400 C 217.572 231.430,216.210 226.750,215.424 224.000 C 214.637 221.250,213.644 217.920,213.217 216.600 C 212.789 215.280,212.067 212.850,211.611 211.200 C 211.156 209.550,210.583 207.480,210.338 206.600 C 210.093 205.720,209.540 204.010,209.110 202.800 C 208.183 200.199,208.163 198.032,209.001 191.000 C 209.883 183.591,210.406 178.763,210.799 174.400 C 211.541 166.167,212.172 160.295,213.229 151.800 C 213.448 150.040,213.734 147.295,213.866 145.700 C 213.998 144.105,214.228 142.800,214.378 142.800 C 214.848 142.800,216.680 144.944,217.358 146.288 C 217.716 146.997,218.726 148.601,219.604 149.854 C 220.482 151.107,221.200 152.292,221.200 152.486 C 221.200 152.680,221.904 153.865,222.764 155.120 C 224.903 158.240,227.285 161.985,227.962 163.294 C 229.640 166.535,233.200 169.409,240.200 173.174 C 245.225 175.876,248.769 177.851,249.251 178.217 C 249.553 178.446,250.340 178.891,251.000 179.206 C 251.660 179.522,253.492 180.549,255.072 181.490 C 256.652 182.430,258.050 183.200,258.180 183.200 C 258.310 183.200,259.087 183.623,259.908 184.141 C 260.729 184.658,262.480 185.661,263.800 186.369 C 265.120 187.077,267.100 188.189,268.200 188.840 C 269.300 189.490,270.598 190.191,271.085 190.396 C 271.572 190.601,272.652 191.200,273.485 191.726 C 287.015 200.279,294.505 200.977,300.172 194.214 C 306.999 186.068,304.832 176.167,295.099 171.032 C 291.724 169.252,288.189 167.344,283.400 164.718 C 281.200 163.511,278.140 161.840,276.600 161.004 C 275.060 160.168,273.600 159.329,273.356 159.139 C 273.111 158.949,271.491 158.071,269.756 157.186 C 268.020 156.302,265.700 155.072,264.600 154.454 C 263.500 153.836,259.947 151.898,256.705 150.148 L 250.809 146.965 245.563 138.583 C 242.677 133.972,240.020 129.685,239.658 129.056 C 239.296 128.427,238.602 127.347,238.116 126.656 C 237.630 125.965,236.498 124.140,235.601 122.600 C 234.703 121.060,233.637 119.350,233.231 118.800 C 232.825 118.250,230.828 115.100,228.793 111.800 C 226.758 108.500,224.240 104.450,223.196 102.800 C 222.153 101.150,219.458 96.830,217.208 93.200 C 206.885 76.549,195.662 70.265,180.800 72.816 " stroke="none" fill="#050505" fill-rule="evenodd"></path><path id="path1" d="M0.000 200.000 L 0.000 400.000 56.300 399.966 C 87.265 399.947,112.150 399.793,111.600 399.625 C 101.784 396.615,95.428 385.618,97.366 375.000 C 98.325 369.751,98.622 368.756,100.291 365.200 C 101.169 363.330,102.653 360.090,103.589 358.000 C 104.524 355.910,105.833 353.030,106.497 351.600 C 107.160 350.170,108.197 347.830,108.800 346.400 C 109.403 344.970,110.474 342.540,111.181 341.000 C 111.888 339.460,113.153 336.670,113.994 334.800 C 114.835 332.930,116.421 329.420,117.520 327.000 C 118.619 324.580,120.907 319.450,122.605 315.600 C 124.302 311.750,125.851 308.429,126.046 308.220 C 126.241 308.011,126.400 307.616,126.400 307.343 C 126.400 307.069,127.136 305.260,128.035 303.323 C 128.934 301.385,130.194 298.672,130.835 297.292 C 131.480 295.905,132.000 294.104,132.000 293.259 C 132.000 292.420,132.168 290.758,132.373 289.567 C 132.578 288.375,132.949 285.420,133.198 283.000 C 133.447 280.580,133.931 276.440,134.275 273.800 C 134.619 271.160,135.053 267.740,135.241 266.200 C 135.429 264.660,135.682 262.590,135.804 261.600 C 135.925 260.610,136.296 257.190,136.627 254.000 C 137.225 248.239,138.073 241.381,138.804 236.400 C 139.013 234.970,139.451 231.280,139.776 228.200 C 140.748 218.986,140.819 218.376,141.449 213.800 C 141.782 211.380,142.139 208.680,142.241 207.800 C 142.344 206.920,142.618 204.670,142.851 202.800 C 143.084 200.930,143.436 197.780,143.634 195.800 C 144.086 191.287,144.482 187.913,145.773 177.600 C 146.337 173.090,146.990 167.690,147.223 165.600 C 147.456 163.510,147.808 160.540,148.005 159.000 C 148.203 157.460,148.563 154.490,148.806 152.400 C 149.049 150.310,149.417 147.505,149.624 146.167 C 150.078 143.232,150.111 140.800,149.697 140.800 C 149.530 140.800,145.136 145.075,139.931 150.300 L 130.469 159.800 130.220 163.200 C 130.083 165.070,129.804 168.130,129.600 170.000 C 128.674 178.492,127.934 184.808,127.584 187.200 C 127.375 188.630,127.009 192.140,126.770 195.000 C 125.051 215.608,124.511 218.430,121.427 222.943 C 114.518 233.051,99.725 230.695,95.817 218.864 C 94.954 216.249,95.103 211.697,96.366 202.200 C 97.392 194.478,97.947 189.794,98.401 185.000 C 98.589 183.020,98.944 179.960,99.190 178.200 C 99.838 173.572,100.483 167.949,101.769 155.734 C 103.289 141.301,99.063 146.917,138.438 107.005 C 145.169 100.182,153.449 91.746,156.838 88.258 C 163.017 81.898,167.835 77.614,170.157 76.413 C 170.841 76.059,171.871 75.457,172.446 75.074 C 175.570 72.997,180.356 71.887,186.200 71.885 C 191.803 71.882,191.961 71.908,197.600 73.757 C 201.986 75.194,208.306 79.693,211.814 83.876 C 213.327 85.678,217.907 92.803,224.110 103.000 C 224.378 103.440,225.453 105.099,226.499 106.686 C 227.544 108.274,228.400 109.678,228.400 109.807 C 228.400 109.936,229.362 111.518,230.537 113.321 C 232.298 116.024,238.229 125.484,240.116 128.600 C 240.382 129.040,240.715 129.490,240.856 129.600 C 240.997 129.710,241.510 130.520,241.995 131.400 C 242.480 132.280,244.018 134.800,245.413 137.000 C 246.808 139.200,248.691 142.260,249.596 143.800 C 251.101 146.360,251.473 146.712,253.921 147.900 C 255.395 148.615,258.213 150.109,260.184 151.219 C 265.198 154.044,269.363 156.321,272.369 157.882 C 273.782 158.616,275.132 159.370,275.369 159.558 C 275.606 159.746,277.510 160.797,279.600 161.894 C 281.690 162.991,284.300 164.396,285.400 165.015 C 288.446 166.729,295.223 170.412,296.829 171.226 C 312.136 178.981,303.061 203.385,286.511 198.972 C 284.115 198.333,281.736 197.179,274.200 193.002 C 273.100 192.392,272.020 191.761,271.800 191.599 C 271.580 191.438,270.320 190.713,269.000 189.987 C 266.270 188.487,263.642 187.029,261.600 185.881 C 257.569 183.616,252.390 180.719,243.000 175.477 C 232.052 169.365,229.890 167.745,227.736 164.040 C 227.148 163.028,226.247 161.643,225.734 160.962 C 225.220 160.281,224.800 159.578,224.800 159.400 C 224.800 159.222,224.387 158.519,223.883 157.838 C 223.379 157.157,221.732 154.620,220.224 152.200 C 214.366 142.802,214.626 143.007,214.267 147.488 C 213.908 151.976,213.289 157.864,212.573 163.600 C 212.230 166.350,211.865 169.500,211.762 170.600 C 211.659 171.700,211.388 174.490,211.161 176.800 C 210.934 179.110,210.585 182.800,210.385 185.000 C 210.186 187.200,209.764 191.256,209.448 194.014 C 208.845 199.266,208.824 199.029,210.410 204.600 C 210.598 205.260,210.958 206.610,211.210 207.600 C 211.462 208.590,211.820 209.760,212.006 210.200 C 212.345 211.005,213.135 213.630,213.931 216.600 C 214.167 217.480,214.900 220.000,215.559 222.200 C 216.611 225.706,217.663 229.338,218.805 233.400 C 219.480 235.802,221.296 241.920,222.842 247.000 C 223.712 249.860,224.595 252.830,224.803 253.600 C 225.012 254.370,225.732 256.890,226.404 259.200 C 227.075 261.510,227.880 264.300,228.193 265.400 C 228.505 266.500,229.392 269.470,230.163 272.000 C 230.935 274.530,231.734 277.320,231.939 278.200 C 232.143 279.080,232.961 281.960,233.756 284.600 C 234.551 287.240,235.404 290.120,235.652 291.000 C 235.901 291.880,236.336 293.320,236.620 294.200 C 237.174 295.919,238.174 299.331,238.789 301.600 C 238.998 302.370,239.649 304.530,240.236 306.400 C 240.823 308.270,241.444 310.340,241.616 311.000 C 242.734 315.296,243.770 318.923,244.473 321.000 C 244.919 322.320,245.636 324.750,246.066 326.400 C 246.496 328.050,247.286 330.750,247.822 332.400 C 248.357 334.050,249.451 337.740,250.254 340.600 C 251.057 343.460,251.973 346.700,252.291 347.800 C 252.609 348.900,253.024 350.340,253.214 351.000 C 253.405 351.660,253.945 353.460,254.415 355.000 C 254.885 356.540,255.699 359.354,256.224 361.254 C 256.749 363.153,257.433 365.493,257.745 366.454 C 258.389 368.436,259.302 371.658,260.053 374.600 C 262.518 384.263,255.298 396.226,245.071 399.424 C 243.683 399.858,256.658 399.951,321.700 399.973 L 400.000 400.000 400.000 200.000 L 400.000 0.000 297.700 0.018 L 195.400 0.036 198.200 0.952 C 217.311 7.204,226.451 28.488,217.888 46.800 C 217.117 48.450,216.151 50.160,215.743 50.600 C 215.334 51.040,214.484 52.159,213.854 53.087 C 213.224 54.015,212.144 55.222,211.454 55.768 C 210.764 56.314,209.498 57.386,208.640 58.150 C 207.781 58.914,206.431 59.868,205.640 60.270 C 204.848 60.671,204.110 61.110,204.000 61.244 C 203.291 62.109,198.946 63.542,194.576 64.351 C 188.626 65.453,179.587 64.272,175.690 61.885 C 174.870 61.382,173.750 60.775,173.200 60.534 C 171.727 59.888,167.182 56.165,165.800 54.471 C 165.140 53.662,164.144 52.520,163.586 51.934 C 163.028 51.348,162.312 50.358,161.995 49.734 C 161.678 49.110,161.036 47.970,160.570 47.200 C 150.726 30.961,162.765 5.030,182.278 0.438 C 183.190 0.224,146.963 0.064,91.900 0.040 L 0.000 0.000 0.000 200.000 M181.469 262.800 C 181.060 264.680,180.725 267.000,180.399 270.200 C 179.950 274.615,178.910 284.623,178.424 289.200 C 177.653 296.477,176.922 300.612,176.091 302.400 C 175.631 303.390,174.968 305.100,174.618 306.200 C 174.268 307.300,173.816 308.560,173.613 309.000 C 173.410 309.440,172.858 310.700,172.387 311.800 C 171.917 312.900,171.205 314.520,170.805 315.400 C 170.406 316.280,169.805 317.630,169.469 318.400 C 168.642 320.298,164.597 329.213,163.162 332.301 C 162.523 333.677,162.000 334.886,162.000 334.989 C 162.000 335.189,160.587 338.402,158.918 342.000 C 158.356 343.210,157.750 344.560,157.572 345.000 C 157.393 345.440,156.516 347.364,155.623 349.276 C 154.731 351.188,154.000 352.835,154.000 352.936 C 154.000 353.038,153.280 354.665,152.400 356.552 C 151.520 358.439,150.800 360.102,150.800 360.247 C 150.800 360.392,150.080 362.012,149.200 363.847 C 148.320 365.683,147.600 367.276,147.600 367.389 C 147.600 367.503,146.790 369.317,145.800 371.422 C 144.810 373.526,144.000 375.336,144.000 375.443 C 144.000 375.549,143.394 376.934,142.653 378.518 C 141.913 380.103,140.910 382.300,140.424 383.400 C 138.588 387.563,138.227 388.262,136.597 390.804 C 133.887 395.033,129.193 398.604,125.000 399.626 C 124.340 399.786,148.280 399.930,178.200 399.945 C 231.435 399.971,232.556 399.955,230.561 399.237 C 226.443 397.754,222.441 394.510,220.399 391.000 C 218.374 387.518,217.575 385.877,217.218 384.470 C 216.745 382.602,216.257 380.908,215.182 377.400 C 214.710 375.860,214.175 373.970,213.992 373.200 C 213.809 372.430,213.099 370.000,212.414 367.800 C 211.729 365.600,210.809 362.450,210.370 360.800 C 209.931 359.150,208.963 355.820,208.217 353.400 C 206.449 347.657,204.148 339.768,203.142 336.000 C 202.702 334.350,201.911 331.650,201.385 330.000 C 200.858 328.350,200.261 326.280,200.058 325.400 C 199.855 324.520,199.039 321.640,198.244 319.000 C 197.449 316.360,196.597 313.480,196.350 312.600 C 195.033 307.900,193.177 301.561,192.177 298.346 C 191.859 297.327,191.600 296.199,191.600 295.841 C 191.600 295.482,191.430 294.877,191.221 294.495 C 190.842 293.798,190.307 292.051,188.989 287.200 C 188.601 285.770,187.936 283.520,187.512 282.200 C 187.089 280.880,186.389 278.450,185.958 276.800 C 185.527 275.150,185.017 273.350,184.826 272.800 C 184.230 271.088,182.826 266.302,182.244 264.000 C 181.785 262.185,181.649 261.975,181.469 262.800 " stroke="none" fill="#fbfbfb" fill-rule="evenodd"></path><path id="path2" d="M163.381 82.100 L 161.800 83.800 163.500 82.219 C 165.081 80.748,165.384 80.400,165.081 80.400 C 165.016 80.400,164.251 81.165,163.381 82.100 M158.386 87.100 L 156.200 89.400 158.500 87.214 C 160.637 85.182,160.983 84.800,160.686 84.800 C 160.624 84.800,159.589 85.835,158.386 87.100 M110.575 135.700 L 109.400 137.000 110.700 135.825 C 111.912 134.730,112.184 134.400,111.875 134.400 C 111.806 134.400,111.221 134.985,110.575 135.700 M118.975 225.300 L 117.800 226.600 119.100 225.425 C 120.312 224.330,120.584 224.000,120.275 224.000 C 120.206 224.000,119.621 224.585,118.975 225.300 M222.400 393.400 C 223.146 394.170,223.847 394.800,223.957 394.800 C 224.067 394.800,223.546 394.170,222.800 393.400 C 222.054 392.630,221.353 392.000,221.243 392.000 C 221.133 392.000,221.654 392.630,222.400 393.400 " stroke="none" fill="#7c7c7d" fill-rule="evenodd"></path><path id="path3" d="M195.200 0.349 C 195.530 0.546,196.430 0.820,197.200 0.956 C 198.144 1.123,198.340 1.092,197.800 0.861 C 196.563 0.332,194.490 -0.077,195.200 0.349 M180.075 1.073 C 177.511 1.980,178.259 2.084,181.016 1.204 C 182.327 0.786,183.040 0.448,182.600 0.453 C 182.160 0.459,181.024 0.738,180.075 1.073 M199.200 1.533 C 199.530 1.736,200.250 2.024,200.800 2.171 C 201.495 2.357,201.617 2.325,201.200 2.067 C 200.870 1.864,200.150 1.576,199.600 1.429 C 198.905 1.243,198.783 1.275,199.200 1.533 M173.800 3.878 C 172.337 4.666,168.968 7.200,169.385 7.200 C 169.550 7.200,170.341 6.685,171.142 6.055 C 171.944 5.425,173.185 4.610,173.900 4.245 C 174.615 3.879,175.200 3.494,175.200 3.390 C 175.200 3.131,175.165 3.143,173.800 3.878 M205.400 4.257 C 207.437 6.064,208.187 6.591,207.402 5.663 C 206.966 5.148,206.247 4.541,205.804 4.314 C 205.362 4.087,205.180 4.062,205.400 4.257 M210.629 8.412 C 211.085 8.955,212.369 10.480,213.482 11.800 C 214.595 13.120,215.801 14.785,216.163 15.500 C 216.525 16.215,216.911 16.800,217.021 16.800 C 217.806 16.800,212.358 9.396,210.545 7.998 C 209.933 7.527,209.948 7.601,210.629 8.412 M166.141 10.161 C 163.639 13.143,162.508 14.645,162.043 15.600 C 161.495 16.724,161.385 16.853,164.078 13.214 C 164.805 12.232,165.998 10.837,166.728 10.114 C 167.459 9.391,167.883 8.800,167.670 8.800 C 167.457 8.800,166.769 9.412,166.141 10.161 M160.380 18.839 C 159.920 19.740,159.613 20.546,159.697 20.630 C 159.781 20.714,160.241 19.976,160.719 18.991 C 161.809 16.747,161.515 16.615,160.380 18.839 M218.028 19.076 C 218.118 20.115,218.744 20.996,218.772 20.124 C 218.787 19.642,218.620 19.136,218.400 19.000 C 218.180 18.864,218.013 18.898,218.028 19.076 M158.800 22.800 C 158.551 23.724,158.426 24.559,158.521 24.655 C 158.617 24.750,158.890 24.063,159.127 23.127 C 159.365 22.191,159.490 21.357,159.406 21.273 C 159.322 21.188,159.049 21.876,158.800 22.800 M219.261 22.400 C 219.261 22.730,219.503 23.630,219.800 24.400 C 220.097 25.170,220.339 25.530,220.339 25.200 C 220.339 24.870,220.097 23.970,219.800 23.200 C 219.503 22.430,219.261 22.070,219.261 22.400 M157.849 25.815 C 157.712 26.173,157.624 27.126,157.653 27.933 C 157.701 29.244,157.738 29.187,157.995 27.400 C 158.303 25.271,158.255 24.758,157.849 25.815 M220.944 32.800 C 220.944 34.890,221.012 35.745,221.094 34.700 C 221.176 33.655,221.176 31.945,221.094 30.900 C 221.012 29.855,220.944 30.710,220.944 32.800 M157.309 33.200 C 157.309 34.190,157.387 34.595,157.482 34.100 C 157.578 33.605,157.578 32.795,157.482 32.300 C 157.387 31.805,157.309 32.210,157.309 33.200 M157.606 38.233 C 157.609 39.095,157.770 40.049,157.963 40.354 C 158.178 40.693,158.232 40.149,158.104 38.954 C 157.842 36.517,157.598 36.164,157.606 38.233 M219.273 42.473 C 219.035 43.409,218.910 44.243,218.994 44.327 C 219.078 44.412,219.351 43.724,219.600 42.800 C 219.849 41.876,219.974 41.041,219.879 40.945 C 219.783 40.850,219.510 41.537,219.273 42.473 M158.400 41.729 C 158.400 42.811,160.979 48.400,161.479 48.400 C 161.589 48.400,161.327 47.803,160.896 47.072 C 160.465 46.342,159.803 44.812,159.424 43.672 C 158.857 41.964,158.400 41.097,158.400 41.729 M216.130 49.223 C 214.736 51.393,214.866 51.983,216.278 49.897 C 217.140 48.624,217.824 47.177,217.543 47.223 C 217.464 47.236,216.829 48.136,216.130 49.223 M161.600 48.949 C 161.600 49.396,163.705 52.429,163.888 52.245 C 163.982 52.151,163.506 51.311,162.829 50.377 C 162.153 49.444,161.600 48.801,161.600 48.949 M213.400 53.200 C 212.790 54.080,212.136 54.800,211.946 54.800 C 211.756 54.800,211.607 55.025,211.616 55.300 C 211.633 55.809,213.740 53.572,214.442 52.300 C 215.135 51.045,214.535 51.563,213.400 53.200 M165.866 54.453 C 166.489 55.252,167.540 56.350,168.200 56.892 C 170.929 59.132,173.290 60.800,173.731 60.799 C 173.989 60.798,173.570 60.415,172.800 59.947 C 170.975 58.839,167.748 56.186,166.066 54.409 L 164.731 53.000 165.866 54.453 M208.800 57.663 C 207.590 58.784,206.960 59.453,207.400 59.150 C 208.397 58.464,211.472 55.606,211.200 55.617 C 211.090 55.622,210.010 56.542,208.800 57.663 M183.517 64.472 C 184.383 64.816,192.691 64.807,193.926 64.460 C 194.436 64.317,192.148 64.200,188.843 64.200 C 185.538 64.200,183.141 64.322,183.517 64.472 M185.300 71.887 C 185.905 71.978,186.895 71.978,187.500 71.887 C 188.105 71.795,187.610 71.720,186.400 71.720 C 185.190 71.720,184.695 71.795,185.300 71.887 M179.246 72.363 C 178.907 72.578,179.451 72.632,180.646 72.504 C 181.721 72.388,182.675 72.228,182.767 72.147 C 183.129 71.828,179.765 72.035,179.246 72.363 M190.033 72.145 C 190.125 72.225,191.001 72.392,191.979 72.518 C 193.130 72.665,193.554 72.616,193.179 72.379 C 192.645 72.040,189.658 71.819,190.033 72.145 M172.900 74.796 C 171.094 75.897,171.263 76.166,173.100 75.114 C 174.948 74.056,175.023 74.000,174.567 74.001 C 174.365 74.002,173.615 74.360,172.900 74.796 M200.800 75.384 C 200.800 75.494,201.520 75.951,202.400 76.400 C 203.280 76.849,204.000 77.126,204.000 77.016 C 204.000 76.906,203.280 76.449,202.400 76.000 C 201.520 75.551,200.800 75.274,200.800 75.384 M166.800 78.854 L 165.000 80.485 166.694 79.213 C 168.168 78.107,169.114 77.174,168.724 77.212 C 168.656 77.219,167.790 77.958,166.800 78.854 M204.400 77.325 C 204.400 77.423,205.255 78.191,206.300 79.032 C 207.345 79.872,207.840 80.145,207.400 79.637 C 206.574 78.683,204.400 77.008,204.400 77.325 M160.992 84.100 L 157.400 87.800 161.100 84.208 C 164.536 80.872,164.982 80.400,164.692 80.400 C 164.632 80.400,162.967 82.065,160.992 84.100 M210.837 83.200 C 214.020 86.991,214.192 87.173,213.664 86.200 C 213.426 85.760,212.125 84.230,210.774 82.800 L 208.318 80.200 210.837 83.200 M214.861 88.823 C 215.362 89.715,216.028 90.658,216.340 90.917 C 216.653 91.176,216.328 90.445,215.620 89.294 C 214.101 86.826,213.544 86.480,214.861 88.823 M155.578 89.463 C 154.668 90.430,154.518 90.714,155.137 90.300 C 155.977 89.738,157.461 88.000,157.101 88.000 C 157.022 88.000,156.337 88.658,155.578 89.463 M151.832 93.222 C 151.409 93.648,151.153 94.087,151.263 94.197 C 151.373 94.307,151.886 93.948,152.401 93.398 C 153.494 92.235,152.971 92.073,151.832 93.222 M218.071 93.800 C 218.280 94.445,220.850 98.400,221.060 98.400 C 221.334 98.400,219.707 95.582,218.751 94.400 C 218.305 93.850,217.999 93.580,218.071 93.800 M138.392 107.048 C 131.686 113.785,126.380 119.228,126.600 119.144 C 127.065 118.967,151.066 94.800,150.777 94.800 C 150.670 94.800,145.097 100.312,138.392 107.048 M226.273 107.100 C 227.308 108.745,228.400 110.145,228.400 109.826 C 228.400 109.462,226.022 106.000,225.772 106.000 C 225.667 106.000,225.893 106.495,226.273 107.100 M230.585 113.900 C 231.202 114.835,231.783 115.600,231.876 115.600 C 232.164 115.600,230.633 113.166,230.032 112.669 C 229.720 112.411,229.968 112.965,230.585 113.900 M124.378 121.500 L 123.000 123.000 124.500 121.622 C 125.325 120.863,126.000 120.188,126.000 120.122 C 126.000 119.816,125.662 120.104,124.378 121.500 M114.800 131.000 C 110.514 135.290,107.098 138.800,107.208 138.800 C 107.318 138.800,110.914 135.290,115.200 131.000 C 119.486 126.710,122.902 123.200,122.792 123.200 C 122.682 123.200,119.086 126.710,114.800 131.000 M241.292 130.971 C 241.786 131.726,242.243 132.290,242.308 132.226 C 242.507 132.027,241.019 129.605,240.696 129.603 C 240.529 129.601,240.797 130.217,241.292 130.971 M243.819 135.000 C 244.626 136.320,245.469 137.580,245.693 137.800 C 246.391 138.487,244.250 134.848,243.277 133.695 C 242.769 133.093,243.013 133.680,243.819 135.000 M246.238 138.900 C 247.059 140.342,248.955 143.200,249.091 143.200 C 249.280 143.200,249.039 142.769,247.471 140.300 C 246.408 138.624,245.483 137.575,246.238 138.900 M105.814 140.235 C 105.441 140.804,105.205 141.338,105.289 141.422 C 105.373 141.507,105.758 141.041,106.144 140.388 C 107.006 138.928,106.748 138.809,105.814 140.235 M139.997 149.900 L 130.200 159.800 139.803 150.300 C 150.412 139.805,149.890 140.210,150.109 142.300 C 150.252 143.674,150.271 143.641,150.333 141.900 C 150.426 139.259,150.856 138.926,139.997 149.900 M214.400 143.990 C 214.400 144.242,214.580 144.336,214.800 144.200 C 215.020 144.064,215.201 144.098,215.202 144.276 C 215.203 144.454,215.662 145.140,216.222 145.800 L 217.239 147.000 216.291 145.424 C 215.342 143.846,214.400 143.132,214.400 143.990 M103.246 145.639 C 103.001 146.343,102.813 147.118,102.828 147.360 C 102.844 147.602,103.114 147.096,103.430 146.235 C 103.745 145.374,103.933 144.600,103.848 144.515 C 103.762 144.429,103.492 144.935,103.246 145.639 M214.124 147.000 C 214.126 148.320,214.201 148.812,214.290 148.093 C 214.379 147.374,214.377 146.294,214.286 145.693 C 214.195 145.092,214.122 145.680,214.124 147.000 M149.265 148.600 C 149.225 149.480,149.106 150.920,149.002 151.800 L 148.812 153.400 149.223 151.800 C 149.448 150.920,149.567 149.480,149.486 148.600 L 149.340 147.000 149.265 148.600 M217.586 147.948 C 218.186 149.100,221.120 153.662,221.463 153.975 C 221.891 154.367,220.776 152.390,219.152 149.877 C 217.448 147.241,216.804 146.448,217.586 147.948 M102.493 150.000 C 102.493 150.770,102.575 151.085,102.676 150.700 C 102.776 150.315,102.776 149.685,102.676 149.300 C 102.575 148.915,102.493 149.230,102.493 150.000 M255.600 148.992 C 255.600 149.097,256.320 149.551,257.200 150.000 C 259.183 151.012,259.300 150.774,257.377 149.640 C 255.912 148.775,255.600 148.661,255.600 148.992 M260.000 151.384 C 260.000 151.494,260.720 151.951,261.600 152.400 C 262.480 152.849,263.200 153.126,263.200 153.016 C 263.200 152.906,262.480 152.449,261.600 152.000 C 260.720 151.551,260.000 151.274,260.000 151.384 M102.109 153.200 C 102.109 154.190,102.187 154.595,102.282 154.100 C 102.378 153.605,102.378 152.795,102.282 152.300 C 102.187 151.805,102.109 152.210,102.109 153.200 M213.035 156.635 C 212.883 158.316,212.841 159.774,212.942 159.876 C 213.043 159.977,213.255 158.688,213.412 157.012 C 213.569 155.336,213.611 153.877,213.505 153.771 C 213.399 153.666,213.188 154.954,213.035 156.635 M148.509 155.600 C 148.509 156.590,148.587 156.995,148.682 156.500 C 148.778 156.005,148.778 155.195,148.682 154.700 C 148.587 154.205,148.509 154.610,148.509 155.600 M222.410 155.727 C 222.889 156.539,223.468 157.319,223.698 157.460 C 224.246 157.799,222.757 155.269,222.070 154.695 C 221.778 154.451,221.931 154.916,222.410 155.727 M267.600 155.621 C 268.642 156.330,270.400 157.228,270.400 157.050 C 270.400 156.828,267.639 155.198,267.277 155.206 C 267.125 155.209,267.270 155.396,267.600 155.621 M147.815 159.815 C 147.661 161.054,147.617 162.150,147.719 162.252 C 147.820 162.354,148.030 161.423,148.185 160.185 C 148.339 158.946,148.383 157.850,148.281 157.748 C 148.180 157.646,147.970 158.577,147.815 159.815 M273.200 158.560 C 273.200 158.769,275.963 160.400,276.316 160.400 C 276.464 160.400,275.923 159.950,275.114 159.400 C 273.697 158.437,273.200 158.219,273.200 158.560 M100.987 162.587 C 100.831 164.044,100.789 165.323,100.895 165.428 C 101.001 165.534,101.210 164.423,101.360 162.960 C 101.510 161.497,101.551 160.218,101.452 160.118 C 101.352 160.019,101.143 161.129,100.987 162.587 M130.093 162.000 C 130.093 162.770,130.175 163.085,130.276 162.700 C 130.376 162.315,130.376 161.685,130.276 161.300 C 130.175 160.915,130.093 161.230,130.093 162.000 M212.501 162.200 C 212.505 163.080,212.587 163.393,212.683 162.895 C 212.779 162.398,212.775 161.678,212.675 161.295 C 212.575 160.913,212.496 161.320,212.501 162.200 M281.200 162.992 C 281.200 163.097,281.920 163.551,282.800 164.000 C 284.783 165.012,284.900 164.774,282.977 163.640 C 281.512 162.775,281.200 162.661,281.200 162.992 M212.067 165.400 C 212.024 166.280,211.889 167.450,211.767 168.000 C 211.577 168.857,211.609 168.899,211.994 168.297 C 212.241 167.910,212.376 166.740,212.294 165.697 C 212.148 163.853,212.142 163.845,212.067 165.400 M129.720 166.400 C 129.720 167.610,129.795 168.105,129.887 167.500 C 129.978 166.895,129.978 165.905,129.887 165.300 C 129.795 164.695,129.720 165.190,129.720 166.400 M228.000 164.496 C 228.000 164.621,228.630 165.478,229.400 166.400 C 230.170 167.322,230.793 167.924,230.783 167.738 C 230.765 167.358,228.000 164.138,228.000 164.496 M146.909 168.800 C 146.909 169.790,146.987 170.195,147.082 169.700 C 147.178 169.205,147.178 168.395,147.082 167.900 C 146.987 167.405,146.909 167.810,146.909 168.800 M291.000 168.292 C 291.220 168.500,292.480 169.247,293.800 169.952 C 295.120 170.658,295.840 170.942,295.400 170.585 C 294.496 169.852,290.381 167.707,291.000 168.292 M232.046 169.136 C 232.571 169.541,233.900 170.361,235.000 170.958 C 237.130 172.114,236.757 171.794,233.532 169.700 C 231.341 168.277,230.539 167.973,232.046 169.136 M129.293 170.000 C 129.293 170.770,129.375 171.085,129.476 170.700 C 129.576 170.315,129.576 169.685,129.476 169.300 C 129.375 168.915,129.293 169.230,129.293 170.000 M100.120 171.600 C 100.120 172.810,100.195 173.305,100.287 172.700 C 100.378 172.095,100.378 171.105,100.287 170.500 C 100.195 169.895,100.120 170.390,100.120 171.600 M297.844 172.241 C 300.985 174.341,302.102 175.714,303.673 179.400 C 304.048 180.280,304.365 180.797,304.378 180.549 C 304.495 178.183,298.766 171.200,296.708 171.200 C 296.477 171.200,296.988 171.668,297.844 172.241 M211.301 173.400 C 211.305 174.280,211.387 174.593,211.483 174.095 C 211.579 173.598,211.575 172.878,211.475 172.495 C 211.375 172.113,211.296 172.520,211.301 173.400 M128.600 175.600 C 128.442 177.385,128.403 178.936,128.513 179.046 C 128.623 179.156,128.842 177.785,129.000 176.000 C 129.158 174.215,129.197 172.664,129.087 172.554 C 128.977 172.444,128.758 173.815,128.600 175.600 M145.840 177.040 C 145.690 178.503,145.649 179.782,145.748 179.882 C 145.848 179.981,146.057 178.871,146.213 177.413 C 146.369 175.956,146.411 174.677,146.305 174.572 C 146.199 174.466,145.990 175.577,145.840 177.040 M210.920 177.200 C 210.920 178.410,210.995 178.905,211.087 178.300 C 211.178 177.695,211.178 176.705,211.087 176.100 C 210.995 175.495,210.920 175.990,210.920 177.200 M242.833 175.341 C 243.353 175.781,248.400 178.436,248.400 178.269 C 248.400 178.027,243.396 175.200,242.968 175.200 C 242.802 175.200,242.742 175.264,242.833 175.341 M99.309 178.000 C 99.309 178.990,99.387 179.395,99.482 178.900 C 99.578 178.405,99.578 177.595,99.482 177.100 C 99.387 176.605,99.309 177.010,99.309 178.000 M98.600 182.400 C 98.444 183.747,98.401 184.934,98.505 185.038 C 98.609 185.142,98.819 184.122,98.971 182.771 C 99.124 181.421,99.167 180.234,99.067 180.133 C 98.966 180.033,98.756 181.053,98.600 182.400 M145.293 182.400 C 145.293 183.170,145.375 183.485,145.476 183.100 C 145.576 182.715,145.576 182.085,145.476 181.700 C 145.375 181.315,145.293 181.630,145.293 182.400 M304.349 184.400 C 304.211 186.270,303.982 188.250,303.841 188.800 C 303.700 189.350,303.864 189.080,304.207 188.200 C 304.614 187.153,304.790 185.632,304.715 183.800 L 304.600 181.000 304.349 184.400 M254.400 181.784 C 254.400 181.894,255.120 182.351,256.000 182.800 C 256.880 183.249,257.600 183.526,257.600 183.416 C 257.600 183.306,256.880 182.849,256.000 182.400 C 255.120 181.951,254.400 181.674,254.400 181.784 M127.667 184.050 C 127.630 184.847,127.511 186.108,127.401 186.850 L 127.203 188.200 127.623 186.860 C 127.854 186.123,127.974 184.863,127.889 184.060 L 127.734 182.600 127.667 184.050 M144.613 186.613 C 144.457 188.071,144.414 189.347,144.516 189.450 C 144.619 189.552,144.831 188.444,144.987 186.987 C 145.143 185.529,145.186 184.253,145.084 184.150 C 144.981 184.048,144.769 185.156,144.613 186.613 M209.835 187.035 C 209.683 188.716,209.641 190.174,209.742 190.276 C 209.843 190.377,210.055 189.088,210.212 187.412 C 210.369 185.736,210.411 184.277,210.305 184.171 C 210.199 184.066,209.988 185.354,209.835 187.035 M258.800 184.135 C 258.800 184.406,261.674 186.059,261.846 185.887 C 261.926 185.808,261.273 185.339,260.396 184.846 C 259.518 184.352,258.800 184.033,258.800 184.135 M262.400 186.152 C 262.400 186.453,265.295 188.038,265.489 187.844 C 265.593 187.741,264.940 187.280,264.039 186.820 C 263.137 186.360,262.400 186.060,262.400 186.152 M97.709 191.600 C 97.709 192.590,97.787 192.995,97.882 192.500 C 97.978 192.005,97.978 191.195,97.882 190.700 C 97.787 190.205,97.709 190.610,97.709 191.600 M126.893 192.000 C 126.893 192.770,126.975 193.085,127.076 192.700 C 127.176 192.315,127.176 191.685,127.076 191.300 C 126.975 190.915,126.893 191.230,126.893 192.000 M143.872 192.604 C 143.727 193.482,143.629 194.740,143.653 195.400 C 143.678 196.060,143.855 195.520,144.048 194.200 C 144.440 191.515,144.285 190.107,143.872 192.604 M209.309 192.800 C 209.309 193.790,209.387 194.195,209.482 193.700 C 209.578 193.205,209.578 192.395,209.482 191.900 C 209.387 191.405,209.309 191.810,209.309 192.800 M271.600 191.335 C 271.600 191.606,274.474 193.259,274.646 193.087 C 274.726 193.008,274.073 192.539,273.196 192.046 C 272.318 191.552,271.600 191.233,271.600 191.335 M300.227 194.705 C 299.046 196.078,298.780 196.518,299.563 195.800 C 300.750 194.713,302.639 192.393,302.327 192.405 C 302.257 192.408,301.312 193.443,300.227 194.705 M275.400 193.496 C 275.620 193.725,276.880 194.501,278.200 195.221 C 279.520 195.941,280.420 196.348,280.200 196.125 C 279.980 195.902,278.720 195.126,277.400 194.400 C 276.080 193.674,275.180 193.267,275.400 193.496 M97.293 195.600 C 97.293 196.370,97.375 196.685,97.476 196.300 C 97.576 195.915,97.576 195.285,97.476 194.900 C 97.375 194.515,97.293 194.830,97.293 195.600 M126.520 196.400 C 126.520 197.610,126.595 198.105,126.687 197.500 C 126.778 196.895,126.778 195.905,126.687 195.300 C 126.595 194.695,126.520 195.190,126.520 196.400 M208.688 196.967 C 208.545 198.354,208.672 199.757,209.041 200.867 C 209.509 202.275,209.565 202.337,209.338 201.200 C 209.184 200.430,209.100 198.675,209.150 197.300 C 209.263 194.226,208.991 194.030,208.688 196.967 M282.600 197.566 C 283.260 197.979,284.430 198.425,285.200 198.555 C 286.412 198.760,286.349 198.698,284.728 198.096 C 283.699 197.713,282.724 197.265,282.562 197.100 C 282.399 196.935,282.072 196.803,281.833 196.807 C 281.595 196.810,281.940 197.152,282.600 197.566 M96.658 199.959 C 96.507 201.586,96.461 202.995,96.557 203.090 C 96.806 203.339,97.321 198.163,97.110 197.530 C 97.013 197.239,96.810 198.332,96.658 199.959 M290.600 199.200 L 287.800 199.459 290.400 199.501 C 291.830 199.525,293.360 199.389,293.800 199.200 C 294.675 198.824,294.670 198.824,290.600 199.200 M142.901 202.600 C 142.905 203.480,142.987 203.793,143.083 203.295 C 143.179 202.798,143.175 202.078,143.075 201.695 C 142.975 201.313,142.896 201.720,142.901 202.600 M125.458 205.559 C 125.307 207.186,125.261 208.595,125.357 208.690 C 125.606 208.939,126.121 203.763,125.910 203.130 C 125.813 202.839,125.610 203.932,125.458 205.559 M96.101 205.400 C 96.105 206.280,96.187 206.593,96.283 206.095 C 96.379 205.598,96.375 204.878,96.275 204.495 C 96.175 204.113,96.096 204.520,96.101 205.400 M142.501 205.800 C 142.505 206.680,142.587 206.993,142.683 206.495 C 142.779 205.998,142.775 205.278,142.675 204.895 C 142.575 204.513,142.496 204.920,142.501 205.800 M95.454 209.056 C 95.026 212.183,95.226 217.314,95.834 218.800 C 96.325 219.999,96.364 220.028,96.104 219.000 C 95.937 218.340,95.812 215.415,95.826 212.500 C 95.854 206.643,95.824 206.360,95.454 209.056 M141.878 210.081 C 141.759 210.587,141.567 212.260,141.452 213.800 C 141.254 216.463,141.271 216.425,141.795 213.006 C 142.314 209.616,142.359 208.055,141.878 210.081 M124.914 211.400 C 124.917 212.500,124.995 212.903,125.087 212.295 C 125.179 211.686,125.177 210.786,125.082 210.295 C 124.987 209.803,124.911 210.300,124.914 211.400 M211.605 210.033 C 211.624 210.599,213.566 216.087,213.576 215.600 C 213.592 214.831,212.250 210.516,211.880 210.147 C 211.726 209.993,211.602 209.942,211.605 210.033 M124.314 215.000 C 124.164 215.880,123.939 217.050,123.813 217.600 C 123.687 218.150,123.864 217.880,124.207 217.000 C 124.550 216.120,124.776 214.950,124.709 214.400 C 124.615 213.634,124.523 213.774,124.314 215.000 M213.844 217.400 C 214.173 218.871,214.402 219.190,214.394 218.167 C 214.391 217.745,214.205 217.130,213.982 216.800 C 213.685 216.362,213.648 216.524,213.844 217.400 M140.672 219.004 C 140.527 219.882,140.430 221.230,140.455 222.000 C 140.484 222.878,140.629 222.430,140.844 220.800 C 141.224 217.915,141.087 216.489,140.672 219.004 M96.403 220.490 C 96.401 220.650,96.759 221.370,97.199 222.090 C 97.638 222.811,97.996 223.220,97.996 223.000 C 97.995 222.780,97.637 222.060,97.200 221.400 C 96.763 220.740,96.404 220.331,96.403 220.490 M121.385 222.500 C 120.768 223.435,120.520 223.989,120.832 223.731 C 121.433 223.234,122.964 220.800,122.676 220.800 C 122.583 220.800,122.002 221.565,121.385 222.500 M99.800 225.134 C 101.392 226.859,103.294 228.064,105.200 228.555 C 105.750 228.697,105.216 228.353,104.014 227.791 C 102.812 227.229,101.728 226.641,101.606 226.485 C 101.484 226.328,100.667 225.570,99.792 224.801 L 98.200 223.401 99.800 225.134 M118.680 225.776 C 117.844 226.515,116.584 227.404,115.880 227.751 C 115.176 228.098,114.838 228.386,115.128 228.391 C 115.775 228.402,118.721 226.403,119.762 225.247 C 120.868 224.018,120.424 224.236,118.680 225.776 M216.056 224.800 C 216.056 225.130,216.211 225.760,216.400 226.200 C 216.617 226.704,216.744 226.778,216.744 226.400 C 216.744 226.070,216.589 225.440,216.400 225.000 C 216.183 224.496,216.056 224.422,216.056 224.800 M139.701 229.400 C 139.705 230.280,139.787 230.593,139.883 230.095 C 139.979 229.598,139.975 228.878,139.875 228.495 C 139.775 228.113,139.696 228.520,139.701 229.400 M108.613 229.254 C 109.280 229.432,110.360 229.431,111.013 229.253 C 111.970 228.991,111.736 228.928,109.800 228.930 C 107.845 228.931,107.625 228.991,108.613 229.254 M139.293 232.400 C 139.293 233.170,139.375 233.485,139.476 233.100 C 139.576 232.715,139.576 232.085,139.476 231.700 C 139.375 231.315,139.293 231.630,139.293 232.400 M218.244 232.600 C 218.573 234.071,218.802 234.390,218.794 233.367 C 218.791 232.945,218.605 232.330,218.382 232.000 C 218.085 231.562,218.048 231.724,218.244 232.600 M218.863 234.600 C 218.862 234.820,219.103 235.630,219.400 236.400 C 219.697 237.170,219.945 237.530,219.952 237.200 C 219.958 236.870,219.717 236.060,219.414 235.400 C 219.112 234.740,218.864 234.380,218.863 234.600 M138.653 236.836 C 138.514 237.531,138.423 238.753,138.451 239.550 C 138.485 240.530,138.610 240.163,138.835 238.418 C 139.189 235.683,139.077 234.713,138.653 236.836 M220.456 239.600 C 220.456 239.930,220.611 240.560,220.800 241.000 C 221.017 241.504,221.144 241.578,221.144 241.200 C 221.144 240.870,220.989 240.240,220.800 239.800 C 220.583 239.296,220.456 239.222,220.456 239.600 M138.093 242.400 C 138.093 243.170,138.175 243.485,138.276 243.100 C 138.376 242.715,138.376 242.085,138.276 241.700 C 138.175 241.315,138.093 241.630,138.093 242.400 M137.392 246.538 C 137.239 247.969,137.194 249.378,137.293 249.670 C 137.391 249.961,137.603 248.878,137.764 247.261 C 137.925 245.645,137.969 244.236,137.863 244.130 C 137.757 244.024,137.545 245.108,137.392 246.538 M222.430 246.622 C 222.413 246.854,222.837 248.294,223.370 249.822 C 223.904 251.350,224.354 252.410,224.370 252.178 C 224.387 251.946,223.963 250.506,223.430 248.978 C 222.896 247.450,222.446 246.390,222.430 246.622 M224.644 254.200 C 224.973 255.671,225.202 255.990,225.194 254.967 C 225.191 254.545,225.005 253.930,224.782 253.600 C 224.485 253.162,224.448 253.324,224.644 254.200 M136.225 257.225 C 136.070 258.794,136.027 260.161,136.129 260.262 C 136.231 260.364,136.443 259.166,136.600 257.600 C 136.757 256.034,136.800 254.667,136.696 254.563 C 136.592 254.458,136.380 255.656,136.225 257.225 M225.851 258.362 C 226.117 259.875,227.529 264.030,227.563 263.400 C 227.575 263.180,227.141 261.650,226.598 260.000 C 226.056 258.350,225.720 257.613,225.851 258.362 M181.225 262.340 C 180.959 262.981,180.816 264.111,180.907 264.853 L 181.072 266.200 181.136 264.674 C 181.171 263.834,181.395 262.784,181.632 262.339 C 181.870 261.895,181.984 261.451,181.886 261.353 C 181.788 261.255,181.490 261.699,181.225 262.340 M135.449 263.415 C 135.312 263.773,135.224 264.906,135.252 265.933 C 135.305 267.788,135.307 267.785,135.613 265.400 C 135.932 262.918,135.880 262.292,135.449 263.415 M228.068 265.800 C 228.062 266.240,228.211 266.960,228.400 267.400 C 228.838 268.419,228.838 267.368,228.400 266.000 C 228.143 265.196,228.077 265.157,228.068 265.800 M183.256 267.600 C 183.256 267.930,183.411 268.560,183.600 269.000 C 183.817 269.504,183.944 269.578,183.944 269.200 C 183.944 268.870,183.789 268.240,183.600 267.800 C 183.383 267.296,183.256 267.222,183.256 267.600 M228.839 268.538 C 228.776 269.084,230.475 274.458,230.654 274.279 C 230.744 274.189,230.382 272.784,229.848 271.158 C 229.315 269.531,228.861 268.352,228.839 268.538 M180.063 270.600 C 180.023 271.260,179.904 272.520,179.797 273.400 L 179.603 275.000 180.023 273.660 C 180.254 272.923,180.374 271.663,180.289 270.860 C 180.152 269.566,180.126 269.537,180.063 270.600 M134.240 273.440 C 134.090 274.903,134.049 276.182,134.148 276.282 C 134.248 276.381,134.457 275.271,134.613 273.813 C 134.769 272.356,134.811 271.077,134.705 270.972 C 134.599 270.866,134.390 271.977,134.240 273.440 M184.406 271.433 C 184.409 271.855,184.595 272.470,184.818 272.800 C 185.115 273.238,185.152 273.076,184.956 272.200 C 184.627 270.729,184.398 270.410,184.406 271.433 M185.444 275.000 C 185.773 276.471,186.002 276.790,185.994 275.767 C 185.991 275.345,185.805 274.730,185.582 274.400 C 185.285 273.962,185.248 274.124,185.444 275.000 M231.044 276.000 C 231.180 276.770,231.454 277.670,231.651 278.000 C 232.077 278.710,231.668 276.637,231.139 275.400 C 230.908 274.860,230.877 275.056,231.044 276.000 M179.293 278.400 C 179.293 279.170,179.375 279.485,179.476 279.100 C 179.576 278.715,179.576 278.085,179.476 277.700 C 179.375 277.315,179.293 277.630,179.293 278.400 M186.406 278.633 C 186.409 279.055,186.595 279.670,186.818 280.000 C 187.115 280.438,187.152 280.276,186.956 279.400 C 186.627 277.929,186.398 277.610,186.406 278.633 M178.920 282.400 C 178.920 283.610,178.995 284.105,179.087 283.500 C 179.178 282.895,179.178 281.905,179.087 281.300 C 178.995 280.695,178.920 281.190,178.920 282.400 M133.029 283.629 C 132.876 284.979,132.833 286.166,132.933 286.267 C 133.034 286.367,133.244 285.347,133.400 284.000 C 133.556 282.653,133.599 281.466,133.495 281.362 C 133.391 281.258,133.181 282.278,133.029 283.629 M232.856 282.400 C 232.856 282.730,233.011 283.360,233.200 283.800 C 233.417 284.304,233.544 284.378,233.544 284.000 C 233.544 283.670,233.389 283.040,233.200 282.600 C 232.983 282.096,232.856 282.022,232.856 282.400 M188.456 285.200 C 188.456 285.530,188.611 286.160,188.800 286.600 C 189.017 287.104,189.144 287.178,189.144 286.800 C 189.144 286.470,188.989 285.840,188.800 285.400 C 188.583 284.896,188.456 284.822,188.456 285.200 M177.835 291.035 C 177.683 292.716,177.641 294.174,177.742 294.276 C 177.843 294.377,178.055 293.088,178.212 291.412 C 178.369 289.736,178.411 288.277,178.305 288.171 C 178.199 288.066,177.988 289.354,177.835 291.035 M132.259 290.288 C 132.121 291.119,132.030 292.520,132.056 293.400 C 132.087 294.447,132.223 293.973,132.448 292.030 C 132.811 288.896,132.683 287.719,132.259 290.288 M189.668 289.400 C 189.662 289.840,189.811 290.560,190.000 291.000 C 190.438 292.019,190.438 290.968,190.000 289.600 C 189.743 288.796,189.677 288.757,189.668 289.400 M190.619 293.001 C 190.775 293.660,191.057 294.368,191.245 294.573 C 191.432 294.778,191.415 294.349,191.205 293.619 C 190.718 291.918,190.244 291.419,190.619 293.001 M236.063 293.400 C 236.062 293.620,236.303 294.430,236.600 295.200 C 236.897 295.970,237.145 296.330,237.152 296.000 C 237.158 295.670,236.917 294.860,236.614 294.200 C 236.312 293.540,236.064 293.180,236.063 293.400 M130.678 297.420 C 129.209 300.414,129.345 300.769,130.846 297.860 C 131.510 296.573,131.986 295.453,131.904 295.371 C 131.823 295.289,131.271 296.211,130.678 297.420 M191.606 296.233 C 191.609 296.655,191.795 297.270,192.018 297.600 C 192.315 298.038,192.352 297.876,192.156 297.000 C 191.827 295.529,191.598 295.210,191.606 296.233 M176.854 299.067 C 176.825 299.544,176.696 300.264,176.570 300.667 C 176.352 301.361,176.364 301.362,176.796 300.688 C 177.047 300.297,177.175 299.577,177.081 299.088 C 176.909 298.201,176.909 298.201,176.854 299.067 M192.806 300.633 C 192.809 301.055,192.995 301.670,193.218 302.000 C 193.515 302.438,193.552 302.276,193.356 301.400 C 193.027 299.929,192.798 299.610,192.806 300.633 M127.478 304.620 C 126.009 307.614,126.145 307.969,127.646 305.060 C 128.310 303.773,128.786 302.653,128.704 302.571 C 128.623 302.489,128.071 303.411,127.478 304.620 M239.656 305.600 C 239.656 305.930,239.811 306.560,240.000 307.000 C 240.217 307.504,240.344 307.578,240.344 307.200 C 240.344 306.870,240.189 306.240,240.000 305.800 C 239.783 305.296,239.656 305.222,239.656 305.600 M194.856 307.200 C 194.856 307.530,195.011 308.160,195.200 308.600 C 195.417 309.104,195.544 309.178,195.544 308.800 C 195.544 308.470,195.389 307.840,195.200 307.400 C 194.983 306.896,194.856 306.822,194.856 307.200 M240.439 308.000 C 240.424 308.110,240.667 309.010,240.979 310.000 C 241.291 310.990,241.550 311.440,241.555 311.000 C 241.563 310.303,240.508 307.471,240.439 308.000 M124.075 312.219 C 122.870 314.700,123.005 315.047,124.246 312.661 C 124.801 311.594,125.187 310.653,125.103 310.570 C 125.019 310.486,124.557 311.228,124.075 312.219 M196.861 314.400 C 196.861 314.730,197.103 315.630,197.400 316.400 C 197.697 317.170,197.939 317.530,197.939 317.200 C 197.939 316.870,197.697 315.970,197.400 315.200 C 197.103 314.430,196.861 314.070,196.861 314.400 M120.875 319.419 C 119.670 321.900,119.805 322.247,121.046 319.861 C 121.601 318.794,121.987 317.853,121.903 317.770 C 121.819 317.686,121.357 318.428,120.875 319.419 M198.254 319.000 C 198.674 320.903,199.248 322.046,198.956 320.400 C 198.820 319.630,198.546 318.730,198.349 318.400 C 198.114 318.008,198.081 318.216,198.254 319.000 M243.663 319.400 C 243.662 319.620,243.903 320.430,244.200 321.200 C 244.497 321.970,244.745 322.330,244.752 322.000 C 244.758 321.670,244.517 320.860,244.214 320.200 C 243.912 319.540,243.664 319.180,243.663 319.400 M166.653 323.797 C 165.219 326.826,165.354 327.150,166.846 324.260 C 167.510 322.973,167.975 321.842,167.880 321.747 C 167.784 321.651,167.232 322.574,166.653 323.797 M245.044 323.800 C 245.373 325.271,245.602 325.590,245.594 324.567 C 245.591 324.145,245.405 323.530,245.182 323.200 C 244.885 322.762,244.848 322.924,245.044 323.800 M117.081 327.821 C 116.266 329.467,115.609 330.945,115.620 331.107 C 115.631 331.268,116.362 329.986,117.246 328.259 C 118.129 326.531,118.786 325.053,118.706 324.973 C 118.627 324.893,117.895 326.175,117.081 327.821 M200.456 326.800 C 200.456 327.130,200.611 327.760,200.800 328.200 C 201.017 328.704,201.144 328.778,201.144 328.400 C 201.144 328.070,200.989 327.440,200.800 327.000 C 200.583 326.496,200.456 326.422,200.456 326.800 M201.448 330.200 C 201.591 330.860,201.866 331.670,202.059 332.000 C 202.284 332.384,202.318 332.168,202.152 331.400 C 202.009 330.740,201.734 329.930,201.541 329.600 C 201.316 329.216,201.282 329.432,201.448 330.200 M202.468 333.200 C 202.488 334.239,203.118 335.946,203.132 335.000 C 203.138 334.560,202.989 333.840,202.800 333.400 C 202.589 332.910,202.461 332.832,202.468 333.200 M248.244 334.600 C 248.573 336.071,248.802 336.390,248.794 335.367 C 248.791 334.945,248.605 334.330,248.382 334.000 C 248.085 333.562,248.048 333.724,248.244 334.600 M113.275 336.219 C 112.070 338.700,112.205 339.047,113.446 336.661 C 114.001 335.594,114.387 334.653,114.303 334.570 C 114.219 334.486,113.757 335.228,113.275 336.219 M203.606 337.833 C 203.609 338.255,203.795 338.870,204.018 339.200 C 204.315 339.638,204.352 339.476,204.156 338.600 C 203.827 337.129,203.598 336.810,203.606 337.833 M249.206 338.233 C 249.209 338.655,249.395 339.270,249.618 339.600 C 249.915 340.038,249.952 339.876,249.756 339.000 C 249.427 337.529,249.198 337.210,249.206 338.233 M159.491 339.891 C 158.623 341.805,158.886 342.069,159.782 340.182 C 160.159 339.386,160.398 338.665,160.312 338.579 C 160.226 338.493,159.857 339.084,159.491 339.891 M110.075 343.419 C 108.870 345.900,109.005 346.247,110.246 343.861 C 110.801 342.794,111.187 341.853,111.103 341.770 C 111.019 341.686,110.557 342.428,110.075 343.419 M250.406 342.633 C 250.409 343.055,250.595 343.670,250.818 344.000 C 251.115 344.438,251.152 344.276,250.956 343.400 C 250.627 341.929,250.398 341.610,250.406 342.633 M205.656 344.400 C 205.656 344.730,205.811 345.360,206.000 345.800 C 206.217 346.304,206.344 346.378,206.344 346.000 C 206.344 345.670,206.189 345.040,206.000 344.600 C 205.783 344.096,205.656 344.022,205.656 344.400 M156.291 347.091 C 155.423 349.005,155.686 349.269,156.582 347.382 C 156.959 346.586,157.198 345.865,157.112 345.779 C 157.026 345.693,156.657 346.284,156.291 347.091 M206.806 349.033 C 206.809 349.455,206.995 350.070,207.218 350.400 C 207.515 350.838,207.552 350.676,207.356 349.800 C 207.027 348.329,206.798 348.010,206.806 349.033 M106.875 350.619 C 105.670 353.100,105.805 353.447,107.046 351.061 C 107.601 349.994,107.987 349.053,107.903 348.970 C 107.819 348.886,107.357 349.628,106.875 350.619 M207.648 351.600 C 207.642 351.930,207.883 352.740,208.186 353.400 C 208.893 354.945,208.903 354.226,208.200 352.400 C 207.903 351.630,207.655 351.270,207.648 351.600 M253.263 352.200 C 253.262 352.420,253.503 353.230,253.800 354.000 C 254.097 354.770,254.345 355.130,254.352 354.800 C 254.358 354.470,254.117 353.660,253.814 353.000 C 253.512 352.340,253.264 351.980,253.263 352.200 M153.215 353.898 C 152.159 356.158,151.595 357.600,151.765 357.600 C 152.014 357.600,154.042 353.109,153.871 352.937 C 153.793 352.860,153.498 353.292,153.215 353.898 M208.856 355.200 C 208.856 355.530,209.011 356.160,209.200 356.600 C 209.417 357.104,209.544 357.178,209.544 356.800 C 209.544 356.470,209.389 355.840,209.200 355.400 C 208.983 354.896,208.856 354.822,208.856 355.200 M103.280 358.620 C 102.576 360.048,102.009 361.347,102.020 361.508 C 102.030 361.668,102.672 360.567,103.446 359.059 C 104.219 357.552,104.786 356.253,104.706 356.172 C 104.625 356.092,103.983 357.193,103.280 358.620 M255.656 360.000 C 255.656 360.330,255.811 360.960,256.000 361.400 C 256.217 361.904,256.344 361.978,256.344 361.600 C 256.344 361.270,256.189 360.640,256.000 360.200 C 255.783 359.696,255.656 359.622,255.656 360.000 M210.806 362.633 C 210.809 363.055,210.995 363.670,211.218 364.000 C 211.515 364.438,211.552 364.276,211.356 363.400 C 211.027 361.929,210.798 361.610,210.806 362.633 M256.856 364.400 C 256.856 364.730,257.011 365.360,257.200 365.800 C 257.417 366.304,257.544 366.378,257.544 366.000 C 257.544 365.670,257.389 365.040,257.200 364.600 C 256.983 364.096,256.856 364.022,256.856 364.400 M99.478 367.020 C 98.885 368.229,98.400 369.439,98.400 369.709 C 98.400 369.979,98.945 369.049,99.610 367.643 C 100.275 366.237,100.760 365.027,100.688 364.954 C 100.615 364.882,100.071 365.811,99.478 367.020 M212.056 366.400 C 212.056 366.730,212.211 367.360,212.400 367.800 C 212.617 368.304,212.744 368.378,212.744 368.000 C 212.744 367.670,212.589 367.040,212.400 366.600 C 212.183 366.096,212.056 366.022,212.056 366.400 M257.854 367.800 C 258.274 369.703,258.848 370.846,258.556 369.200 C 258.420 368.430,258.146 367.530,257.949 367.200 C 257.714 366.808,257.681 367.016,257.854 367.800 M146.865 368.217 C 146.195 369.688,146.323 370.002,147.047 368.665 C 147.386 368.040,147.588 367.454,147.496 367.363 C 147.405 367.271,147.121 367.656,146.865 368.217 M97.293 375.600 C 97.293 376.370,97.375 376.685,97.476 376.300 C 97.576 375.915,97.576 375.285,97.476 374.900 C 97.375 374.515,97.293 374.830,97.293 375.600 M96.901 378.600 C 96.905 379.480,96.987 379.793,97.083 379.295 C 97.179 378.798,97.175 378.078,97.075 377.695 C 96.975 377.313,96.896 377.720,96.901 378.600 M215.248 377.600 C 215.242 377.930,215.483 378.740,215.786 379.400 C 216.493 380.945,216.503 380.226,215.800 378.400 C 215.503 377.630,215.255 377.270,215.248 377.600 M260.109 380.800 C 260.109 381.790,260.187 382.195,260.282 381.700 C 260.378 381.205,260.378 380.395,260.282 379.900 C 260.187 379.405,260.109 379.810,260.109 380.800 M141.265 380.617 C 140.595 382.088,140.723 382.402,141.447 381.065 C 141.786 380.440,141.988 379.854,141.896 379.763 C 141.805 379.671,141.521 380.056,141.265 380.617 M97.293 382.000 C 97.293 382.770,97.375 383.085,97.476 382.700 C 97.576 382.315,97.576 381.685,97.476 381.300 C 97.375 380.915,97.293 381.230,97.293 382.000 M217.418 385.300 C 217.568 385.795,217.855 386.376,218.056 386.591 C 218.257 386.806,218.219 386.401,217.972 385.691 C 217.465 384.238,216.997 383.908,217.418 385.300 M99.200 388.800 C 99.649 389.680,100.106 390.400,100.216 390.400 C 100.326 390.400,100.049 389.680,99.600 388.800 C 99.151 387.920,98.694 387.200,98.584 387.200 C 98.474 387.200,98.751 387.920,99.200 388.800 M135.952 391.289 C 135.690 391.779,134.565 393.174,133.452 394.389 L 131.427 396.600 133.427 394.700 C 135.234 392.984,137.162 390.400,136.637 390.400 C 136.522 390.400,136.214 390.800,135.952 391.289 M100.788 391.511 C 101.859 393.669,109.600 399.907,109.600 398.613 C 109.600 398.503,108.745 397.972,107.700 397.433 C 105.694 396.398,103.316 394.329,101.454 392.000 C 100.839 391.230,100.539 391.010,100.788 391.511 M253.272 394.042 C 251.662 395.591,250.672 396.678,251.072 396.458 C 251.805 396.055,256.736 391.189,256.387 391.213 C 256.284 391.220,254.882 392.493,253.272 394.042 M223.000 394.400 C 224.083 395.500,225.060 396.400,225.170 396.400 C 225.280 396.400,224.483 395.500,223.400 394.400 C 222.317 393.300,221.340 392.400,221.230 392.400 C 221.120 392.400,221.917 393.300,223.000 394.400 M249.000 397.293 C 248.560 397.551,247.210 398.171,246.000 398.671 C 244.790 399.172,244.070 399.585,244.400 399.590 C 245.089 399.601,250.000 397.344,250.000 397.017 C 250.000 396.728,249.933 396.747,249.000 397.293 M125.600 399.025 C 124.709 399.362,124.491 399.558,125.000 399.563 C 125.440 399.568,126.250 399.314,126.800 399.000 C 128.022 398.301,127.483 398.313,125.600 399.025 " stroke="none" fill="#9f9fa1" fill-rule="evenodd"></path><path id="path4" d="M184.800 0.400 C 183.820 0.714,183.824 0.721,185.000 0.754 C 185.660 0.773,186.470 0.613,186.800 0.400 C 187.558 -0.090,186.330 -0.090,184.800 0.400 M192.000 0.400 C 192.550 0.576,193.630 0.720,194.400 0.720 C 195.667 0.720,195.705 0.690,194.800 0.400 C 194.250 0.224,193.170 0.080,192.400 0.080 C 191.133 0.080,191.095 0.110,192.000 0.400 M196.400 1.149 C 196.730 1.346,197.630 1.620,198.400 1.756 C 199.344 1.923,199.540 1.892,199.000 1.661 C 197.763 1.132,195.690 0.723,196.400 1.149 M200.800 2.600 C 201.350 2.914,201.980 3.172,202.200 3.172 C 202.420 3.172,202.150 2.914,201.600 2.600 C 201.050 2.286,200.420 2.028,200.200 2.028 C 199.980 2.028,200.250 2.286,200.800 2.600 M208.200 6.951 C 209.300 7.959,210.365 8.787,210.567 8.792 C 210.768 8.796,210.858 8.746,210.767 8.681 C 210.675 8.615,209.610 7.787,208.400 6.840 L 206.200 5.119 208.200 6.951 M167.469 9.554 C 165.781 11.289,164.400 12.849,164.400 13.021 C 164.400 13.193,164.450 13.258,164.512 13.167 C 164.573 13.075,166.044 11.515,167.781 9.700 C 169.518 7.885,170.849 6.400,170.739 6.400 C 170.629 6.400,169.158 7.819,167.469 9.554 M212.605 11.300 C 213.676 12.565,214.621 13.600,214.704 13.600 C 215.027 13.600,213.205 11.338,211.965 10.200 C 211.125 9.429,211.354 9.823,212.605 11.300 M163.317 14.500 C 162.450 15.447,161.038 18.000,161.379 18.000 C 161.489 18.000,161.875 17.415,162.237 16.700 C 162.598 15.985,163.264 14.995,163.717 14.500 C 164.169 14.005,164.449 13.600,164.339 13.600 C 164.229 13.600,163.769 14.005,163.317 14.500 M215.630 15.400 C 216.124 16.280,216.700 17.180,216.910 17.400 C 217.509 18.028,216.139 15.494,215.396 14.600 C 215.030 14.160,215.135 14.520,215.630 15.400 M219.473 24.800 C 219.921 27.228,220.407 28.380,220.147 26.400 C 220.016 25.410,219.753 24.330,219.562 24.000 C 219.346 23.629,219.312 23.933,219.473 24.800 M158.440 25.440 C 158.210 26.273,158.094 27.027,158.182 27.115 C 158.270 27.203,158.530 26.593,158.760 25.760 C 158.990 24.927,159.106 24.173,159.018 24.085 C 158.930 23.997,158.670 24.607,158.440 25.440 M220.534 32.400 C 220.534 34.050,220.605 34.725,220.691 33.900 C 220.778 33.075,220.778 31.725,220.691 30.900 C 220.605 30.075,220.534 30.750,220.534 32.400 M157.724 33.000 C 157.726 34.320,157.801 34.812,157.890 34.093 C 157.979 33.374,157.977 32.294,157.886 31.693 C 157.795 31.092,157.722 31.680,157.724 33.000 M219.600 39.600 C 219.351 40.524,219.226 41.359,219.321 41.455 C 219.417 41.550,219.690 40.863,219.927 39.927 C 220.165 38.991,220.290 38.157,220.206 38.073 C 220.122 37.988,219.849 38.676,219.600 39.600 M158.248 39.800 C 158.391 40.460,158.666 41.270,158.859 41.600 C 159.084 41.984,159.118 41.768,158.952 41.000 C 158.809 40.340,158.534 39.530,158.341 39.200 C 158.116 38.816,158.082 39.032,158.248 39.800 M218.629 43.029 C 218.481 43.615,218.438 44.172,218.532 44.266 C 218.627 44.360,218.824 43.958,218.971 43.371 C 219.119 42.785,219.162 42.228,219.068 42.134 C 218.973 42.040,218.776 42.442,218.629 43.029 M161.843 48.730 C 162.259 49.462,163.103 50.632,163.717 51.330 C 164.524 52.248,164.421 51.990,163.346 50.400 C 161.538 47.726,160.815 46.923,161.843 48.730 M215.293 49.900 C 214.257 51.396,213.921 52.000,214.123 52.000 C 214.217 52.000,214.770 51.280,215.353 50.400 C 216.536 48.612,216.484 48.179,215.293 49.900 M210.200 55.770 C 208.440 57.556,207.540 58.566,208.200 58.015 C 210.523 56.075,212.866 53.792,213.245 53.100 C 213.769 52.142,213.804 52.112,210.200 55.770 M166.383 54.500 C 168.041 56.266,168.400 56.584,168.400 56.283 C 168.400 56.219,167.545 55.364,166.500 54.383 L 164.600 52.600 166.383 54.500 M170.973 58.499 C 171.868 59.323,172.749 59.998,172.931 59.999 C 173.113 60.000,172.663 59.516,171.931 58.924 C 169.688 57.112,169.263 56.923,170.973 58.499 M202.400 61.262 C 201.190 61.915,200.650 62.327,201.200 62.179 C 202.230 61.901,204.800 60.465,204.800 60.167 C 204.800 59.954,204.967 59.878,202.400 61.262 M175.200 60.979 C 175.200 61.089,175.740 61.459,176.400 61.800 C 177.060 62.141,177.600 62.331,177.600 62.221 C 177.600 62.111,177.060 61.741,176.400 61.400 C 175.740 61.059,175.200 60.869,175.200 60.979 M181.800 63.600 C 182.240 63.789,182.870 63.944,183.200 63.944 C 183.578 63.944,183.504 63.817,183.000 63.600 C 182.560 63.411,181.930 63.256,181.600 63.256 C 181.222 63.256,181.296 63.383,181.800 63.600 M187.312 64.295 C 188.364 64.377,189.984 64.376,190.912 64.292 C 191.840 64.208,190.980 64.141,189.000 64.142 C 187.020 64.143,186.260 64.212,187.312 64.295 M185.107 72.290 C 185.826 72.379,186.906 72.377,187.507 72.286 C 188.108 72.195,187.520 72.122,186.200 72.124 C 184.880 72.126,184.388 72.201,185.107 72.290 M172.900 75.212 C 171.745 75.874,170.800 76.504,170.800 76.612 C 170.800 76.769,174.955 74.606,175.567 74.130 C 176.325 73.539,174.586 74.245,172.900 75.212 M197.233 74.139 C 197.731 74.555,203.336 77.213,203.000 76.874 C 202.527 76.397,197.843 74.000,197.384 74.000 C 197.209 74.000,197.142 74.063,197.233 74.139 M166.200 79.835 L 165.000 80.866 166.300 80.006 C 167.015 79.533,167.600 79.068,167.600 78.973 C 167.600 78.673,167.431 78.778,166.200 79.835 M208.886 81.825 C 210.364 83.351,211.970 85.140,212.455 85.800 C 213.670 87.453,214.180 87.955,213.674 87.000 C 212.976 85.683,209.513 81.771,207.800 80.364 C 206.862 79.593,207.311 80.197,208.886 81.825 M159.625 86.169 L 158.250 87.800 159.805 86.313 C 160.660 85.496,161.279 84.762,161.180 84.683 C 161.081 84.603,160.381 85.272,159.625 86.169 M156.378 89.500 L 155.000 91.000 156.500 89.622 C 157.325 88.863,158.000 88.188,158.000 88.122 C 158.000 87.816,157.662 88.104,156.378 89.500 M216.431 91.927 C 217.140 93.067,217.794 94.000,217.885 94.000 C 218.173 94.000,216.253 90.776,215.685 90.304 C 215.387 90.057,215.722 90.787,216.431 91.927 M152.378 93.500 L 151.000 95.000 152.500 93.622 C 153.325 92.863,154.000 92.188,154.000 92.122 C 154.000 91.816,153.662 92.104,152.378 93.500 M141.584 104.303 C 136.643 109.309,132.156 113.944,131.613 114.603 C 131.070 115.261,132.420 113.979,134.613 111.753 C 136.806 109.527,141.378 104.892,144.773 101.453 C 148.168 98.014,150.860 95.200,150.756 95.200 C 150.653 95.200,146.525 99.296,141.584 104.303 M221.306 99.736 C 222.458 101.593,223.727 103.537,224.127 104.056 C 224.606 104.678,224.567 104.522,224.014 103.600 C 223.552 102.830,222.457 100.994,221.581 99.520 C 220.705 98.046,219.813 96.732,219.600 96.600 C 219.386 96.468,220.154 97.879,221.306 99.736 M225.594 106.700 C 226.059 107.525,226.812 108.650,227.267 109.200 L 228.095 110.200 227.395 109.035 C 227.011 108.394,226.341 107.269,225.908 106.535 C 224.825 104.698,224.548 104.844,225.594 106.700 M229.531 113.052 C 230.415 114.664,231.307 115.541,230.622 114.125 C 230.283 113.424,229.806 112.728,229.563 112.577 C 229.246 112.381,229.237 112.516,229.531 113.052 M125.792 120.500 L 121.800 124.600 125.900 120.608 C 129.708 116.899,130.182 116.400,129.892 116.400 C 129.833 116.400,127.988 118.245,125.792 120.500 M232.523 117.829 C 232.866 118.505,233.451 119.310,233.822 119.618 C 234.193 119.926,234.015 119.468,233.426 118.600 C 232.033 116.548,231.748 116.305,232.523 117.829 M236.028 123.500 C 236.519 124.325,237.274 125.360,237.706 125.800 C 238.138 126.240,237.815 125.565,236.989 124.300 C 235.311 121.731,234.644 121.176,236.028 123.500 M119.781 126.500 L 118.200 128.200 119.900 126.619 C 121.481 125.148,121.784 124.800,121.481 124.800 C 121.416 124.800,120.651 125.565,119.781 126.500 M239.387 128.775 C 239.721 129.421,240.176 130.061,240.398 130.199 C 240.620 130.336,240.423 129.807,239.961 129.024 C 238.948 127.307,238.535 127.128,239.387 128.775 M116.378 129.899 L 115.000 131.398 116.400 130.202 C 117.170 129.544,117.971 128.870,118.180 128.703 C 118.416 128.515,118.408 128.400,118.158 128.400 C 117.938 128.400,117.137 129.075,116.378 129.899 M244.839 137.376 C 245.301 138.159,245.756 138.800,245.850 138.800 C 246.134 138.800,244.836 136.469,244.402 136.201 C 244.180 136.064,244.377 136.593,244.839 137.376 M107.500 138.977 C 106.455 140.168,105.600 141.242,105.600 141.363 C 105.600 141.582,108.148 138.818,109.160 137.500 C 110.273 136.051,109.330 136.890,107.500 138.977 M149.413 139.985 C 148.718 140.753,148.726 140.760,149.748 140.285 C 150.323 140.018,150.795 139.665,150.797 139.500 C 150.803 138.954,150.135 139.188,149.413 139.985 M246.256 139.700 C 248.391 143.223,250.582 146.312,249.589 144.400 C 248.872 143.019,246.324 139.200,246.120 139.200 C 246.028 139.200,246.089 139.425,246.256 139.700 M146.175 143.300 L 145.000 144.600 146.300 143.425 C 147.512 142.330,147.784 142.000,147.475 142.000 C 147.406 142.000,146.821 142.585,146.175 143.300 M214.006 143.500 C 214.011 144.004,214.102 144.059,214.332 143.696 C 214.720 143.085,215.957 144.309,216.963 146.300 C 217.325 147.015,217.711 147.600,217.821 147.600 C 218.208 147.600,216.696 144.986,215.679 143.900 C 214.490 142.629,213.997 142.511,214.006 143.500 M150.101 145.800 C 150.105 146.680,150.187 146.993,150.283 146.495 C 150.379 145.998,150.375 145.278,150.275 144.895 C 150.175 144.513,150.096 144.920,150.101 145.800 M142.975 146.500 L 141.800 147.800 143.100 146.625 C 143.815 145.979,144.400 145.394,144.400 145.325 C 144.400 145.016,144.070 145.288,142.975 146.500 M103.429 146.629 C 103.281 147.215,103.238 147.772,103.332 147.866 C 103.427 147.960,103.624 147.558,103.771 146.971 C 103.919 146.385,103.962 145.828,103.868 145.734 C 103.773 145.640,103.576 146.042,103.429 146.629 M250.400 146.584 C 250.400 146.694,251.120 147.151,252.000 147.600 C 252.880 148.049,253.600 148.326,253.600 148.216 C 253.600 148.106,252.880 147.649,252.000 147.200 C 251.120 146.751,250.400 146.474,250.400 146.584 M149.693 148.800 C 149.693 149.570,149.775 149.885,149.876 149.500 C 149.976 149.115,149.976 148.485,149.876 148.100 C 149.775 147.715,149.693 148.030,149.693 148.800 M213.385 149.785 C 213.230 151.023,213.190 152.123,213.295 152.229 C 213.401 152.334,213.607 151.401,213.754 150.154 C 213.900 148.907,213.941 147.807,213.843 147.710 C 213.746 147.612,213.539 148.546,213.385 149.785 M254.000 148.579 C 254.000 148.689,254.540 149.059,255.200 149.400 C 255.860 149.741,256.400 149.931,256.400 149.821 C 256.400 149.711,255.860 149.341,255.200 149.000 C 254.540 148.659,254.000 148.469,254.000 148.579 M102.666 151.168 C 102.519 152.578,102.474 153.807,102.566 153.900 C 102.814 154.147,103.315 149.746,103.110 149.130 C 103.013 148.840,102.814 149.757,102.666 151.168 M219.549 150.200 C 219.765 150.640,220.234 151.360,220.593 151.800 L 221.244 152.600 220.851 151.800 C 220.635 151.360,220.166 150.640,219.807 150.200 L 219.156 149.400 219.549 150.200 M149.293 152.800 C 149.293 153.570,149.375 153.885,149.476 153.500 C 149.576 153.115,149.576 152.485,149.476 152.100 C 149.375 151.715,149.293 152.030,149.293 152.800 M148.666 156.768 C 148.519 158.178,148.474 159.407,148.566 159.500 C 148.814 159.747,149.315 155.346,149.110 154.730 C 149.013 154.440,148.814 155.357,148.666 156.768 M266.229 155.246 C 266.483 155.658,270.400 157.715,270.400 157.437 C 270.400 157.340,269.410 156.724,268.200 156.069 C 266.990 155.413,266.103 155.043,266.229 155.246 M102.093 156.800 C 102.093 157.570,102.175 157.885,102.276 157.500 C 102.376 157.115,102.376 156.485,102.276 156.100 C 102.175 155.715,102.093 156.030,102.093 156.800 M212.514 158.200 C 212.517 159.300,212.595 159.703,212.687 159.095 C 212.779 158.486,212.777 157.586,212.682 157.095 C 212.587 156.603,212.511 157.100,212.514 158.200 M224.749 158.600 C 224.965 159.040,225.434 159.760,225.793 160.200 L 226.444 161.000 226.051 160.200 C 225.835 159.760,225.366 159.040,225.007 158.600 L 224.356 157.800 224.749 158.600 M272.600 158.596 C 273.494 159.339,276.028 160.709,275.400 160.110 C 275.180 159.900,274.280 159.324,273.400 158.830 C 272.520 158.335,272.160 158.230,272.600 158.596 M129.693 162.000 C 129.693 162.770,129.775 163.085,129.876 162.700 C 129.976 162.315,129.976 161.685,129.876 161.300 C 129.775 160.915,129.693 161.230,129.693 162.000 M148.093 162.000 C 148.093 162.770,148.175 163.085,148.276 162.700 C 148.376 162.315,148.376 161.685,148.276 161.300 C 148.175 160.915,148.093 161.230,148.093 162.000 M277.800 161.484 C 278.020 161.709,279.460 162.575,281.000 163.409 C 282.540 164.243,283.620 164.741,283.400 164.516 C 283.180 164.291,281.740 163.425,280.200 162.591 C 278.660 161.757,277.580 161.259,277.800 161.484 M228.258 164.300 C 228.651 165.015,229.872 166.455,230.971 167.500 L 232.969 169.400 231.178 167.400 C 230.193 166.300,228.972 164.860,228.465 164.200 L 227.543 163.000 228.258 164.300 M147.693 164.800 C 147.693 165.570,147.775 165.885,147.876 165.500 C 147.976 165.115,147.976 164.485,147.876 164.100 C 147.775 163.715,147.693 164.030,147.693 164.800 M211.701 165.400 C 211.705 166.280,211.787 166.593,211.883 166.095 C 211.979 165.598,211.975 164.878,211.875 164.495 C 211.775 164.113,211.696 164.520,211.701 165.400 M285.600 165.735 C 285.600 166.006,288.474 167.659,288.646 167.487 C 288.726 167.408,288.073 166.939,287.196 166.446 C 286.318 165.952,285.600 165.633,285.600 165.735 M100.901 167.800 C 100.905 168.680,100.987 168.993,101.083 168.495 C 101.179 167.998,101.175 167.278,101.075 166.895 C 100.975 166.513,100.896 166.920,100.901 167.800 M129.053 168.036 C 128.914 168.731,128.823 169.953,128.851 170.750 C 128.885 171.730,129.010 171.363,129.235 169.618 C 129.589 166.883,129.477 165.913,129.053 168.036 M233.400 169.490 C 233.620 169.700,234.520 170.276,235.400 170.770 C 236.280 171.265,236.640 171.370,236.200 171.004 C 235.306 170.261,232.772 168.891,233.400 169.490 M292.800 169.779 C 292.800 169.889,293.340 170.259,294.000 170.600 C 294.660 170.941,295.200 171.131,295.200 171.021 C 295.200 170.911,294.660 170.541,294.000 170.200 C 293.340 169.859,292.800 169.669,292.800 169.779 M146.901 172.600 C 146.905 173.480,146.987 173.793,147.083 173.295 C 147.179 172.798,147.175 172.078,147.075 171.695 C 146.975 171.313,146.896 171.720,146.901 172.600 M210.901 173.000 C 210.905 173.880,210.987 174.193,211.083 173.695 C 211.179 173.198,211.175 172.478,211.075 172.095 C 210.975 171.713,210.896 172.120,210.901 173.000 M297.962 172.526 C 298.582 173.304,301.600 175.768,301.600 175.496 C 301.600 175.402,300.655 174.537,299.500 173.574 C 298.345 172.610,297.653 172.139,297.962 172.526 M128.493 173.600 C 128.493 174.370,128.575 174.685,128.676 174.300 C 128.776 173.915,128.776 173.285,128.676 172.900 C 128.575 172.515,128.493 172.830,128.493 173.600 M238.800 172.558 C 238.800 172.653,239.614 173.187,240.609 173.743 C 241.605 174.299,242.312 174.582,242.182 174.371 C 241.923 173.952,238.800 172.277,238.800 172.558 M100.093 175.200 C 100.093 175.970,100.175 176.285,100.276 175.900 C 100.376 175.515,100.376 174.885,100.276 174.500 C 100.175 174.115,100.093 174.430,100.093 175.200 M128.120 177.200 C 128.120 178.410,128.195 178.905,128.287 178.300 C 128.378 177.695,128.378 176.705,128.287 176.100 C 128.195 175.495,128.120 175.990,128.120 177.200 M99.664 177.850 C 99.629 178.538,99.511 179.708,99.401 180.450 L 99.203 181.800 99.624 180.458 C 99.855 179.720,99.973 178.550,99.886 177.858 L 99.728 176.600 99.664 177.850 M246.800 176.950 C 246.800 177.044,247.441 177.499,248.224 177.961 C 249.007 178.423,249.536 178.620,249.399 178.398 C 249.131 177.964,246.800 176.666,246.800 176.950 M146.101 179.400 C 146.105 180.280,146.187 180.593,146.283 180.095 C 146.379 179.598,146.375 178.878,146.275 178.495 C 146.175 178.113,146.096 178.520,146.101 179.400 M302.820 178.000 C 302.816 178.110,303.071 178.920,303.388 179.800 C 303.705 180.680,303.966 181.040,303.968 180.600 C 303.971 179.935,302.845 177.385,302.820 178.000 M210.114 181.400 C 210.117 182.500,210.195 182.903,210.287 182.295 C 210.379 181.686,210.377 180.786,210.282 180.295 C 210.187 179.803,210.111 180.300,210.114 181.400 M252.000 180.022 C 253.033 180.726,255.600 182.025,255.600 181.842 C 255.600 181.633,252.005 179.597,251.650 179.606 C 251.512 179.609,251.670 179.796,252.000 180.022 M145.693 182.400 C 145.693 183.170,145.775 183.485,145.876 183.100 C 145.976 182.715,145.976 182.085,145.876 181.700 C 145.775 181.315,145.693 181.630,145.693 182.400 M304.131 184.200 C 304.133 185.740,304.205 186.321,304.292 185.491 C 304.379 184.661,304.377 183.401,304.289 182.691 C 304.200 181.981,304.129 182.660,304.131 184.200 M127.301 184.200 C 127.305 185.080,127.387 185.393,127.483 184.895 C 127.579 184.398,127.575 183.678,127.475 183.295 C 127.375 182.913,127.296 183.320,127.301 184.200 M98.893 184.400 C 98.893 185.170,98.975 185.485,99.076 185.100 C 99.176 184.715,99.176 184.085,99.076 183.700 C 98.975 183.315,98.893 183.630,98.893 184.400 M145.301 185.400 C 145.305 186.280,145.387 186.593,145.483 186.095 C 145.579 185.598,145.575 184.878,145.475 184.495 C 145.375 184.113,145.296 184.520,145.301 185.400 M209.693 185.600 C 209.693 186.370,209.775 186.685,209.876 186.300 C 209.976 185.915,209.976 185.285,209.876 184.900 C 209.775 184.515,209.693 184.830,209.693 185.600 M98.493 187.200 C 98.493 187.970,98.575 188.285,98.676 187.900 C 98.776 187.515,98.776 186.885,98.676 186.500 C 98.575 186.115,98.493 186.430,98.493 187.200 M209.314 189.000 C 209.317 190.100,209.395 190.503,209.487 189.895 C 209.579 189.286,209.577 188.386,209.482 187.895 C 209.387 187.403,209.311 187.900,209.314 189.000 M303.280 188.680 C 302.688 190.609,302.975 190.895,303.600 189.000 C 303.864 188.201,304.002 187.469,303.907 187.374 C 303.812 187.278,303.530 187.866,303.280 188.680 M126.893 188.800 C 126.893 189.570,126.975 189.885,127.076 189.500 C 127.176 189.115,127.176 188.485,127.076 188.100 C 126.975 187.715,126.893 188.030,126.893 188.800 M144.613 190.213 C 144.457 191.671,144.414 192.947,144.516 193.050 C 144.619 193.152,144.831 192.044,144.987 190.587 C 145.143 189.129,145.186 187.853,145.084 187.750 C 144.981 187.648,144.769 188.756,144.613 190.213 M126.501 191.800 C 126.505 192.680,126.587 192.993,126.683 192.495 C 126.779 191.998,126.775 191.278,126.675 190.895 C 126.575 190.513,126.496 190.920,126.501 191.800 M208.893 192.400 C 208.893 193.170,208.975 193.485,209.076 193.100 C 209.176 192.715,209.176 192.085,209.076 191.700 C 208.975 191.315,208.893 191.630,208.893 192.400 M300.155 194.281 C 299.307 195.316,298.822 196.034,299.077 195.876 C 299.621 195.540,302.155 192.400,301.882 192.400 C 301.780 192.400,301.003 193.247,300.155 194.281 M97.714 195.400 C 97.717 196.500,97.795 196.903,97.887 196.295 C 97.979 195.686,97.977 194.786,97.882 194.295 C 97.787 193.803,97.711 194.300,97.714 195.400 M208.509 196.000 C 208.509 196.990,208.587 197.395,208.682 196.900 C 208.778 196.405,208.778 195.595,208.682 195.100 C 208.587 194.605,208.509 195.010,208.509 196.000 M143.701 199.000 C 143.705 199.880,143.787 200.193,143.883 199.695 C 143.979 199.198,143.975 198.478,143.875 198.095 C 143.775 197.713,143.696 198.120,143.701 199.000 M295.101 197.833 C 294.972 197.961,293.997 198.319,292.934 198.628 C 291.129 199.154,291.106 199.176,292.592 198.960 C 294.105 198.741,296.682 197.650,295.767 197.616 C 295.528 197.607,295.229 197.705,295.101 197.833 M125.714 200.200 C 125.717 201.300,125.795 201.703,125.887 201.095 C 125.979 200.486,125.977 199.586,125.882 199.095 C 125.787 198.603,125.711 199.100,125.714 200.200 M96.901 202.600 C 96.905 203.480,96.987 203.793,97.083 203.295 C 97.179 202.798,97.175 202.078,97.075 201.695 C 96.975 201.313,96.896 201.720,96.901 202.600 M125.293 204.000 C 125.293 204.770,125.375 205.085,125.476 204.700 C 125.576 204.315,125.576 203.685,125.476 203.300 C 125.375 202.915,125.293 203.230,125.293 204.000 M96.493 205.600 C 96.493 206.370,96.575 206.685,96.676 206.300 C 96.776 205.915,96.776 205.285,96.676 204.900 C 96.575 204.515,96.493 204.830,96.493 205.600 M142.901 206.200 C 142.905 207.080,142.987 207.393,143.083 206.895 C 143.179 206.398,143.175 205.678,143.075 205.295 C 142.975 204.913,142.896 205.320,142.901 206.200 M124.901 207.800 C 124.905 208.680,124.987 208.993,125.083 208.495 C 125.179 207.998,125.175 207.278,125.075 206.895 C 124.975 206.513,124.896 206.920,124.901 207.800 M96.101 208.600 C 96.105 209.480,96.187 209.793,96.283 209.295 C 96.379 208.798,96.375 208.078,96.275 207.695 C 96.175 207.313,96.096 207.720,96.101 208.600 M142.493 209.200 C 142.493 209.970,142.575 210.285,142.676 209.900 C 142.776 209.515,142.776 208.885,142.676 208.500 C 142.575 208.115,142.493 208.430,142.493 209.200 M124.501 211.000 C 124.505 211.880,124.587 212.193,124.683 211.695 C 124.779 211.198,124.775 210.478,124.675 210.095 C 124.575 209.713,124.496 210.120,124.501 211.000 M95.740 214.000 C 95.740 215.870,95.809 216.635,95.893 215.700 C 95.977 214.765,95.977 213.235,95.893 212.300 C 95.809 211.365,95.740 212.130,95.740 214.000 M142.101 212.200 C 142.105 213.080,142.187 213.393,142.283 212.895 C 142.379 212.398,142.375 211.678,142.275 211.295 C 142.175 210.913,142.096 211.320,142.101 212.200 M124.093 214.400 C 124.093 215.170,124.175 215.485,124.276 215.100 C 124.376 214.715,124.376 214.085,124.276 213.700 C 124.175 213.315,124.093 213.630,124.093 214.400 M212.429 213.829 C 212.388 214.433,213.657 218.076,213.844 217.890 C 213.928 217.805,213.651 216.760,213.228 215.568 C 212.805 214.376,212.445 213.593,212.429 213.829 M141.301 218.600 C 141.305 219.480,141.387 219.793,141.483 219.295 C 141.579 218.798,141.575 218.078,141.475 217.695 C 141.375 217.313,141.296 217.720,141.301 218.600 M96.229 218.800 C 96.376 219.350,96.664 220.070,96.867 220.400 C 97.125 220.817,97.157 220.695,96.971 220.000 C 96.824 219.450,96.536 218.730,96.333 218.400 C 96.075 217.983,96.043 218.105,96.229 218.800 M121.070 222.228 C 120.235 223.422,119.636 224.400,119.738 224.400 C 120.009 224.400,122.880 220.347,122.722 220.188 C 122.648 220.115,121.905 221.033,121.070 222.228 M98.762 223.726 C 99.382 224.504,102.400 226.968,102.400 226.696 C 102.400 226.602,101.455 225.737,100.300 224.774 C 99.145 223.810,98.453 223.339,98.762 223.726 M215.261 223.600 C 215.261 223.930,215.503 224.830,215.800 225.600 C 216.097 226.370,216.339 226.730,216.339 226.400 C 216.339 226.070,216.097 225.170,215.800 224.400 C 215.503 223.630,215.261 223.270,215.261 223.600 M140.464 225.050 C 140.429 225.738,140.311 226.907,140.201 227.650 L 140.003 229.000 140.424 227.658 C 140.655 226.920,140.773 225.750,140.686 225.058 L 140.528 223.800 140.464 225.050 M216.412 227.600 C 216.412 227.930,216.587 228.470,216.800 228.800 C 217.145 229.333,217.188 229.333,217.188 228.800 C 217.188 228.470,217.013 227.930,216.800 227.600 C 216.455 227.067,216.412 227.067,216.412 227.600 M105.800 228.400 C 106.240 228.589,106.960 228.738,107.400 228.732 C 108.043 228.723,108.004 228.657,107.200 228.400 C 105.832 227.962,104.781 227.962,105.800 228.400 M139.693 232.800 C 139.693 233.570,139.775 233.885,139.876 233.500 C 139.976 233.115,139.976 232.485,139.876 232.100 C 139.775 231.715,139.693 232.030,139.693 232.800 M219.248 237.200 C 219.242 237.530,219.483 238.340,219.786 239.000 C 220.493 240.545,220.503 239.826,219.800 238.000 C 219.503 237.230,219.255 236.870,219.248 237.200 M138.893 239.200 C 138.893 239.970,138.975 240.285,139.076 239.900 C 139.176 239.515,139.176 238.885,139.076 238.500 C 138.975 238.115,138.893 238.430,138.893 239.200 M138.101 245.800 C 138.105 246.680,138.187 246.993,138.283 246.495 C 138.379 245.998,138.375 245.278,138.275 244.895 C 138.175 244.513,138.096 244.920,138.101 245.800 M221.606 245.433 C 221.609 245.855,221.795 246.470,222.018 246.800 C 222.315 247.238,222.352 247.076,222.156 246.200 C 221.827 244.729,221.598 244.410,221.606 245.433 M137.033 252.833 C 136.883 253.966,136.841 254.974,136.939 255.072 C 137.037 255.171,137.245 254.328,137.400 253.200 C 137.555 252.072,137.598 251.064,137.494 250.961 C 137.391 250.858,137.184 251.700,137.033 252.833 M224.856 256.400 C 224.856 256.730,225.011 257.360,225.200 257.800 C 225.417 258.304,225.544 258.378,225.544 258.000 C 225.544 257.670,225.389 257.040,225.200 256.600 C 224.983 256.096,224.856 256.022,224.856 256.400 M136.493 259.200 C 136.493 259.970,136.575 260.285,136.676 259.900 C 136.776 259.515,136.776 258.885,136.676 258.500 C 136.575 258.115,136.493 258.430,136.493 259.200 M180.777 261.918 C 180.527 262.752,180.406 263.877,180.507 264.418 C 180.657 265.219,180.701 265.156,180.746 264.080 C 180.775 263.354,181.075 262.229,181.410 261.580 C 181.746 260.931,181.843 260.400,181.626 260.400 C 181.410 260.400,181.028 261.083,180.777 261.918 M136.093 262.400 C 136.093 263.170,136.175 263.485,136.276 263.100 C 136.376 262.715,136.376 262.085,136.276 261.700 C 136.175 261.315,136.093 261.630,136.093 262.400 M182.856 264.800 C 182.856 265.130,183.011 265.760,183.200 266.200 C 183.417 266.704,183.544 266.778,183.544 266.400 C 183.544 266.070,183.389 265.440,183.200 265.000 C 182.983 264.496,182.856 264.422,182.856 264.800 M134.987 270.987 C 134.831 272.444,134.789 273.723,134.895 273.828 C 135.001 273.934,135.210 272.823,135.360 271.360 C 135.510 269.897,135.551 268.618,135.452 268.518 C 135.352 268.419,135.143 269.529,134.987 270.987 M230.229 274.800 C 230.376 275.350,230.664 276.070,230.867 276.400 C 231.125 276.817,231.157 276.695,230.971 276.000 C 230.824 275.450,230.536 274.730,230.333 274.400 C 230.075 273.983,230.043 274.105,230.229 274.800 M178.901 278.200 C 178.905 279.080,178.987 279.393,179.083 278.895 C 179.179 278.398,179.175 277.678,179.075 277.295 C 178.975 276.913,178.896 277.320,178.901 278.200 M133.833 279.633 C 133.683 280.766,133.641 281.774,133.739 281.872 C 133.837 281.971,134.045 281.128,134.200 280.000 C 134.355 278.872,134.398 277.864,134.294 277.761 C 134.191 277.658,133.984 278.500,133.833 279.633 M231.256 278.000 C 231.256 278.330,231.411 278.960,231.600 279.400 C 231.817 279.904,231.944 279.978,231.944 279.600 C 231.944 279.270,231.789 278.640,231.600 278.200 C 231.383 277.696,231.256 277.622,231.256 278.000 M232.456 282.400 C 232.456 282.730,232.611 283.360,232.800 283.800 C 233.017 284.304,233.144 284.378,233.144 284.000 C 233.144 283.670,232.989 283.040,232.800 282.600 C 232.583 282.096,232.456 282.022,232.456 282.400 M178.253 284.036 C 178.114 284.731,178.022 285.863,178.049 286.550 C 178.078 287.294,178.238 286.840,178.443 285.428 C 178.811 282.904,178.676 281.918,178.253 284.036 M233.248 285.200 C 233.242 285.530,233.483 286.340,233.786 287.000 C 234.493 288.545,234.503 287.826,233.800 286.000 C 233.503 285.230,233.255 284.870,233.248 285.200 M132.901 289.000 C 132.905 289.880,132.987 290.193,133.083 289.695 C 133.179 289.198,133.175 288.478,133.075 288.095 C 132.975 287.713,132.896 288.120,132.901 289.000 M177.693 289.200 C 177.693 289.970,177.775 290.285,177.876 289.900 C 177.976 289.515,177.976 288.885,177.876 288.500 C 177.775 288.115,177.693 288.430,177.693 289.200 M234.456 288.800 C 234.456 289.130,234.611 289.760,234.800 290.200 C 235.017 290.704,235.144 290.778,235.144 290.400 C 235.144 290.070,234.989 289.440,234.800 289.000 C 234.583 288.496,234.456 288.422,234.456 288.800 M190.062 289.600 C 190.062 289.930,190.394 291.100,190.800 292.200 C 191.206 293.300,191.538 293.930,191.538 293.600 C 191.538 293.270,191.206 292.100,190.800 291.000 C 190.394 289.900,190.062 289.270,190.062 289.600 M177.309 292.800 C 177.309 293.790,177.387 294.195,177.482 293.700 C 177.578 293.205,177.578 292.395,177.482 291.900 C 177.387 291.405,177.309 291.810,177.309 292.800 M176.893 296.000 C 176.893 296.770,176.975 297.085,177.076 296.700 C 177.176 296.315,177.176 295.685,177.076 295.300 C 176.975 294.915,176.893 295.230,176.893 296.000 M236.644 296.800 C 236.780 297.570,237.054 298.470,237.251 298.800 C 237.677 299.510,237.268 297.437,236.739 296.200 C 236.508 295.660,236.477 295.856,236.644 296.800 M127.878 304.620 C 126.409 307.614,126.545 307.969,128.046 305.060 C 128.710 303.773,129.186 302.653,129.104 302.571 C 129.023 302.489,128.471 303.411,127.878 304.620 M174.867 303.580 C 174.633 304.251,174.527 304.800,174.631 304.800 C 174.901 304.800,175.656 302.722,175.457 302.524 C 175.367 302.433,175.101 302.908,174.867 303.580 M194.461 304.400 C 194.461 304.730,194.703 305.630,195.000 306.400 C 195.297 307.170,195.539 307.530,195.539 307.200 C 195.539 306.870,195.297 305.970,195.000 305.200 C 194.703 304.430,194.461 304.070,194.461 304.400 M239.616 307.054 C 239.607 307.304,239.863 308.114,240.184 308.854 C 240.506 309.594,240.776 309.996,240.784 309.746 C 240.793 309.496,240.537 308.686,240.216 307.946 C 239.894 307.206,239.624 306.804,239.616 307.054 M195.844 309.400 C 196.173 310.871,196.402 311.190,196.394 310.167 C 196.391 309.745,196.205 309.130,195.982 308.800 C 195.685 308.362,195.648 308.524,195.844 309.400 M240.856 310.800 C 240.856 311.130,241.011 311.760,241.200 312.200 C 241.417 312.704,241.544 312.778,241.544 312.400 C 241.544 312.070,241.389 311.440,241.200 311.000 C 240.983 310.496,240.856 310.422,240.856 310.800 M242.006 315.033 C 242.009 315.455,242.195 316.070,242.418 316.400 C 242.715 316.838,242.752 316.676,242.556 315.800 C 242.227 314.329,241.998 314.010,242.006 315.033 M197.663 315.800 C 197.662 316.020,197.903 316.830,198.200 317.600 C 198.497 318.370,198.745 318.730,198.752 318.400 C 198.758 318.070,198.517 317.260,198.214 316.600 C 197.912 315.940,197.664 315.580,197.663 315.800 M244.248 322.600 C 244.391 323.260,244.666 324.070,244.859 324.400 C 245.084 324.784,245.118 324.568,244.952 323.800 C 244.809 323.140,244.534 322.330,244.341 322.000 C 244.116 321.616,244.082 321.832,244.248 322.600 M166.065 324.217 C 165.395 325.688,165.523 326.002,166.247 324.665 C 166.586 324.040,166.788 323.454,166.696 323.363 C 166.605 323.271,166.321 323.656,166.065 324.217 M200.863 327.000 C 200.862 327.220,201.103 328.030,201.400 328.800 C 201.697 329.570,201.945 329.930,201.952 329.600 C 201.958 329.270,201.717 328.460,201.414 327.800 C 201.112 327.140,200.864 326.780,200.863 327.000 M246.056 328.800 C 246.056 329.130,246.211 329.760,246.400 330.200 C 246.617 330.704,246.744 330.778,246.744 330.400 C 246.744 330.070,246.589 329.440,246.400 329.000 C 246.183 328.496,246.056 328.422,246.056 328.800 M162.065 333.017 C 161.395 334.488,161.523 334.802,162.247 333.465 C 162.586 332.840,162.788 332.254,162.696 332.163 C 162.605 332.071,162.321 332.456,162.065 333.017 M204.248 338.600 C 204.391 339.260,204.666 340.070,204.859 340.400 C 205.084 340.784,205.118 340.568,204.952 339.800 C 204.809 339.140,204.534 338.330,204.341 338.000 C 204.116 337.616,204.082 337.832,204.248 338.600 M205.256 341.600 C 205.256 341.930,205.411 342.560,205.600 343.000 C 205.817 343.504,205.944 343.578,205.944 343.200 C 205.944 342.870,205.789 342.240,205.600 341.800 C 205.383 341.296,205.256 341.222,205.256 341.600 M250.461 344.000 C 250.461 344.330,250.703 345.230,251.000 346.000 C 251.297 346.770,251.539 347.130,251.539 346.800 C 251.539 346.470,251.297 345.570,251.000 344.800 C 250.703 344.030,250.461 343.670,250.461 344.000 M155.665 347.417 C 154.995 348.888,155.123 349.202,155.847 347.865 C 156.186 347.240,156.388 346.654,156.296 346.563 C 156.205 346.471,155.921 346.856,155.665 347.417 M106.678 351.820 C 105.209 354.814,105.345 355.169,106.846 352.260 C 107.510 350.973,107.986 349.853,107.904 349.771 C 107.823 349.689,107.271 350.611,106.678 351.820 M208.248 352.200 C 208.391 352.860,208.666 353.670,208.859 354.000 C 209.084 354.384,209.118 354.168,208.952 353.400 C 208.809 352.740,208.534 351.930,208.341 351.600 C 208.116 351.216,208.082 351.432,208.248 352.200 M152.465 354.617 C 151.795 356.088,151.923 356.402,152.647 355.065 C 152.986 354.440,153.188 353.854,153.096 353.763 C 153.005 353.671,152.721 354.056,152.465 354.617 M253.844 355.600 C 253.980 356.370,254.254 357.270,254.451 357.600 C 254.877 358.310,254.468 356.237,253.939 355.000 C 253.708 354.460,253.677 354.656,253.844 355.600 M209.656 356.800 C 209.656 357.130,209.811 357.760,210.000 358.200 C 210.217 358.704,210.344 358.778,210.344 358.400 C 210.344 358.070,210.189 357.440,210.000 357.000 C 209.783 356.496,209.656 356.422,209.656 356.800 M103.872 358.219 C 102.932 360.189,103.064 360.524,104.047 358.662 C 104.493 357.816,104.787 357.054,104.701 356.967 C 104.614 356.881,104.241 357.444,103.872 358.219 M149.675 361.019 C 148.470 363.500,148.605 363.847,149.846 361.461 C 150.401 360.394,150.787 359.453,150.703 359.370 C 150.619 359.286,150.157 360.028,149.675 361.019 M211.444 363.200 C 211.580 363.970,211.854 364.870,212.051 365.200 C 212.477 365.910,212.068 363.837,211.539 362.600 C 211.308 362.060,211.277 362.256,211.444 363.200 M146.475 368.219 C 145.270 370.700,145.405 371.047,146.646 368.661 C 147.201 367.594,147.587 366.653,147.503 366.570 C 147.419 366.486,146.957 367.228,146.475 368.219 M99.657 367.657 C 99.375 368.109,99.232 368.566,99.340 368.673 C 99.447 368.781,99.744 368.478,100.000 368.000 C 100.605 366.870,100.324 366.590,99.657 367.657 M213.044 368.600 C 213.373 370.071,213.602 370.390,213.594 369.367 C 213.591 368.945,213.405 368.330,213.182 368.000 C 212.885 367.562,212.848 367.724,213.044 368.600 M214.006 372.233 C 214.009 372.655,214.195 373.270,214.418 373.600 C 214.715 374.038,214.752 373.876,214.556 373.000 C 214.227 371.529,213.998 371.210,214.006 372.233 M97.709 375.600 C 97.709 376.590,97.787 376.995,97.882 376.500 C 97.978 376.005,97.978 375.195,97.882 374.700 C 97.787 374.205,97.709 374.610,97.709 375.600 M214.861 374.800 C 214.861 375.130,215.103 376.030,215.400 376.800 C 215.697 377.570,215.939 377.930,215.939 377.600 C 215.939 377.270,215.697 376.370,215.400 375.600 C 215.103 374.830,214.861 374.470,214.861 374.800 M142.204 377.669 C 141.655 378.807,141.271 379.804,141.350 379.884 C 141.430 379.963,141.813 379.347,142.201 378.514 C 142.589 377.681,143.069 376.685,143.267 376.300 C 143.466 375.915,143.532 375.600,143.415 375.600 C 143.298 375.600,142.753 376.531,142.204 377.669 M97.709 382.000 C 97.709 382.990,97.787 383.395,97.882 382.900 C 97.978 382.405,97.978 381.595,97.882 381.100 C 97.787 380.605,97.709 381.010,97.709 382.000 M259.429 382.629 C 259.281 383.215,259.238 383.772,259.332 383.866 C 259.427 383.960,259.624 383.558,259.771 382.971 C 259.919 382.385,259.962 381.828,259.868 381.734 C 259.773 381.640,259.576 382.042,259.429 382.629 M139.265 384.217 C 138.595 385.688,138.723 386.002,139.447 384.665 C 139.786 384.040,139.988 383.454,139.896 383.363 C 139.805 383.271,139.521 383.656,139.265 384.217 M258.465 385.817 C 257.795 387.288,257.923 387.602,258.647 386.265 C 258.986 385.640,259.188 385.054,259.096 384.963 C 259.005 384.871,258.721 385.256,258.465 385.817 M98.432 385.916 C 98.396 386.491,99.902 389.600,100.216 389.600 C 100.326 389.600,100.078 388.925,99.664 388.100 C 99.250 387.275,98.810 386.330,98.687 386.000 C 98.539 385.604,98.452 385.575,98.432 385.916 M256.657 389.409 C 256.101 390.405,255.818 391.112,256.029 390.982 C 256.448 390.723,258.123 387.600,257.842 387.600 C 257.747 387.600,257.213 388.414,256.657 389.409 M135.571 391.100 C 135.079 391.925,133.940 393.410,133.038 394.400 L 131.400 396.200 133.200 394.505 C 134.190 393.573,135.410 392.088,135.912 391.205 C 137.065 389.176,136.772 389.086,135.571 391.100 M252.800 394.062 C 251.370 395.395,250.560 396.300,251.000 396.073 C 251.755 395.683,255.980 391.579,255.585 391.619 C 255.483 391.629,254.230 392.729,252.800 394.062 M103.600 394.200 C 104.795 395.410,105.863 396.400,105.973 396.400 C 106.083 396.400,105.195 395.410,104.000 394.200 C 102.805 392.990,101.737 392.000,101.627 392.000 C 101.517 392.000,102.405 392.990,103.600 394.200 M106.400 396.579 C 106.400 396.689,106.940 397.059,107.600 397.400 C 108.260 397.741,108.800 397.931,108.800 397.821 C 108.800 397.711,108.260 397.341,107.600 397.000 C 106.940 396.659,106.400 396.469,106.400 396.579 M247.600 397.600 C 246.830 398.022,246.344 398.374,246.520 398.383 C 246.944 398.405,249.200 397.232,249.200 396.990 C 249.200 396.728,249.177 396.737,247.600 397.600 M228.609 397.935 C 228.824 398.130,229.626 398.500,230.391 398.756 C 231.156 399.012,231.606 399.061,231.391 398.865 C 231.176 398.670,230.374 398.300,229.609 398.044 C 228.844 397.788,228.394 397.739,228.609 397.935 M125.800 398.614 C 124.800 399.096,124.766 399.151,125.600 398.948 C 126.733 398.671,128.007 398.021,127.400 398.030 C 127.180 398.033,126.460 398.296,125.800 398.614 M113.000 399.600 C 114.196 400.114,115.195 400.114,114.400 399.600 C 114.070 399.387,113.440 399.222,113.000 399.234 L 112.200 399.256 113.000 399.600 M121.600 399.600 L 120.600 399.920 121.600 399.932 C 122.150 399.938,122.960 399.789,123.400 399.600 L 124.200 399.256 123.400 399.268 C 122.960 399.274,122.150 399.424,121.600 399.600 M233.200 399.600 C 234.742 400.094,235.564 400.094,234.800 399.600 C 234.470 399.387,233.750 399.227,233.200 399.246 L 232.200 399.280 233.200 399.600 M240.600 399.600 C 239.506 400.070,241.333 400.070,242.800 399.600 C 243.775 399.288,243.770 399.279,242.600 399.268 C 241.940 399.262,241.040 399.411,240.600 399.600 " stroke="none" fill="#747474" fill-rule="evenodd"></path></g></svg>