<?xml version="1.0" standalone="no"?>
<!DOCTYPE svg PUBLIC "-//W3C//DTD SVG 20010904//EN"
 "http://www.w3.org/TR/2001/REC-SVG-20010904/DTD/svg10.dtd">
<svg version="1.0" xmlns="http://www.w3.org/2000/svg"
 width="1238.000000pt" height="1280.000000pt" viewBox="0 0 1238.000000 1280.000000"
 preserveAspectRatio="xMidYMid meet"
 class="svg-accesibility">
<g transform="translate(0.000000,1280.000000) scale(0.100000,-0.100000)"
fill="#f44336" stroke="none">
<path d="M2920 12794 c-14 -2 -56 -9 -95 -15 -181 -29 -374 -103 -529 -202
-327 -212 -548 -532 -633 -920 -27 -126 -25 -419 5 -597 13 -74 41 -245 63
-380 22 -135 55 -339 74 -455 19 -115 55 -338 80 -495 25 -157 70 -433 100
-615 30 -181 68 -418 85 -525 17 -107 58 -357 90 -555 32 -198 75 -461 95
-585 20 -124 60 -373 90 -555 30 -181 77 -474 105 -650 69 -430 75 -456 125
-560 77 -160 214 -282 387 -347 l83 -31 310 -8 c171 -5 1212 -13 2315 -20
1103 -6 2008 -14 2011 -17 3 -4 87 -196 186 -427 100 -231 357 -829 573 -1330
216 -500 482 -1119 592 -1375 232 -539 232 -538 296 -618 128 -160 298 -248
502 -259 119 -6 185 7 390 80 250 89 456 162 770 273 162 58 356 127 430 154
74 26 214 76 310 110 233 81 263 95 342 147 199 131 321 376 305 613 -22 332
-268 594 -600 641 -163 23 -176 19 -877 -231 -522 -186 -652 -231 -656 -227
-4 4 -301 691 -1261 2922 -118 275 -229 527 -246 560 -20 37 -64 92 -117 145
-123 123 -241 181 -409 199 -47 6 -1064 15 -2258 22 l-2173 12 -5 31 c-3 17
-16 101 -30 186 -14 85 -27 165 -30 178 l-5 22 1587 0 c1551 0 1590 1 1668 20
210 52 370 182 461 375 48 101 65 176 66 290 1 149 -39 279 -123 402 -75 108
-219 215 -344 255 -122 39 -97 38 -1847 38 l-1688 0 -5 23 c-3 12 -25 150 -50
307 -25 157 -75 461 -110 675 -73 444 -80 495 -71 495 28 0 215 48 278 71 211
78 368 178 528 339 247 247 378 527 411 877 54 572 -258 1131 -777 1391 -193
97 -372 141 -594 147 -85 2 -166 2 -180 -1z"/>
<path d="M1535 7299 c-130 -12 -253 -60 -360 -142 -111 -84 -345 -377 -525
-659 -102 -160 -278 -504 -348 -683 -438 -1117 -396 -2340 116 -3399 734
-1515 2283 -2464 3937 -2413 784 25 1493 240 2155 655 704 442 1282 1114 1622
1886 55 125 78 222 78 332 1 407 -356 728 -761 683 -149 -17 -281 -77 -392
-178 -75 -69 -128 -148 -187 -276 -113 -249 -255 -481 -404 -665 -285 -352
-680 -650 -1096 -828 -247 -106 -457 -163 -760 -209 -146 -21 -561 -24 -695
-4 -240 35 -365 61 -530 112 -441 136 -831 373 -1166 708 -457 457 -714 981
-816 1661 -23 159 -23 546 1 720 80 586 286 1049 671 1510 89 106 108 134 144
207 46 93 65 175 65 293 0 129 -13 189 -71 309 -37 77 -59 108 -126 176 -154
154 -340 223 -552 204z"/>
</g>
</svg>
